<?xml version="1.0" encoding="utf-8"?>
<!-- Generator: Adobe Illustrator 21.1.0, SVG Export Plug-In . SVG Version: 6.00 Build 0)  -->
<svg version="1.1" id="Layer_1" xmlns="http://www.w3.org/2000/svg" xmlns:xlink="http://www.w3.org/1999/xlink" x="0px" y="0px"
	 viewBox="0 0 36 36" style="enable-background:new 0 0 36 36;" xml:space="preserve">
<style type="text/css">
	.st0{fill:#7FA900;}
	.st1{fill:#5D5D5D;stroke:#FFFFFF;stroke-width:8;stroke-miterlimit:10;}
	.st2{fill:#FFFFFF;}
</style>
<g>
	<path d="M-19.7,371.5c-0.8,0-1.7-0.2-2.6-0.7l-18.5-10.3c0,0,0,0,0,0l-6.4-3.5c-0.5-0.3-0.6-0.9-0.4-1.3l4.6-8.8
		c0.1-0.2,0.3-0.4,0.6-0.5c0.3-0.1,0.5,0,0.8,0.1l4.2,2.4c0.4,0.2,0.6,0.7,0.5,1.1l-0.9,3.7l4.8,2.7l2.4-9.8
		c0.1-0.3,0.3-0.6,0.6-0.7c0.3-0.1,0.7-0.1,0.9,0.1l3.2,2.4c0.2,0.2,0.4,0.4,0.4,0.6l2.2,12.8l5.7,3.2l0,0c0.9,0.5,1.5,1.3,1.7,2.3
		c0.2,1.1-0.1,2.3-0.9,3.1C-17.6,371.1-18.6,371.5-19.7,371.5z M-39.9,358.7C-39.9,358.7-39.9,358.7-39.9,358.7l18.6,10.4
		c0.9,0.5,2.2,0.8,3-0.1c0.3-0.4,0.5-1,0.4-1.5c0-0.3-0.2-0.7-0.7-0.9l-6.1-3.4c-0.3-0.1-0.4-0.4-0.5-0.7l-2.2-12.9l-1.7-1.2
		l-2.4,9.6c-0.1,0.3-0.3,0.6-0.6,0.7c-0.3,0.1-0.6,0.1-0.9,0l-6.6-3.7c-0.4-0.2-0.6-0.7-0.5-1.1l0.9-3.7l-2.7-1.5l-3.7,7.1
		L-39.9,358.7z"/>
</g>
<g>
	<path d="M89.7,362.2H64.2c-0.5,0-0.9-0.4-1-0.9l-1-9c0-0.3,0.1-0.6,0.2-0.8s0.5-0.3,0.7-0.3h3c0.4,0,0.8,0.3,0.9,0.7l1.1,3.3h21.4
		c1.9,0,3.5,1.6,3.5,3.5S91.6,362.2,89.7,362.2z M65.1,360.2h24.6c0.8,0,1.5-0.7,1.5-1.5s-0.7-1.5-1.5-1.5H67.5
		c-0.4,0-0.8-0.3-0.9-0.7l-1.1-3.3h-1.2L65.1,360.2z"/>
	<path d="M79.2,369.2h-6c-0.3,0-0.6-0.2-0.8-0.4c-0.2-0.3-0.2-0.6-0.1-0.9l3-7c0.2-0.4,0.5-0.6,0.9-0.6h8c0.4,0,0.7,0.2,0.9,0.5
		c0.2,0.3,0.1,0.7-0.1,1l-5,7C79.8,369.1,79.5,369.2,79.2,369.2z M74.7,367.2h4l3.6-5h-5.4L74.7,367.2z"/>
	<path d="M84.2,357.2h-8c-0.4,0-0.8-0.2-0.9-0.6l-3-7c-0.1-0.3-0.1-0.7,0.1-0.9c0.2-0.3,0.5-0.4,0.8-0.4h6c0.3,0,0.6,0.2,0.8,0.4
		l5,7c0.2,0.3,0.2,0.7,0.1,1C84.9,357,84.5,357.2,84.2,357.2z M76.8,355.2h5.4l-3.6-5h-4L76.8,355.2z"/>
</g>
<path d="M133.5,369.4c-0.3,0-0.6-0.1-0.8-0.4l-5.6-7.8c-0.2-0.2-0.2-0.6-0.2-0.8c0.1-0.3,0.3-0.5,0.6-0.7l3.8-1.6
	c0.4-0.2,0.8-0.1,1.1,0.2l2.8,2.6l4.1-1.8l-6.2-8.7c-0.2-0.2-0.2-0.6-0.2-0.8c0.1-0.3,0.3-0.5,0.6-0.7l3.8-1.6
	c0.3-0.1,0.7-0.1,1,0.1l10.1,7.8l4.9-2.1c0.9-0.4,1.9-0.4,2.7,0c0.9,0.4,1.6,1,2,1.9c0.8,1.8-0.1,3.9-1.9,4.7l-16.6,7.2c0,0,0,0,0,0
	l-5.6,2.4C133.8,369.3,133.6,369.4,133.5,369.4z M129.5,361l4.4,6.1l5-2.1c0,0,0,0,0,0l16.6-7.2c0.8-0.3,1.2-1.3,0.8-2.1
	c-0.2-0.4-0.5-0.7-0.9-0.9c-0.4-0.2-0.8-0.1-1.2,0c0,0,0,0,0,0l-5.4,2.4c-0.3,0.1-0.7,0.1-1-0.1l-10.1-7.8l-2.1,0.9l6.2,8.7
	c0.2,0.2,0.2,0.6,0.2,0.8c-0.1,0.3-0.3,0.5-0.6,0.7l-5.9,2.5c-0.4,0.2-0.8,0.1-1.1-0.2l-2.8-2.6L129.5,361z"/>
<path d="M193,369.4c-0.3,0-0.6-0.1-0.8-0.4l-5.6-7.8c-0.2-0.2-0.2-0.6-0.2-0.8c0.1-0.3,0.3-0.5,0.6-0.7l3.8-1.6
	c0.4-0.2,0.8-0.1,1.1,0.2l2.8,2.6l4.1-1.8l-6.2-8.7c-0.2-0.2-0.2-0.6-0.2-0.8c0.1-0.3,0.3-0.5,0.6-0.7l3.8-1.6
	c0.3-0.1,0.7-0.1,1,0.1l10.1,7.8l4.9-2.1c0.9-0.4,1.9-0.4,2.7,0c0.9,0.4,1.6,1,2,1.9c0.8,1.8-0.1,3.9-1.9,4.7l-16.6,7.2c0,0,0,0,0,0
	l-5.6,2.4C193.3,369.3,193.1,369.4,193,369.4z"/>
<path d="M189,361l4.4,6.1l5-2.1c0,0,0,0,0,0l16.6-7.2c0.8-0.3,1.2-1.3,0.8-2.1c-0.2-0.4-0.5-0.7-0.9-0.9c-0.4-0.2-0.8-0.1-1.2,0
	c0,0,0,0,0,0l-5.4,2.4c-0.3,0.1-0.7,0.1-1-0.1l-10.1-7.8l-2.1,0.9l6.2,8.7c0.2,0.2,0.2,0.6,0.2,0.8c-0.1,0.3-0.3,0.5-0.6,0.7
	l-5.9,2.5c-0.4,0.2-0.8,0.1-1.1-0.2l-2.8-2.6L189,361z"/>
<path class="st0" d="M1310.5,35.7c4.5-1.3,8.7-3.3,12.9-5.1c0.9-0.9,2-1.2,3.2-1.6c0.9-0.2,1.8-0.4,2.6-0.9c0.4-0.2,0.9-0.5,1.4-0.6
	c4.2-2.2,8.3-1.7,12.3,0.4c4.7,2.1,9.4,4.4,13.8,7.1c3.8,2.3,7.7,4.3,11.9,5.9c5.1,2.2,9.9,4.9,14.9,7.2c5.9,2.9,11.8,5.8,17.7,8.5
	c0.8,0.4,1.7,0.8,2.4,1.4c2,1.4,4.3,2.2,6.5,3.1c6.9,3.3,13.9,6.2,21.1,8.9c5.3,1.8,10.5,3.6,16.2,3.3c2.2-0.1,4.2-0.5,6.3-1.3
	c5.3-2.1,10.6-4.5,15.9-6.6c10.2-4,20.4-8.3,30.5-12.5c2.8-1.4,5.8-2.3,8.7-3.5c2.8-0.7,5.3-2,7.9-3c2.2-0.8,4.3-1.7,6.5-2.5
	c2.3-1,4.6-1.9,7-2.9c0.8-0.3,1.5-0.6,2.2-1.1c2.1-1.2,4.3-2.2,6.7-2.6c1.3-0.4,2.6-0.9,3.8-1.6c2.7-1.3,5.6-2.3,8.4-3.4
	c1.3-0.2,2.3-1,3.5-1.4c0.7-0.3,1.4-0.7,2.2-1c0.8-0.4,1.7-0.7,2.5-1.1c2.2-1,4.6-1.6,6.7-2.9c0.6-0.4,1.2-0.8,1.9-1
	c3.9-1.6,7.9-3.1,11.8-4.9c1-0.4,2-0.9,3.1-1.2c3.2-0.8,6.2-2.6,9.4-3.5c1.5-0.1,2.7-0.9,4-1.5c3.1-1.4,6.4-2.6,9.5-3.9
	c2.1-1,4.3-1.6,6.5-2.6c3.8-1.6,7.7-2.8,11.4-4.8c0.4-0.3,0.8-0.5,1.3-0.7c3.1-0.8,5.9-2.5,9-3.5c6.1-2.4,12.3-4.8,18.3-7.5
	c5-2.3,10.2-3.9,15-6.5c5.6-2.2,11-5,16.8-6.6c3-1,5.9-2.3,8.8-3.5c3.4-1.1,6.6-2.9,10-4.1c5.1-2.3,10.4-4,15.5-6.4
	c4.2-1.8,8.3-3.6,12.6-4.9c1.1-0.3,2.2-0.7,3.2-1.1c3.8-1.3,7.8-2,11.7-3c1.1-0.4,2.3-0.7,3.4-1c2.5-0.2,4.9-1.1,7.4-1.2
	c1.3,0,2.6,0,3.9,0c5.5-0.1,11.1,0.2,16.6,1.1c1.5,0.3,3.1,0.5,4.4,1.6c1.2,2.8,0.6,5.2-1.9,7.3c-0.9,0.8-1.7,1.6-2.6,2.3
	c-0.9,0.6-1.8,1.2-2.7,1.8c-1.7,1.2-3.7,1.7-5.3,3.1c-0.6,2.7,0.8,4.8,1.9,7c1.2,0.8,2.2,0.3,3.3-0.3c0.8-0.4,1.5-1,2.2-1.4
	c0.2-0.1,0.4-0.2,0.6-0.3c1.1-0.3,1.9-0.9,2.8-1.5c1.4-0.9,2.8-1.9,3.8-3.3c1.6-1.9,3.4-3.7,4.7-5.9c0.3-0.5,0.7-1.1,1.1-1.5
	c0.9-3,3.1-3.6,6-3.5c4.6,0.2,9,0.8,13.1,3.2c1.7,1.3,3,2.8,4.1,4.6c0.9,2.8,0.5,5.5-0.6,8.1c-0.2,0.5-0.3,1-0.6,1.4
	c-1.6,1.6-2.3,3.8-3.9,5.3c-2.5,3.2-5.7,5.5-8.8,8.1c-1,0.8-2.1,1.4-2.8,2.5c-4.7,3.7-9.9,6.8-15.2,9.6c-2.8,1.1-5.3,2.8-8,4
	c-2,0.9-3.9,1.9-6,2.5c-1,0.1-1.9,0.4-2.7,0.9c-4.3,1.6-8.4,3.5-12.7,5.2c-3.6,1.3-7,2.9-10.5,4.4c-2.3,1.1-4.6,2-6.9,3
	c-0.4,0.2-0.9,0.4-1.4,0.6c-5.5,1.8-10.8,4.2-16.2,6.5c-6.9,2.8-13.6,5.8-20.5,8.5c-2.6,0.8-5,2-7.5,3c-7.2,2.8-14.3,5.7-21.4,8.8
	c-2.3,1-3.7,3.1-5.3,4.9c-8.5,10-17.3,19.7-25.8,29.7c-5.2,5.7-10.2,11.6-15.2,17.4c-5.2,6-10.3,12-15.5,17.8
	c-2.4,2.7-4.6,5.5-7,8.1c-2.1,2.2-4.6,3.7-7.5,4.1c-5.4,0.8-10.7,2.2-16.2,2.7c-0.8,0.1-1.7,0.2-2.3-0.6c-0.6-0.8-0.1-1.6,0.3-2.3
	c1.3-2.8,3.2-5.3,4.2-8.2c2.2-4.9,4.9-9.5,7.6-14.1c1.6-2.2,3.1-4.4,3.8-7.1c0.8-2.3,2.2-4.3,3.3-6.5c1-1.4,1.8-3,2.6-4.5
	c0.8-1.7,0.6-3.4,0.1-5.1c-0.6-1.9-2.1-2.9-3.5-4c-1.1-0.9-2.4-0.1-3.5,0.4c-6.9,2.9-13.9,5.5-20.7,8.6c-7.8,3-15.6,6.3-23.4,9.4
	c-2.2,1-4.4,1.9-6.8,2.6c-6.4,2.4-13.1,4.2-19.6,6.5c-1.1,0.4-2.3,0.5-3.3,1c-7.9,2.5-15.9,4.7-23.8,7c-3.1,1.5-6.6,1.6-9.8,2.9
	c-0.7,0.2-1.3,0.3-2,0.3c-9.7,2-19.3,4.3-28.9,6.4c-5.1,0.6-10.1,1.7-15.1,2.9c-11.8,2-23.6,4-35.4,5.6c-5.5,1.2-11.1,1.6-16.7,2.1
	c-6.3,0.5-12.5,1-18.8,1.6c-4.9,0.5-9.9,0.3-14.9,0.9c-1.9,0.2-3.5-0.8-4.8-2.2c-4.1-3.6-4.6-8.6-0.1-11.4c3-1.9,6.1-3.7,9-5.8
	c3.1-1.9,6.3-3.7,9.5-5.4c3.1-1.6,3.3-2.1,1.2-4.8c-4.8-6.1-9.2-12.6-14.1-18.7c-0.4-0.5-0.8-1.1-1.2-1.6c-2.7-4.4-6.1-8.3-9.1-12.5
	c-0.6-0.8-1.2-1.6-1.6-2.5c-3.3-5.1-7.1-9.9-10.8-14.8c-0.6-0.9-1.3-1.7-2-2.5c-0.6-1.2-1.4-2.3-2.3-3.4c-3.2-4.3-6.4-8.7-9.7-12.9
	c-1.2-1.6-1.7-3.2-1.3-5.1C1310.5,35.9,1310.5,35.8,1310.5,35.7z"/>
<path class="st0" d="M1548.9,22.5c-1.3-0.1-2.2,0.6-3.2,1.1c-2.5,1.2-4.8,1.5-7.2-0.3c-0.8-0.6-1.5-1.3-2.6-1.3
	c-0.8,0.4-1.4-0.2-2.1-0.6c-5.1-2.9-10.4-5.6-15.4-8.6c-5.5-3.1-11.1-6.1-16.6-9.2c-1.2-0.7-2.9-1.2-3-2.7c0-1.8,2-1.6,3.1-1.9
	c4.6-1.5,9.3-3,14-4.3c3.3-0.9,6.4,0.4,9.5,1.1c9.3,2.1,18.4,4.8,27.7,6.9c2.6,0.6,5.1,1.4,7.7,1.9c5.6,1.4,11.1,2.8,16.7,4.2
	c0.5,0.2,1,0.4,1.3,0.9c-0.2,1.3-1.3,1.4-2.2,1.7c-5.8,2-11.3,4.5-16.9,6.9C1556.2,19.6,1552.7,21.3,1548.9,22.5z"/>
<polygon class="st0" points="1666.4,175.2 1686,168.6 1746.5,183.8 1706.4,201.3 "/>
<g>
	<line class="st1" x1="2359.9" y1="149.3" x2="2351.1" y2="152.4"/>
	<line class="st1" x1="2340.5" y1="155.7" x2="2331.7" y2="158.7"/>
	<line class="st1" x1="2320.8" y1="162.6" x2="2312" y2="165.7"/>
	<line class="st1" x1="2300.3" y1="169.9" x2="2291.5" y2="173"/>
	<line class="st1" x1="2281.1" y1="175.9" x2="2272.2" y2="179"/>
	<line class="st1" x1="2426.6" y1="126" x2="2374.8" y2="144.1"/>
</g>
<path class="st0" d="M1957.8,136.2L1957.8,136.2c-9,15.8-18.8,16.6-18.8,16.6c-3.3-2.7-2.7-7.3-2.7-7.3c7.5-3.4,11.1-7.6,11.1-7.6
	c7.8-9.5-7.9-9.1-7.9-9.1l0,0c-15.8-1.1-21.4,0.1-26.3,1.8c-71.9,25-292.8,116.6-292.8,116.6c-13.7,6.2-116.2-48.2-116.2-48.2
	l-28,11.9l56.1,75.6l-21,14c-8.4,13.6,4.9,13.6,4.9,13.6l70.1-7.6c56-6.1,143-38.2,171.8-49.3c3.4-1.3,6.6,2.2,5,5.5l-22.5,45.2
	l22.6-3.5l72.3-80.6l63.1-26c77.8-25.6,81-48.4,81-48.4c1.9-4.8,2.5-9.9-7.6-13.2C1968.3,135,1960.1,133.2,1957.8,136.2z"/>
<polygon class="st2" points="1531.6,269.1 1488.2,213.6 1495.8,210.3 1538.3,264.6 "/>
<polygon class="st2" points="1923.9,150.9 1927,158.3 1916.8,162.7 1913.7,155.3 "/>
<polygon class="st2" points="1904.8,158.8 1907.9,166.1 1897.8,170.5 1894.6,163.1 "/>
<polygon class="st2" points="1885.7,166.8 1888.8,174.2 1878.7,178.5 1875.5,171.2 "/>
<polygon class="st2" points="1866.4,174.6 1869.5,181.9 1859.4,186.3 1856.2,179 "/>
<polygon class="st2" points="1847.1,182.2 1850.3,189.6 1840.1,194 1837,186.6 "/>
<g>
	<polygon class="st0" points="13.6,14.7 15,14.2 19.3,15.3 16.4,16.6 	"/>
	<path class="st0" d="M34.4,11.9L34.4,11.9c-0.6,1.1-1.3,1.2-1.3,1.2c-0.2-0.2-0.2-0.5-0.2-0.5c0.5-0.2,0.8-0.5,0.8-0.5
		c0.6-0.7-0.6-0.6-0.6-0.6l0,0c-1.1-0.1-1.5,0-1.9,0.1c-5.1,1.8-20.9,8.3-20.9,8.3c-1,0.4-8.3-3.4-8.3-3.4l-2,0.9l4,5.4l-1.5,1
		c-0.6,1,0.3,1,0.3,1l5-0.5c4-0.4,10.2-2.7,12.3-3.5c0.2-0.1,0.5,0.2,0.4,0.4l-1.6,3.2l1.6-0.3l5.2-5.8l4.5-1.9
		c5.6-1.8,5.8-3.5,5.8-3.5c0.1-0.3,0.2-0.7-0.5-0.9C35.1,11.8,34.5,11.7,34.4,11.9z"/>
	<rect x="31.3" y="13.1" transform="matrix(0.9194 -0.3932 0.3932 0.9194 -2.7163 13.5451)" class="st2" width="0.8" height="0.6"/>
	<rect x="29.9" y="13.7" transform="matrix(0.9194 -0.3932 0.3932 0.9194 -3.0458 13.0545)" class="st2" width="0.8" height="0.6"/>
	<rect x="28.6" y="14.2" transform="matrix(0.9194 -0.3932 0.3932 0.9194 -3.3812 12.5651)" class="st2" width="0.8" height="0.6"/>
	<rect x="27.2" y="14.8" transform="matrix(0.9194 -0.3932 0.3932 0.9194 -3.7105 12.0686)" class="st2" width="0.8" height="0.6"/>
	<rect x="25.8" y="15.4" transform="matrix(0.9194 -0.3932 0.3932 0.9194 -4.0359 11.5713)" class="st2" width="0.8" height="0.6"/>
</g>
</svg>
