<?xml version="1.0" encoding="UTF-8"?>
<svg width="100px" height="100px" viewBox="0 0 100 100" version="1.1" xmlns="http://www.w3.org/2000/svg" xmlns:xlink="http://www.w3.org/1999/xlink">
    <!-- Generator: Sketch 48.2 (47327) - http://www.bohemiancoding.com/sketch -->
    <title>birthday@2x</title>
    <desc>Created with Sketch.</desc>
    <defs></defs>
    <g id="Day_icons" stroke="none" stroke-width="1" fill="none" fill-rule="evenodd">
        <g id="birthday">
            <g id="Group-5">
                <rect id="Rectangle-7" fill="#09B0DB" x="45.0549451" y="15.3846154" width="9.89010989" height="14.2857143" rx="4.94505495"></rect>
                <rect id="Rectangle-6" fill="#663B21" x="10.989011" y="57.1428571" width="79.1208791" height="38.4615385" rx="8"></rect>
                <rect id="Rectangle-6-Copy" fill="#663B21" x="20.8791209" y="31.8681319" width="59.3406593" height="34.0659341" rx="8"></rect>
                <path d="M31.8681319,31.8681319 L69.2307692,31.8681319 C69.2307692,35.5095698 66.2788005,38.4615385 62.6373626,38.4615385 C59.9343727,38.4615385 57.6112728,36.8350357 56.5934066,34.5073739 C55.5755404,36.8350357 53.2524405,38.4615385 50.5494505,38.4615385 C47.8464606,38.4615385 45.5233607,36.8350357 44.5054945,34.5073739 C43.4876283,36.8350357 41.1645284,38.4615385 38.4615385,38.4615385 C34.8201006,38.4615385 31.8681319,35.5095698 31.8681319,31.8681319 Z" id="Combined-Shape" fill="#FFC883"></path>
                <path d="M19.7802198,57.1428571 L81.3096267,57.1428571 C81.1284093,60.6222668 78.2497948,63.3877174 74.7252747,63.3877174 C72.1063632,63.3877174 69.8440757,61.8608279 68.7800638,59.6487004 C67.8201309,62.1030024 65.4317551,63.8413665 62.6373626,63.8413665 C59.9138354,63.8413665 57.5759929,62.1900535 56.5704319,59.8340243 C55.5408925,62.1339144 53.2322959,63.7362637 50.5494505,63.7362637 C47.8464606,63.7362637 45.5233607,62.109761 44.5054945,59.7820992 C43.4876283,62.109761 41.1645284,63.7362637 38.4615385,63.7362637 C35.7585485,63.7362637 33.4354486,62.109761 32.4175824,59.7820992 C31.3997162,62.109761 29.0766163,63.7362637 26.3736264,63.7362637 C22.7321885,63.7362637 19.7802198,60.7842951 19.7802198,57.1428571 Z" id="Combined-Shape-Copy" fill="#FFC883"></path>
                <rect id="Rectangle-6-Copy-2" fill="#FF3C5D" x="30.7692308" y="26.3736264" width="39.5604396" height="6.59340659" rx="3.2967033"></rect>
                <polygon id="Rectangle-5" fill="#00ABD5" points="4.3956044 90.1098901 96.7032967 90.1098901 88.5674699 100 12.1929409 100"></polygon>
                <rect id="Rectangle-4" fill="#6CBED2" x="0" y="86.8131868" width="100" height="6.59340659" rx="3.2967033"></rect>
                <path d="M50.0151243,11.9625075 C50.0074575,11.9658652 49.9997774,11.9692127 49.992084,11.9725499 L49.992084,11.952368 C47.7942818,10.9805108 46.6953807,9.1557362 46.6953807,6.47804436 C46.6953807,3.80035252 47.7942818,1.97557797 49.992084,1.00372071 L49.992084,0.983538869 C49.9997774,0.986876023 50.0074575,0.990223484 50.0151243,0.993581252 C50.0227912,0.990223484 50.0304713,0.986876023 50.0381647,0.983538869 L50.0381647,1.00372071 C52.2359669,1.97557797 53.334868,3.80035252 53.334868,6.47804436 C53.334868,9.1557362 52.2359669,10.9805108 50.0381647,11.952368 L50.0381647,11.9725499 C50.0304713,11.9692127 50.0227912,11.9658652 50.0151243,11.9625075 Z" id="Combined-Shape" fill="#FF9300"></path>
            </g>
        </g>
    </g>
</svg>