<?xml version="1.0" encoding="UTF-8"?>
<svg width="100px" height="100px" viewBox="0 0 100 100" version="1.1" xmlns="http://www.w3.org/2000/svg" xmlns:xlink="http://www.w3.org/1999/xlink">
    <!-- Generator: Sketch 48.2 (47327) - http://www.bohemiancoding.com/sketch -->
    <title>cancer</title>
    <desc>Created with Sketch.</desc>
    <defs></defs>
    <g id="Page-1" stroke="none" stroke-width="1" fill="none" fill-rule="evenodd">
        <g id="cancer" fill-rule="nonzero">
            <g transform="translate(5.000000, 7.000000)">
                <g id="Group" transform="translate(0.000000, 28.000000)" fill="#FFC502">
                    <path d="M78.7265895,60.9904314 C78.3410789,60.9904314 78.0056895,60.7205961 77.9173921,60.3390471 C76.4348395,53.9340471 75.4513895,52.9348431 69.1490184,51.4280235 C68.7735789,51.3383176 68.5084526,50.9979137 68.5084526,50.6058392 C68.5084526,50.2137647 68.7738132,49.8731216 69.1490184,49.7834157 C75.4511553,48.2768353 76.4346053,47.2771529 77.9173921,40.8723922 C78.0056895,40.4908431 78.3410789,40.2212471 78.7265895,40.2212471 C79.1123342,40.2212471 79.4472553,40.4908431 79.5357868,40.8723922 C81.0183395,47.2771529 82.0017895,48.2768353 88.3039263,49.7834157 C88.6793658,49.8731216 88.9447263,50.2137647 88.9447263,50.6058392 C88.9447263,50.9979137 88.6791316,51.3383176 88.3039263,51.4280235 C82.0020237,52.9348431 81.0185737,53.9340471 79.5357868,60.3390471 C79.4472553,60.7205961 79.1121,60.9904314 78.7265895,60.9904314 Z" id="Shape"></path>
                    <path d="M10.4415737,20.9301765 C10.0560632,20.9301765 9.72090789,20.6605804 9.63237632,20.2787922 C8.14982368,13.8737922 7.16660789,12.8748275 0.864002632,11.3680078 C0.488563158,11.2780627 0.223436842,10.9376588 0.223436842,10.5455843 C0.223436842,10.153749 0.488797368,9.81286667 0.864002632,9.72316078 C7.16637368,8.21658039 8.14958947,7.21713725 9.63237632,0.812137255 C9.72090789,0.430588235 10.0560632,0.160752941 10.4415737,0.160752941 C10.8273184,0.160752941 11.1624737,0.430588235 11.2510053,0.812137255 C12.7330895,7.21713725 13.7165395,8.21634118 20.0189105,9.72316078 C20.3941158,9.81286667 20.6599447,10.1535098 20.6599447,10.5455843 C20.6599447,10.9376588 20.3941158,11.278302 20.0189105,11.3680078 C13.7167737,12.8748275 12.7333237,13.8737922 11.2510053,20.2787922 C11.1624737,20.6605804 10.8273184,20.9301765 10.4415737,20.9301765 Z" id="Shape"></path>
                </g>
                <path d="M39.8538916,17 C35.7005878,9.36026872 32.0172497,2.58514157 31,0.715466111 L31,0.265326941 C31.2342842,0.0968653911 31.5128168,0 31.8050898,0 L59.1939787,0 C59.4869503,0 59.7657158,0.0973608662 60,0.265822416 L60,1.02711998 C58.8355658,3.16782035 55.5122707,9.28124044 51.3163487,17 L39.8538916,17 Z" id="Shape" fill="#C0272D"></path>
                <g id="Group" transform="translate(21.000000, 0.000000)" fill="#EF5050">
                    <path d="M0.431515152,64.8668917 C0.431515152,64.8668917 6.85575758,54.0666624 14.4533333,41.2936497 L24.0707879,57.4633567 L14.8586667,72.9515096 C14.1587879,74.1277325 13.12,74.075414 12.5495758,72.8348535 L10.5495758,68.483465 C9.97963636,67.2429045 8.37284848,66.3136624 6.97890909,66.4182994 L1.69333333,66.8154013 C0.299393939,66.9198025 -0.268121212,66.0431146 0.431515152,64.8668917 Z" id="Shape"></path>
                    <path d="M33.256,41.7298726 C33.1626667,41.5733885 28.7721212,34.192242 23.7248485,25.7065159 C31.7653333,12.1892611 38.8150303,0.338420382 38.9018182,0.19466242 C39.126303,0.320273885 39.3170909,0.50244586 39.4513939,0.727980892 C40.633697,2.71396178 47.3633939,14.0246497 47.3633939,14.0246497 C48.0632727,15.2008726 48.0632727,17.1255796 47.3633939,18.3018025 L33.3420606,41.8752803 L33.256,41.7298726 Z" id="Shape"></path>
                </g>
                <path d="M22.5274016,13.7159936 C22.5274016,13.7159936 29.1756593,2.68976798 30.4797266,0.528697877 C30.6149578,0.305251736 30.9633054,0.271672962 31.1889343,0.147094727 C31.3931212,0.479926635 69.5430223,63.8826907 69.5430223,63.8826907 C69.5433471,63.8830023 69.5952467,63.9687813 69.6987209,64.1400277 C70.4021667,65.3065755 69.8310281,66.1760521 68.4304716,66.0722759 L63.117957,65.6784404 C61.7169131,65.5746641 60.1021796,66.4962626 59.5288481,67.7266188 L57.5186547,72.0422145 C56.9455669,73.2725707 55.9014846,73.3244588 55.1982824,72.157911 L52.3077462,67.3622333 L22.5274016,17.9579643 C21.8241995,16.7914165 21.8241995,14.8825414 22.5274016,13.7159936 Z" id="Shape" fill="#FB8276"></path>
                <g id="Group" opacity="0.1" transform="translate(21.000000, 10.000000)" fill="#000000">
                    <path d="M37.2559493,57.3613829 L4.09911275,1.8265316 C3.79198856,1.31246097 3.80074757,0.729826427 3.73448613,0.0600123011 C2.57587829,1.99966286 1.649648,3.52857759 1.649648,3.52857759 C0.635353232,5.26381968 0.833882238,7.01376963 1.649648,8.18268967 L31.0798513,57.1318662 L34.2875479,62.2960157 C35.2418855,63.3397683 35.7523682,63.2441612 36.5126431,62.0168726 L38.0752998,58.5319179 L37.2559493,57.3613829 Z" id="Shape"></path>
                </g>
            </g>
        </g>
    </g>
</svg>