<?xml version="1.0" encoding="UTF-8"?>
<svg width="100px" height="100px" viewBox="0 0 100 100" version="1.1" xmlns="http://www.w3.org/2000/svg" xmlns:xlink="http://www.w3.org/1999/xlink">
    <!-- Generator: Sketch 48.2 (47327) - http://www.bohemiancoding.com/sketch -->
    <title>christmas day@2x</title>
    <desc>Created with Sketch.</desc>
    <defs></defs>
    <g id="Day_icons" stroke="none" stroke-width="1" fill="none" fill-rule="evenodd">
        <g id="christmas-day">
            <g id="Group" transform="translate(18.000000, 5.000000)">
                <g id="Group-7" transform="translate(0.000000, 10.975610)">
                    <path d="M39.1214823,4.74824662 L25.5747346,4.74824662 C23.7191877,4.74824662 22.215011,6.25242332 22.215011,8.10763111 L22.215011,15.9320632 L42.4812059,15.9320632 L42.4812059,8.10763111 C42.4812059,6.25242332 40.9770292,4.74824662 39.1214823,4.74824662" id="Fill-4" fill="#F6BC25"></path>
                    <path d="M36.6422192,6.02688161 C36.1738386,6.02688161 35.794318,5.64702188 35.794318,5.17898042 C35.794318,3.25763634 34.2318057,1.69580237 32.3114791,1.69580237 C30.3911525,1.69580237 28.8286402,3.25763634 28.8286402,5.17898042 C28.8286402,5.64702188 28.4491196,6.02688161 27.980739,6.02688161 C27.512528,6.02688161 27.1328379,5.64702188 27.1328379,5.17898042 C27.1328379,2.32324924 29.4560871,7.10542736e-15 32.3114791,7.10542736e-15 C35.1668711,7.10542736e-15 37.4901204,2.32324924 37.4901204,5.17898042 C37.4901204,5.64702188 37.1104302,6.02688161 36.6422192,6.02688161" id="Fill-5" fill="#F6BC25"></path>
                    <path d="M32.2896033,14.4143201 C14.4565456,14.4143201 0,28.8710353 0,46.704093 C0,64.5371506 14.4565456,78.9938658 32.2896033,78.9938658 C50.1226609,78.9938658 64.5792065,64.5371506 64.5792065,46.704093 C64.5792065,28.8710353 50.1226609,14.4143201 32.2896033,14.4143201 Z" id="Fill-3" fill="#DD4D40"></path>
                    <path d="M54.4149326,55.7704644 C54.1818264,55.7704644 53.9592388,55.6290426 53.7990844,55.3834153 L47.0289958,44.9306085 L40.2589071,55.3834153 C40.098583,55.6290426 39.8759954,55.7704644 39.6430589,55.7704644 C39.4101224,55.7704644 39.1873652,55.6290426 39.0272107,55.3834153 L32.2572918,44.9306085 L25.4872031,55.3834153 C25.326879,55.6290426 25.1042915,55.7704644 24.8713549,55.7704644 C24.6384184,55.7704644 24.4156612,55.6290426 24.2555068,55.3834153 L17.4854181,44.9306085 L10.7153295,55.3834153 C10.555175,55.6290426 10.3325875,55.7704644 10.0994813,55.7704644 C9.86654479,55.7704644 9.64395724,55.6290426 9.48380278,55.3834153 L2.09786596,43.9803533 C1.77569083,43.4841365 1.79011152,42.6976329 2.13027009,42.2262269 C2.47042866,41.754821 3.0073872,41.7771507 3.32956232,42.2733675 L10.0994813,52.7261743 L16.8695699,42.2733675 C17.0298941,42.0277402 17.2524816,41.8863184 17.4854181,41.8863184 C17.7183546,41.8863184 17.9411119,42.0277402 18.1012663,42.2733675 L24.8713549,52.7261743 L31.6414436,42.2733675 C31.801598,42.0277402 32.0241856,41.8863184 32.2572918,41.8863184 C32.4902283,41.8863184 32.7128158,42.0277402 32.8729703,42.2733675 L39.6430589,52.7261743 L46.4131476,42.2733675 C46.573302,42.0277402 46.7960592,41.8863184 47.0289958,41.8863184 C47.2619323,41.8863184 47.4845198,42.0277402 47.6448439,42.2733675 L54.4149326,52.7261743 L61.1848516,42.2733675 C61.506857,41.7771507 62.0439852,41.754821 62.3839741,42.2262269 C62.7241327,42.6976329 62.738723,43.4841365 62.4165479,43.9803533 L55.0306111,55.3834153 C54.8704566,55.6290426 54.6478691,55.7704644 54.4149326,55.7704644" id="Fill-7" fill="#F6BC25"></path>
                </g>
                <path d="M33.3774496,12.0065491 C33.3411074,12.3661097 32.5896077,12.6456979 31.698928,12.6310268 C30.8082482,12.6163558 30.1156708,12.3129811 30.1520129,11.9534206 C30.9217377,4.33794648 34.0824858,0.343106352 40.5198534,0.00550235255 C41.4038458,-0.0408581187 42.2135604,0.210852258 42.3284015,0.567713214 C42.4432426,0.92457417 41.8197223,1.25144972 40.9357298,1.29781019 C36.893463,1.50980452 34.0788376,5.06718344 33.3774496,12.0065491 Z" id="Path-6-Copy" fill="#F6BC25" fill-rule="nonzero"></path>
            </g>
        </g>
    </g>
</svg>