<?xml version="1.0" encoding="UTF-8"?>
<svg width="100px" height="100px" viewBox="0 0 100 100" version="1.1" xmlns="http://www.w3.org/2000/svg" xmlns:xlink="http://www.w3.org/1999/xlink">
    <!-- Generator: Sketch 48.2 (47327) - http://www.bohemiancoding.com/sketch -->
    <title>christmas_eve@2x</title>
    <desc>Created with Sketch.</desc>
    <defs></defs>
    <g id="Day_icons" stroke="none" stroke-width="1" fill="none" fill-rule="evenodd">
        <g id="christmas_eve">
            <g id="Group" transform="translate(14.000000, 3.000000)">
                <g id="Group-6">
                    <path d="M32.3679404,18 C32.1880831,18 32.0158793,17.9401574 31.8685493,17.829879 C31.6083302,17.6285358 31.4743939,17.2938979 31.5298818,16.9582592 L32.4138614,11.5534158 L28.6579047,7.72409269 C28.4282996,7.48932574 28.3460244,7.13527397 28.4436066,6.81144369 C28.5450155,6.49081569 28.8090614,6.25604875 29.1305085,6.20701388 L34.3176704,5.41605141 L36.6405086,0.497153531 C36.7840118,0.195338908 37.0786717,0 37.4039455,0 C37.7273061,0 38.0238793,0.195338908 38.1692959,0.497153531 L40.4883073,5.41605141 L45.6754692,6.20701388 C45.9950029,6.25604875 46.2609622,6.49081569 46.3623711,6.81144369 C46.4618666,7.13527397 46.3757647,7.48932574 46.1461596,7.72409269 L42.3921163,11.5534158 L43.2799227,16.9582592 C43.3354106,17.2938979 43.2033876,17.6285358 42.9412551,17.8268769 C42.7939252,17.9401574 42.6178946,18 42.4418641,18 C42.304101,18 42.1701647,17.9663761 42.0438819,17.8971268 L37.4039455,15.3419098 L32.7659226,17.8971268 C32.6396398,17.9663761 32.4999633,18 32.3679404,18" id="Fill-69" fill="#F6BC25"></path>
                    <path d="M73.2552457,69.7964304 C72.0159655,69.8069237 70.8646211,70.062961 69.750087,70.3106036 C68.6089676,70.5645422 67.5312438,70.8037901 66.3614942,70.8037901 C66.1753977,70.8037901 65.9872562,70.7974941 65.8052497,70.7849021 C62.2591906,70.5414568 59.0382892,68.7282094 56.2161661,65.3913303 C58.7847072,64.5770478 60.9503799,63.0890936 63.3041942,60.5434116 C63.4718855,60.3608277 63.647757,60.1761451 63.8256734,59.9893638 C65.1447093,58.6021455 66.6396165,57.0281459 66.9156938,54.8896052 L66.6559766,54.3145707 C66.0036163,53.8843442 65.2919505,53.8255815 64.6845805,53.8255815 C64.5148441,53.8255815 64.3430627,53.8318775 64.1753713,53.8360748 C63.8624837,53.8465682 63.5455062,53.8507655 63.3246443,53.8297788 C59.1896205,53.4289336 55.4104295,51.9283874 51.809155,49.2546868 C56.8828416,48.2284391 59.9380966,45.7729997 61.1323864,41.7750409 L60.968785,41.1664277 C60.1405533,40.3878226 59.2366559,40.3584413 58.4370543,40.3311586 C58.0853114,40.3206653 57.7519737,40.3080733 57.4390861,40.2367186 C52.780538,39.1663989 48.9031862,34.8326535 46.0442528,31.1767771 C43.3632358,27.7496554 41.3223091,23.9384778 39.3488679,20.2532202 C38.8519289,19.3277084 38.3406747,18.3707167 37.8335105,17.4535996 L37.3856519,17.1555891 C35.9275549,17.1471944 35.3958506,18.3979994 34.8825514,19.606831 C34.712815,20.0097749 34.5348985,20.4253108 34.3283518,20.813564 C32.2424347,24.7422669 29.7556944,28.3016046 28.0378803,30.5954466 C24.9908053,34.6668588 21.3445405,39.1055376 16.6430469,40.2388173 C16.3322044,40.3122706 15.9968217,40.3164679 15.6409887,40.3185666 C14.8700174,40.3269613 13.9129496,40.3353559 12.9517917,41.145441 L12.7697852,41.7897315 C14.1542616,46.035333 17.3608478,48.5201536 22.3118334,49.1875295 C22.0357561,49.3973961 21.6696981,49.6030653 21.3649906,49.7772546 C21.1400388,49.9031746 20.9069069,50.0353906 20.6962701,50.1697052 C18.4447067,51.6135875 14.9252329,53.420539 10.9538103,53.8297788 C10.6572829,53.8612588 10.2646397,53.8507655 9.89040163,53.8360748 C9.67976491,53.8255815 9.46912818,53.8171868 9.26053647,53.8171868 C8.7022469,53.8171868 7.97217592,53.8738508 7.26051009,54.3019787 L6.99056788,54.9399732 C7.60202789,57.8109484 9.64908965,59.7396225 11.4568845,61.4395421 C13.1992387,63.0806989 15.1154194,64.7176585 17.6880505,65.2968903 C15.5857733,68.0881162 11.8638428,70.8142834 7.0907737,70.8142834 C6.81265142,70.8142834 6.52839409,70.8037901 6.24618178,70.7849021 C5.42613006,70.7282381 4.67969895,70.5015822 3.95780803,70.2833209 C3.1111711,70.0272837 2.23385891,69.7607531 1.23589074,69.7607531 C1.01502893,69.7607531 0.790077085,69.7754437 0.569215275,69.8006277 L0.0804562717,70.2350516 C-0.252881459,71.5068432 0.518089857,72.6254323 1.13772993,73.52576 C1.268611,73.71464 1.39131201,73.8909279 1.49765288,74.0609199 C7.41388634,83.4881279 15.311741,88.6760305 24.9805802,89.4819182 C25.2137122,90.357062 25.3548183,91.2825737 25.4918344,92.1808028 C25.7270114,93.7233224 25.9724134,95.291026 26.6922593,96.5313376 L47.2201374,96.5313376 C47.9992888,95.1944873 48.2283307,93.4672851 48.4512375,91.7715629 C48.5432633,91.0685098 48.637334,90.34447 48.7702601,89.6351209 C51.927766,89.0831717 54.6824035,88.5794918 57.3347903,87.5007775 C63.2101234,85.1124955 68.0752183,80.7808487 72.2061521,74.2602931 C72.3431682,74.0441305 72.5067696,73.8237706 72.680596,73.5908187 C73.3206862,72.7303656 74.1161977,71.6600459 73.8237603,70.2644329 L73.2552457,69.7964304 Z" id="Fill-72" fill="#3AAB47"></path>
                </g>
                <path d="M25.0608099,89.5024255 C25.2217534,93.9674002 25.7910722,96.3509073 26.7687663,96.6529468 C27.7464604,96.9549863 34.5749768,96.9549863 47.2543156,96.6529468 C48.3538455,95.4926008 48.9036104,93.1090937 48.9036104,89.5024255 C48.9036104,85.8957573 40.9560102,85.8957573 25.0608099,89.5024255 Z" id="Path-10" fill="#663B21"></path>
                <circle id="Oval-7" fill="#F6BC25" cx="32.4246575" cy="38" r="1"></circle>
                <circle id="Oval-7-Copy-4" fill="#F6BC25" cx="24.3150685" cy="71.3333333" r="1"></circle>
                <circle id="Oval-7-Copy" fill="#F6BC25" cx="32.3972603" cy="60" r="3"></circle>
                <circle id="Oval-7-Copy-2" fill="#F6BC25" cx="40.0205479" cy="45.1666667" r="1.5"></circle>
                <ellipse id="Oval-7-Copy-3" fill="#F6BC25" cx="50.1780822" cy="74.2222222" rx="1.52054795" ry="1.66666667"></ellipse>
            </g>
        </g>
    </g>
</svg>