<?xml version="1.0" encoding="UTF-8"?>
<svg width="100px" height="100px" viewBox="0 0 100 100" version="1.1" xmlns="http://www.w3.org/2000/svg" xmlns:xlink="http://www.w3.org/1999/xlink">
    <!-- Generator: Sketch 48.2 (47327) - http://www.bohemiancoding.com/sketch -->
    <title>get together@2x</title>
    <desc>Created with Sketch.</desc>
    <defs></defs>
    <g id="Day_icons" stroke="none" stroke-width="1" fill="none" fill-rule="evenodd">
        <g id="get-together">
            <g id="Group-Copy" transform="translate(61.000000, 45.000000)">
                <path d="M12.1426012,33.625911 L12.1427718,33.6261602 C12.1649466,33.648087 12.5026863,33.9916902 12.832409,34.7404413 C13.1619611,35.490189 13.4875899,36.6420945 13.4882722,38.3209912 C13.4882722,39.4743917 13.333219,40.8784557 12.9105326,42.5685649 C12.2224306,45.3196332 12,47.4435447 12,49.0424583 C12,50.2748452 12.1325373,51.1945258 12.2833261,51.8423636 C12.3587205,52.1660334 12.4385499,52.4219293 12.5078036,52.6142873 C12.5767162,52.8058978 12.6367588,52.9377079 12.6652449,53 L13.0910016,52.5853838 C13.0642213,52.5268292 13.0190187,52.4279094 12.9608524,52.2664482 C12.7882299,51.785304 12.5124091,50.7744278 12.5117268,49.0424583 C12.5117268,47.5452054 12.7199997,45.508752 13.3912147,42.8249592 C13.8312998,41.065332 13.9999991,39.5728132 13.9999991,38.3209912 C14.0006814,36.4397698 13.6167157,35.1074663 13.2260975,34.2543137 C12.8356499,33.3999153 12.4431554,33.0201826 12.4223452,33 L12.1426012,33.625911" id="Fill-134" fill="#1569C1" transform="translate(13.000000, 43.000000) scale(-1, 1) translate(-13.000000, -43.000000) "></path>
                <path d="M12.1890276,34.0022982 C12.1890276,34.0022982 13.4650516,29.4971273 14.8690909,34.0022982 C15.4430952,36.1389196 13.9435261,33.8082427 13.9435261,33.8082427 C13.9435261,33.8082427 13.4650516,36.4103961 13.082382,33.9245419 C12.9549173,32.6432394 11.4875585,36.7217563 12.1890276,34.0022982" id="Fill-135" fill="#1569C1"></path>
                <path d="M28,15.9998547 C28,24.8362676 21.7320453,32 14,32 C6.26820897,32 0,24.8362676 0,15.9998547 C0,7.1634419 6.26820897,0 14,0 C21.7320453,0 28,7.1634419 28,15.9998547" id="Fill-136" fill="#59E0B3"></path>
            </g>
            <g id="Group-3" transform="translate(20.000000, 2.000000)">
                <g id="Group">
                    <path d="M24.1889474,56.7663158 L24.1894737,56.7668421 C24.2578947,56.8131579 25.3,57.5389474 26.3173684,59.1205263 C27.3342105,60.7042105 28.3389474,63.1373684 28.3410526,66.6836842 C28.3410526,69.12 27.8626316,72.0857895 26.5584211,75.6557895 C24.4352632,81.4668421 23.7489474,85.9531579 23.7489474,89.3305263 C23.7489474,91.9336842 24.1578947,93.8763158 24.6231579,95.2447368 C24.8557895,95.9284211 25.1021053,96.4689474 25.3157895,96.8752632 C25.5284211,97.28 25.7136842,97.5584211 25.8015789,97.69 L27.1152632,96.8142105 C27.0326316,96.6905263 26.8931579,96.4815789 26.7136842,96.1405263 C26.1810526,95.1242105 25.33,92.9889474 25.3278947,89.3305263 C25.3278947,86.1678947 25.9705263,81.8663158 28.0415789,76.1973684 C29.3994737,72.4805263 29.92,69.3278947 29.92,66.6836842 C29.9221053,62.71 28.7373684,59.8957895 27.5321053,58.0936842 C26.3273684,56.2889474 25.1163158,55.4868421 25.0521053,55.4442105 L24.1889474,56.7663158" id="Fill-134" fill="#E7807A"></path>
                    <path d="M22.3984211,59.1115789 C22.3984211,59.1115789 24.8378947,52.0368421 27.5221053,59.1115789 C28.6194737,62.4668421 25.7526316,58.8068421 25.7526316,58.8068421 C25.7526316,58.8068421 24.8378947,62.8931579 24.1063158,58.9894737 C23.8626316,56.9773684 21.0573684,63.3821053 22.3984211,59.1115789" id="Fill-135" fill="#E7807A"></path>
                    <path d="M48,27.9997458 C48,43.4634682 37.2549347,56 24,56 C10.7455011,56 0,43.4634682 0,27.9997458 C0,12.5360233 10.7455011,0 24,0 C37.2549347,0 48,12.5360233 48,27.9997458" id="Fill-136" fill="#5994E0"></path>
                </g>
                <circle id="Oval-8" fill="#F6BC25" cx="22" cy="10" r="2"></circle>
                <circle id="Oval-8-Copy" fill="#F6BC25" cx="14" cy="24" r="2"></circle>
                <circle id="Oval-8-Copy-2" fill="#F6BC25" cx="42" cy="28" r="2"></circle>
                <circle id="Oval-8-Copy-3" fill="#F6BC25" cx="33" cy="20" r="2"></circle>
                <circle id="Oval-8-Copy-4" fill="#F6BC25" cx="31" cy="37" r="2"></circle>
                <circle id="Oval-8-Copy-5" fill="#F6BC25" cx="16" cy="45" r="2"></circle>
            </g>
            <circle id="Oval-8-Copy-11" fill="#1569C1" transform="translate(75.000000, 52.000000) scale(-1, 1) translate(-75.000000, -52.000000) " cx="75" cy="52" r="1"></circle>
            <circle id="Oval-8-Copy-10" fill="#1569C1" transform="translate(82.000000, 59.000000) scale(-1, 1) translate(-82.000000, -59.000000) " cx="82" cy="59" r="1"></circle>
            <circle id="Oval-8-Copy-9" fill="#1569C1" transform="translate(67.000000, 62.000000) scale(-1, 1) translate(-67.000000, -62.000000) " cx="67" cy="62" r="1"></circle>
            <circle id="Oval-8-Copy-8" fill="#1569C1" transform="translate(74.000000, 61.000000) scale(-1, 1) translate(-74.000000, -61.000000) " cx="74" cy="61" r="1"></circle>
            <circle id="Oval-8-Copy-7" fill="#1569C1" transform="translate(72.000000, 69.000000) scale(-1, 1) translate(-72.000000, -69.000000) " cx="72" cy="69" r="1"></circle>
            <circle id="Oval-8-Copy-6" fill="#1569C1" transform="translate(80.000000, 69.000000) scale(-1, 1) translate(-80.000000, -69.000000) " cx="80" cy="69" r="1"></circle>
            <g id="Group-2" transform="translate(8.000000, 61.000000)">
                <g id="Group-Copy-2">
                    <path d="M5.14260121,20.5007288 L5.14277179,20.5009282 C5.16494662,20.5184696 5.50268634,20.7933522 5.832409,21.392353 C6.16196109,21.9921512 6.48758994,22.9136756 6.48827225,24.256793 C6.48827225,25.1795134 6.33321901,26.3027645 5.91053264,27.6548519 C5.2224306,29.8557066 5,31.5548357 5,32.8339666 C5,33.8198762 5.13253725,34.5556206 5.2833261,35.0738909 C5.35872052,35.3328267 5.43854991,35.5375434 5.50780361,35.6914299 C5.57671616,35.8447183 5.63675877,35.9501663 5.6652449,36 L6.09100164,35.668307 C6.06422127,35.6214634 6.01901873,35.5423275 5.96085244,35.4131586 C5.78822992,35.0282432 5.51240915,34.2195423 5.51172685,32.8339666 C5.51172685,31.6361643 5.71999967,30.0070016 6.39121472,27.8599674 C6.83129981,26.4522656 6.99999909,25.2582506 6.99999909,24.256793 C7.00068139,22.7518158 6.61671568,21.6859731 6.22609752,21.003451 C5.83564994,20.3199322 5.44315545,20.0161461 5.42234522,20 L5.14260121,20.5007288" id="Fill-134" fill="#E7B47A" transform="translate(6.000000, 28.000000) scale(-1, 1) translate(-6.000000, -28.000000) "></path>
                    <path d="M8,20 C3.5818337,20 0,15.5226672 0,9.9999092 C0,4.47715118 3.5818337,0 8,0 C12.4183116,0 16,4.47715118 16,9.9999092 C16,15.5226672 12.4183116,20 8,20 Z" id="Fill-136" fill="#DCE059"></path>
                    <path d="M6.18902755,21.0022982 C6.18902755,21.0022982 7.46505155,16.4971273 8.8690909,21.0022982 C9.44309523,23.1389196 7.94352614,20.8082427 7.94352614,20.8082427 C7.94352614,20.8082427 7.46505155,23.4103961 7.082382,20.9245419 C6.95491725,19.6432394 5.48755848,23.7217563 6.18902755,21.0022982" id="Fill-135" fill="#E7B47A"></path>
                </g>
                <circle id="Oval-8-Copy-17" fill="#1569C1" cx="9.5" cy="4.5" r="1"></circle>
                <circle id="Oval-8-Copy-16" fill="#1569C1" cx="11.5" cy="8.5" r="1"></circle>
                <circle id="Oval-8-Copy-15" fill="#1569C1" cx="3.5" cy="10.5" r="1"></circle>
                <circle id="Oval-8-Copy-14" fill="#1569C1" cx="6.5" cy="7.5" r="1"></circle>
                <circle id="Oval-8-Copy-13" fill="#1569C1" cx="6.5" cy="13.5" r="1"></circle>
                <circle id="Oval-8-Copy-12" fill="#1569C1" cx="11.5" cy="15.5" r="1"></circle>
            </g>
        </g>
    </g>
</svg>