<?xml version="1.0" encoding="UTF-8"?>
<svg width="100px" height="100px" viewBox="0 0 100 100" version="1.1" xmlns="http://www.w3.org/2000/svg" xmlns:xlink="http://www.w3.org/1999/xlink">
    <!-- Generator: Sketch 48.2 (47327) - http://www.bohemiancoding.com/sketch -->
    <title>Newyear@2x</title>
    <desc>Created with Sketch.</desc>
    <defs></defs>
    <g id="Day_icons" stroke="none" stroke-width="1" fill="none" fill-rule="evenodd">
        <g id="Newyear">
            <g id="Group-4" transform="translate(-15.000000, 7.000000)">
                <path d="M43.1493182,30.0100383 C43.6826466,30.1017321 44.1718518,30.8133367 44.6169339,32.1448522 L68.8202651,95.3091008 C69.0423401,95.8923148 69.0586232,96.3334972 68.8691146,96.632648 C68.6796059,96.9317989 68.3100738,97.048241 67.7605185,96.9819743 L18.0904453,96.9819743 C17.5874439,96.8593805 17.2605703,96.6745238 17.1098245,96.4274041 C16.9590787,96.1802844 16.9635189,95.8365716 17.1231451,95.3962658 L41.5611868,31.6194855 C42.0866127,30.4548269 42.6159898,29.9183445 43.1493182,30.0100383 Z" id="Triangle-Copy" fill="#FF3C5D" transform="translate(43.000000, 63.500000) rotate(-134.000000) translate(-43.000000, -63.500000) "></path>
                <rect id="Rectangle" fill="#48D3F6" transform="translate(66.000000, 41.500000) rotate(-134.000000) translate(-66.000000, -41.500000) " x="39" y="38" width="54" height="7" rx="3.5"></rect>
                <rect id="Rectangle-Copy" fill="#FFD16C" transform="translate(62.000000, 45.500000) rotate(-134.000000) translate(-62.000000, -45.500000) " x="35" y="42" width="54" height="7" rx="3.5"></rect>
                <circle id="Oval-5" fill="#FF3C5D" cx="67" cy="3" r="2"></circle>
                <circle id="Oval-5-Copy" fill="#FF3C5D" cx="76" cy="25" r="2"></circle>
                <circle id="Oval-5-Copy-2" fill="#FF3C5D" cx="57.5" cy="15.5" r="2.5"></circle>
                <rect id="Rectangle-3" fill="#00D1B2" x="86" y="53" width="7" height="4" rx="2"></rect>
                <rect id="Rectangle-3-Copy" fill="#21BCEA" x="75" y="15" width="7" height="4" rx="2"></rect>
                <circle id="Oval-4" fill="#48D3F6" cx="59.5" cy="59.5" r="3.5"></circle>
                <circle id="Oval-4-Copy-2" fill="#FFC931" cx="29.5" cy="72.5" r="3.5"></circle>
                <circle id="Oval-3-Copy" fill="#48D3F6" cx="46" cy="68" r="6"></circle>
                <circle id="Oval-3-Copy-2" fill="#FFC931" cx="46" cy="53" r="6"></circle>
                <path d="M75.4754513,37.995997 C74.7233879,38.0503031 74.0647975,37.5457069 74.0044485,36.8689498 C73.9440994,36.1921928 74.5048447,35.599549 75.2569081,35.5452429 C81.4576692,35.097489 84.6009436,31.374969 84.8419032,23.895899 C85.1306681,14.9330122 91.248875,11.9894249 102.078576,15.3474893 C102.791896,15.5686748 103.170897,16.2683379 102.925099,16.9102306 C102.679301,17.5521233 101.901782,17.8931739 101.188463,17.6719884 C91.9691649,14.8132764 87.8033173,16.817546 87.5729725,23.9671492 C87.2948223,32.6005693 83.2105912,37.4374464 75.4754513,37.995997 Z" id="Path-11" fill="#F8BB35" fill-rule="nonzero"></path>
                <path d="M80.9766259,48.1799576 C80.483755,48.6095799 79.7319215,48.5628493 79.2973586,48.0755819 C78.8627958,47.5883145 78.9100637,46.8450286 79.4029346,46.4154063 C82.5749245,43.6504676 87.5102211,43.6504676 94.1063893,46.2023228 C97.1940639,47.3968494 99.3806919,45.9391386 102.943154,41.2761654 C103.076721,41.1013376 103.929531,39.9755926 104.176691,39.6541369 C104.653977,39.0333815 105.043584,38.5464893 105.422496,38.1041424 C108.176424,34.8891674 110.708208,33.9834216 113.561298,36.279484 C114.070895,36.6895894 114.147726,37.4304593 113.732905,37.9342632 C113.318083,38.4380671 112.568693,38.5140246 112.059096,38.1039192 C110.472663,36.8272161 109.264093,37.259582 107.238369,39.6244416 C106.890836,40.0301557 106.525191,40.4871029 106.071059,41.077745 C105.830171,41.3910436 104.980399,42.5127776 104.841935,42.6940163 C100.682518,48.138354 97.7074793,50.121657 93.2392629,48.3930411 C87.3841927,46.127894 83.330792,46.127894 80.9766259,48.1799576 Z" id="Path-12" fill="#F8BB35" fill-rule="nonzero"></path>
                <path d="M63.6609725,31.901176 C63.06031,32.1621239 62.3610722,31.8884844 62.0991812,31.2899852 C61.8372901,30.691486 62.1119186,29.9947665 62.7125811,29.7338186 C66.2857059,28.1815337 66.8993739,24.0018886 64.2058489,16.6995613 C62.0043944,10.7312701 64.200491,7.30406558 69.6643429,4.64047661 C70.2597727,4.35020883 72.3591607,3.40471783 72.7741639,3.20142379 C74.3609904,2.4240987 74.7061312,2.03606925 74.5400176,1.6150967 C74.3002484,1.00746261 74.6002423,0.321206528 75.2100726,0.0823008368 C75.819903,-0.156604854 76.5086395,0.142308574 76.7484087,0.749942665 C77.5475575,2.77518211 76.4084737,4.05581354 73.8211007,5.3232677 C73.3607264,5.54878729 71.2585742,6.49552319 70.7071973,6.76431549 C66.2109197,8.95621888 64.7301701,11.2670606 66.4331356,15.8839147 C69.504135,24.2096004 68.6959927,29.7137949 63.6609725,31.901176 Z" id="Path-13" fill="#F8BB35" fill-rule="nonzero"></path>
                <circle id="Oval-3" fill="#00D1B2" cx="96.5" cy="29.5" r="2.5"></circle>
            </g>
        </g>
    </g>
</svg>