<?xml version="1.0" encoding="UTF-8"?>
<svg width="100px" height="100px" viewBox="0 0 100 100" version="1.1" xmlns="http://www.w3.org/2000/svg" xmlns:xlink="http://www.w3.org/1999/xlink">
    <!-- Generator: Sketch 48.2 (47327) - http://www.bohemiancoding.com/sketch -->
    <title>Thanksgiving@2x</title>
    <desc>Created with Sketch.</desc>
    <defs></defs>
    <g id="Day_icons" stroke="none" stroke-width="1" fill="none" fill-rule="evenodd">
        <g id="Thanksgiving">
            <g id="Group-2" transform="translate(22.000000, 0.000000)">
                <path d="M11.8277953,37.5004303 C11.7860247,37.0156481 11.7647059,36.5250196 11.7647059,36.0294118 C11.7647059,26.689302 19.3363608,19.1176471 28.6764706,19.1176471 C38.0165803,19.1176471 45.5882353,26.689302 45.5882353,36.0294118 C45.5882353,36.7151935 45.5474166,37.3914415 45.4680764,38.0558588 C45.6813966,40.4033261 46.0127619,42.4682195 46.4621721,44.250539 C47.1612552,47.0230373 48.6049011,50.9318212 50.7931099,55.9768908 C53.9992876,60.5244196 55.8823529,66.0717148 55.8823529,72.0588235 C55.8823529,87.4903092 43.3726621,100 27.9411765,100 C12.5096908,100 0,87.4903092 0,72.0588235 C0,65.5231548 2.2439396,59.5115862 6.00341836,54.7525182 C8.30101302,49.9323604 9.78758899,46.4317006 10.4631463,44.250539 C10.9870838,42.5589096 11.4419669,40.3088734 11.8277953,37.5004303 Z" id="Combined-Shape" fill="#CDE763"></path>
                <path d="M29.4105652,27.0981145 C29.3774534,27.9096228 28.6927537,28.5406378 27.8812455,28.507526 C27.0697373,28.4744143 26.4387222,27.7897145 26.471834,26.9782063 C27.1731388,9.79050428 30.0529315,0.77437198 35.9180886,0.0124185041 C36.723504,-0.0922145047 37.4612439,0.475881835 37.565877,1.28129719 C37.67051,2.08671255 37.1024136,2.82445252 36.2969983,2.92908553 C32.6140441,3.40754496 30.0496076,11.4363516 29.4105652,27.0981145 Z" id="Path-6" fill="#7C4343" fill-rule="nonzero"></path>
                <path d="M25.8302583,16.3723788 C20.8574045,17.3280792 16.2952837,14.7063884 12.1438957,8.50730634 C9.68053981,4.82888705 9.11176695,3.52427838 14.0048556,5.01823814 C15.9225035,5.60373513 21.5065545,5.67661582 23.8883871,7.62345848 C25.0769351,8.594944 25.7242255,11.5112508 25.8302583,16.3723788 Z" id="Path-8" fill="#30AD68"></path>
            </g>
        </g>
    </g>
</svg>