<?xml version="1.0" encoding="UTF-8"?>
<svg width="100px" height="100px" viewBox="0 0 100 100" version="1.1" xmlns="http://www.w3.org/2000/svg" xmlns:xlink="http://www.w3.org/1999/xlink">
    <!-- Generator: Sketch 48.2 (47327) - http://www.bohemiancoding.com/sketch -->
    <title>tourism</title>
    <desc>Created with Sketch.</desc>
    <defs></defs>
    <g id="Page-1" stroke="none" stroke-width="1" fill="none" fill-rule="evenodd">
        <g id="tourism" fill-rule="nonzero">
            <g id="plane-(1)" transform="translate(7.000000, 7.000000)">
                <g id="Group" transform="translate(0.000000, 5.000000)" fill="#27A2DB">
                    <path d="M29.5044155,78.2531185 C29.6164087,79.4954715 29.1546027,80.7236446 28.2734384,81.6169818 C27.4059178,82.4683462 26.3288128,82.8593349 25.2655411,82.8593349 C23.362984,82.8593349 21.5163288,81.60318 21.0545228,79.4954715 L18.3124909,66.7100683 L28.0634749,60.3591503 L29.5044155,78.2531185 Z" id="Shape"></path>
                    <path d="M22.5653881,54.8737768 L16.2001598,64.6023599 L3.38556621,61.8527722 C1.25902283,61.4060091 0,59.5635604 0,57.6653371 C0,56.6044875 0.405714612,55.5296469 1.25902283,54.6642916 C2.15439954,53.7849453 3.38556621,53.3243804 4.63056621,53.4359294 L22.5653881,54.8737768 Z" id="Shape"></path>
                    <path d="M82.0779041,68.0080068 L78.1607968,71.9023895 C76.8038037,73.2702825 74.5095548,72.8792938 73.6700799,71.1485831 L57.2741689,37.3984009 L73.2783881,21.4166469 L82.8334315,65.4399226 C83.0432055,66.3610524 82.7492945,67.3381458 82.0779041,68.0080068 Z" id="Shape"></path>
                    <path d="M61.5968014,9.76185877 L45.5785594,25.7296219 L11.7513219,9.37105923 C10.0166598,8.53368565 9.62496804,6.2444738 10.995984,4.89057175 L14.8990685,0.982387244 C15.5706484,0.31233713 16.5499726,0.019284738 17.4732055,0.228580866 L61.5968014,9.76185877 Z" id="Shape"></path>
                </g>
                <path d="M87,0.938879168 L12.4114126,75 C12.0317741,74.6090499 11.8630035,74.008723 12.1302553,73.3942107 C14.0989277,68.7444199 16.5741023,64.304195 19.4851087,60.1291428 L49.2837799,19.733423 C50.8869097,17.4435183 52.701098,15.3070052 54.6556745,13.3522546 C62.6715141,5.40709665 73.3450139,0.561925332 84.5530174,0.00339814682 C85.481065,-0.03859069 86.3529192,0.310559728 86.985904,0.938879168 C87,0.938879168 87,0.938879168 87,0.938879168 Z" id="Shape" fill="#EBF0F3"></path>
                <path d="M87.9966293,3.44697666 C87.2985191,17.3971819 79.9537039,30.5317282 68.2526508,38.702032 L27.8568289,68.5290127 C23.695782,71.4259161 19.2555666,73.8867982 14.6057858,75.8697522 C13.991464,76.1370034 13.3909493,75.9682332 13,75.5884051 L87.0609612,1 C87.6894684,1.64688874 88.0384289,2.51874085 87.9966293,3.44697666 Z" id="Shape" fill="#E1E6E9"></path>
                <g id="Group" transform="translate(9.000000, 9.000000)" fill="#64798A">
                    <path d="M11.4188553,62.349314 C8.47478421,65.2595778 5.15198421,67.7956464 1.4768,69.9048813 C0.804168421,70.2908971 -0.228507895,69.2700792 0.162178947,68.6053562 C4.43114737,61.3410554 10.3988842,55.441847 17.7475711,51.2218997 C18.4200158,50.8356992 19.4526921,51.8565172 19.0621921,52.5214248 C16.9284553,56.1544063 14.3629263,59.4390501 11.4188553,62.349314 Z" id="Shape"></path>
                    <path d="M68.4847316,12.0030607 C68.2351105,11.7563061 68.0807789,11.4155409 68.0807789,11.0389446 C68.0807789,8.82720317 67.2097211,6.74862797 65.6281026,5.1851715 C64.0464842,3.62171504 61.9433895,2.76010554 59.7063289,2.76065963 C58.9443868,2.76065963 58.3270605,2.15060686 58.3270605,1.39722955 C58.3265,0.644406332 58.9442,0.0337994723 59.7063289,0.0337994723 C62.6801079,0.0337994723 65.4756395,1.17781003 67.5787342,3.25675462 C69.6814553,5.33532982 70.8391289,8.09912929 70.8391289,11.0387599 C70.8391289,11.7919525 70.2219895,12.40219 69.4598605,12.40219 C69.0792632,12.40219 68.7343526,12.2496306 68.4847316,12.0030607 Z" id="Shape"></path>
                </g>
            </g>
        </g>
    </g>
</svg>