<?xml version="1.0" encoding="UTF-8"?>
<svg width="25px" height="25px" viewBox="0 0 25 25" version="1.1" xmlns="http://www.w3.org/2000/svg" xmlns:xlink="http://www.w3.org/1999/xlink">
    <!-- Generator: Sketch 48.2 (47327) - http://www.bohemiancoding.com/sketch -->
    <title>Sunny@2x</title>
    <desc>Created with Sketch.</desc>
    <defs></defs>
    <g id="Weather" stroke="none" stroke-width="1" fill="none" fill-rule="evenodd">
        <g id="Sunny" fill="#F3C652">
            <g id="Group-3">
                <path d="M12.4473684,5.51085526 C12.1134868,5.51085526 11.8421053,5.24013158 11.8421053,4.90625 L11.8421053,0.604605263 C11.8421053,0.270723684 12.1134868,0 12.4473684,0 C12.78125,0 13.0509868,0.270723684 13.0509868,0.604605263 L13.0509868,4.90625 C13.0509868,5.24013158 12.78125,5.51085526 12.4473684,5.51085526" id="Fill-5"></path>
                <path d="M12.4473684,24.91875 C12.1134868,24.91875 11.8421053,24.6480263 11.8421053,24.3141447 L11.8421053,20.0125 C11.8421053,19.6786184 12.1134868,19.4078947 12.4473684,19.4078947 C12.78125,19.4078947 13.0509868,19.6786184 13.0509868,20.0125 L13.0509868,24.3141447 C13.0509868,24.6480263 12.78125,24.91875 12.4473684,24.91875" id="Fill-6"></path>
                <path d="M17.2828947,7.5276727 C17.0460526,7.29165296 17.0460526,6.90875822 17.2828947,6.67273849 L20.3240132,3.63096217 C20.5608553,3.39494243 20.9440789,3.39494243 21.1792763,3.63096217 C21.4161184,3.86714638 21.4161184,4.24987664 21.1792763,4.48606086 L18.1381579,7.5276727 C17.9013158,7.76402138 17.5197368,7.76402138 17.2828947,7.5276727" id="Fill-7"></path>
                <path d="M3.63108553,21.3436266 C3.39490132,21.1074424 3.39490132,20.7245477 3.63108553,20.488528 L6.67269737,17.4467516 C6.90871711,17.2107319 7.29161184,17.2107319 7.52779605,17.4467516 C7.76381579,17.6829359 7.76381579,18.0656661 7.52779605,18.3018503 L4.48601974,21.3436266 C4.24983553,21.5798109 3.86710526,21.5798109 3.63108553,21.3436266" id="Fill-8"></path>
                <path d="M19.4078947,12.4467105 C19.4078947,12.1128289 19.6792763,11.8421053 20.0131579,11.8421053 L24.3141447,11.8421053 C24.6480263,11.8421053 24.9194079,12.1128289 24.9194079,12.4467105 C24.9194079,12.7807566 24.6480263,13.0514803 24.3141447,13.0514803 L20.0131579,13.0514803 C19.6792763,13.0514803 19.4078947,12.7807566 19.4078947,12.4467105" id="Fill-9"></path>
                <path d="M0,12.4467105 C0,12.1128289 0.270723684,11.8421053 0.604605263,11.8421053 L4.90641447,11.8421053 C5.24029605,11.8421053 5.51085526,12.1128289 5.51085526,12.4467105 C5.51085526,12.7807566 5.24029605,13.0514803 4.90641447,13.0514803 L0.604605263,13.0514803 C0.270723684,13.0514803 0,12.7807566 0,12.4467105" id="Fill-10"></path>
                <path d="M17.2828947,17.4467516 C17.5197368,17.2107319 17.9013158,17.2107319 18.1381579,17.4467516 L21.1792763,20.488528 C21.4161184,20.7245477 21.4161184,21.1074424 21.1792763,21.3436266 C20.9440789,21.5798109 20.5608553,21.5798109 20.3240132,21.3436266 L17.2828947,18.3018503 C17.0460526,18.0656661 17.0460526,17.6829359 17.2828947,17.4467516" id="Fill-11"></path>
                <path d="M3.63108553,3.63096217 C3.86710526,3.39494243 4.24983553,3.39494243 4.48601974,3.63096217 L7.52779605,6.67273849 C7.76381579,6.90875822 7.76381579,7.29165296 7.52779605,7.5276727 C7.29161184,7.76402138 6.90871711,7.76402138 6.67269737,7.5276727 L3.63108553,4.48606086 C3.39490132,4.24987664 3.39490132,3.86714638 3.63108553,3.63096217" id="Fill-12"></path>
                <path d="M17.4884868,12.4450658 C17.4884868,15.2307566 15.2302632,17.4889803 12.4457237,17.4889803 C9.65953947,17.4889803 7.40131579,15.2307566 7.40131579,12.4450658 C7.40131579,9.65953947 9.65953947,7.40131579 12.4457237,7.40131579 C15.2302632,7.40131579 17.4884868,9.65953947 17.4884868,12.4450658" id="Fill-4"></path>
            </g>
        </g>
    </g>
</svg>