<?xml version="1.0" encoding="UTF-8"?>
<svg width="24px" height="24px" viewBox="0 0 24 24" version="1.1" xmlns="http://www.w3.org/2000/svg" xmlns:xlink="http://www.w3.org/1999/xlink">
    <!-- Generator: Sketch 49.3 (51167) - http://www.bohemiancoding.com/sketch -->
    <title>like</title>
    <desc>Created with Sketch.</desc>
    <defs></defs>
    <g id="like" stroke="none" stroke-width="1" fill="none" fill-rule="evenodd">
        <path d="M18.7333011,9.57642501 C18.7800016,9.57311423 18.8271896,9.57142857 18.8748,9.57142857 C19.8907199,9.57142857 20.7142857,10.3389404 20.7142857,11.2857143 C20.7142857,11.8419138 20.4300576,12.3362466 19.9895773,12.6494473 C20.4251303,12.9026765 20.7142857,13.3489169 20.7142857,13.8571429 C20.7142857,14.478944 20.2814525,15.0079596 19.6772331,15.2042291 C20.1290963,15.4542396 20.4312879,15.9090154 20.4312879,16.4285714 C20.4312879,17.0677954 19.9738589,17.6089613 19.3430468,17.7913671 C19.6596611,17.9992794 19.8652923,18.335232 19.8652923,18.7142857 C19.8652923,19.3025465 19.3700391,19.7870002 18.7333011,19.8501678 L18.7333011,19.8571429 L13.3955604,19.8571429 C11.1857659,19.8571429 9.39437353,18.0655082 9.39437353,15.8509648 L9.39437353,12.5741332 C9.39437353,11.0353422 10.5464393,9.76690064 12.0453866,9.59200454 C12.911932,8.5938046 15.149635,6.41993489 15.2696977,5.57142857 C15.4111966,4.57142857 15.7930562,3 16.421867,3 L16.6109575,3 C17.442772,3 18.1872564,3.67993999 18.2357558,4.51545508 C18.2357558,4.51545508 18.6830866,7.83848027 16.9850997,9.57142857 L18.7333011,9.57142857 L18.7333011,9.57642501 Z M4,12.6974749 C4,11.6021898 4.87928939,10.7142857 5.98098463,10.7142857 C7.07505223,10.7142857 7.96196926,11.5912399 7.96196926,12.6974749 L7.96196926,19.0168108 C7.96196926,20.112096 7.08267987,21 5.98098463,21 C4.88691703,21 4,20.1230458 4,19.0168108 L4,12.6974749 Z" id="Like" fill="#e3165b"></path>
    </g>
</svg>