<?xml version="1.0" encoding="UTF-8"?>
<svg width="100px" height="100px" viewBox="0 0 100 100" version="1.1" xmlns="http://www.w3.org/2000/svg" xmlns:xlink="http://www.w3.org/1999/xlink">
    <!-- Generator: Sketch 48.2 (47327) - http://www.bohemiancoding.com/sketch -->
    <title>happines</title>
    <desc>Created with Sketch.</desc>
    <defs>
        <linearGradient x1="52.2162741%" y1="0%" x2="60.7547247%" y2="100%" id="linearGradient-1">
            <stop stop-color="#FFB751" offset="0%"></stop>
            <stop stop-color="#FFB751" offset="51.0263871%"></stop>
            <stop stop-color="#FFB751" offset="100%"></stop>
        </linearGradient>
        <linearGradient x1="50%" y1="0%" x2="50%" y2="100%" id="linearGradient-2">
            <stop stop-color="#FFD764" offset="0%"></stop>
            <stop stop-color="#FFE280" offset="50.9098478%"></stop>
            <stop stop-color="#FFD764" offset="100%"></stop>
        </linearGradient>
    </defs>
    <g id="Page-1" stroke="none" stroke-width="1" fill="none" fill-rule="evenodd">
        <g id="happines">
            <g id="Group" transform="translate(2.000000, 2.000000)">
                <circle id="Oval" fill="url(#linearGradient-1)" cx="48.5" cy="48.5" r="48.5"></circle>
                <ellipse id="Oval-Copy" fill="url(#linearGradient-2)" cx="46" cy="48.5" rx="46" ry="48.5"></ellipse>
                <path d="M32,56.8395423 C47.724896,64.112587 59.724896,58.8327396 68,41" id="Path-2" stroke="#FF804C" stroke-width="4" stroke-linecap="round" stroke-linejoin="round"></path>
                <circle id="Oval-2" fill="#FF5440" cx="17" cy="62" r="7"></circle>
                <circle id="Oval-2" fill="#FF804C" cx="16" cy="62" r="6"></circle>
                <circle id="Oval-3" fill="#FF5440" cx="78" cy="36" r="7"></circle>
                <circle id="Oval-3" fill="#FF804C" cx="77" cy="36" r="6"></circle>
                <path d="M21.4302556,46 C20.4715175,42.0021423 21.1150457,39.243037 23.3608401,37.722684 C23.3087116,37.7197826 29.9491541,34.4450274 32,41.861342" id="Path-4" stroke="#3D140F" stroke-width="3" stroke-linecap="round" stroke-linejoin="round"></path>
                <path d="M56.4302556,32 C55.4715175,28.0021423 56.1150457,25.243037 58.3608401,23.722684 C58.3087116,23.7197826 64.9491541,20.4450274 67,27.861342" id="Path-4-Copy" stroke="#3D140F" stroke-width="3" stroke-linecap="round" stroke-linejoin="round"></path>
                <path d="M56.0661886,64.1046635 C58.0637239,62.7713302 59.0637239,62.1038409 59.0661886,62.1021958" id="Path-5" stroke="#FCB450" stroke-width="3" stroke-linecap="round" stroke-linejoin="round" transform="translate(57.566189, 63.103430) rotate(4.000000) translate(-57.566189, -63.103430) "></path>
            </g>
        </g>
    </g>
</svg>