<svg width="auto" height="auto" viewBox="0 0 40 40" fill="none" xmlns="http://www.w3.org/2000/svg"><path d="M0.269631 16.0936C0.126239 14.9028 1.05591 13.8545 2.25529 13.8545H37.7447C38.9441 13.8545 39.8738 14.9028 39.7304 16.0936L37.7574 32.4777C37.5154 34.4873 35.8103 35.9994 33.7861 35.9994H6.21389C4.18972 35.9994 2.48458 34.4873 2.24258 32.4777L0.269631 16.0936Z" fill="#FDDD35"/><path d="M2.5 8V14.1587H37.5V11.9798C37.5 10.8753 36.6046 9.97984 35.5 9.97984H21.4809C21.0683 9.97984 20.6657 9.85221 20.3285 9.61445L15.7199 6.36538C15.3826 6.12763 14.9801 6 14.5675 6H4.5C3.39543 6 2.5 6.89543 2.5 8Z" fill="#FAC800"/></svg>
