<svg width="auto" height="auto" viewBox="0 0 40 40" fill="none" xmlns="http://www.w3.org/2000/svg"><g clip-path="url(#clip0)"><g filter="url(#filter0_i)"><path d="M9 40H31C33.2091 40 35 38.2091 35 36V10L25 0H9C6.79086 0 5 1.79086 5 4V36C5 38.2091 6.79086 40 9 40Z" fill="#8799FB"/></g><g filter="url(#filter1_d)"><path d="M27 10H35L25 0V8C25 9.10457 25.8954 10 27 10Z" fill="white" fill-opacity="0.5"/></g><path d="M11.25 29.25L16.624 24.2821C17.5393 23.4359 19.0232 23.4359 19.9385 24.2821L25.3125 29.25M22.9688 27.0833L24.8271 25.3654C25.7424 24.5193 27.2264 24.5193 28.1417 25.3654L30 27.0833M22.9688 20.5833H22.9805M13.5938 32.5H27.6562C28.9507 32.5 30 31.5299 30 30.3333V18.4167C30 17.22 28.9507 16.25 27.6562 16.25H13.5938C12.2993 16.25 11.25 17.22 11.25 18.4167V30.3333C11.25 31.5299 12.2993 32.5 13.5938 32.5Z" stroke="white" stroke-linecap="round" stroke-linejoin="round"/></g><defs><filter id="filter0_i" x="5" y="0" width="30" height="40" filterUnits="userSpaceOnUse" color-interpolation-filters="sRGB"><feFlood flood-opacity="0" result="BackgroundImageFix"/><feBlend mode="normal" in="SourceGraphic" in2="BackgroundImageFix" result="shape"/><feColorMatrix in="SourceAlpha" type="matrix" values="0 0 0 0 0 0 0 0 0 0 0 0 0 0 0 0 0 0 127 0" result="hardAlpha"/><feOffset/><feGaussianBlur stdDeviation="2"/><feComposite in2="hardAlpha" operator="arithmetic" k2="-1" k3="1"/><feColorMatrix type="matrix" values="0 0 0 0 0 0 0 0 0 0 0 0 0 0 0 0 0 0 0.1 0"/><feBlend mode="normal" in2="shape" result="effect1_innerShadow"/></filter><filter id="filter1_d" x="23" y="-1" width="14" height="14" filterUnits="userSpaceOnUse" color-interpolation-filters="sRGB"><feFlood flood-opacity="0" result="BackgroundImageFix"/><feColorMatrix in="SourceAlpha" type="matrix" values="0 0 0 0 0 0 0 0 0 0 0 0 0 0 0 0 0 0 127 0" result="hardAlpha"/><feOffset dy="1"/><feGaussianBlur stdDeviation="1"/><feColorMatrix type="matrix" values="0 0 0 0 0 0 0 0 0 0 0 0 0 0 0 0 0 0 0.05 0"/><feBlend mode="normal" in2="BackgroundImageFix" result="effect1_dropShadow"/><feBlend mode="normal" in="SourceGraphic" in2="effect1_dropShadow" result="shape"/></filter><clipPath id="clip0"><rect width="40" height="40" fill="white"/></clipPath></defs></svg>
