<svg width="auto" height="auto" viewBox="0 0 40 40" fill="none" xmlns="http://www.w3.org/2000/svg"><g clip-path="url(#clip0)"><g filter="url(#filter0_i)"><path d="M9 40H31C33.2091 40 35 38.2091 35 36V10L25 0H9C6.79086 0 5 1.79086 5 4V36C5 38.2091 6.79086 40 9 40Z" fill="#33C0FF"/></g><g filter="url(#filter1_d)"><path d="M27 10H35L25 0V8C25 9.10457 25.8954 10 27 10Z" fill="white" fill-opacity="0.5"/></g><path d="M15.4167 31.5278V17.0833L28.75 13.75V28.1944M15.4167 31.5278C15.4167 32.7551 13.9243 33.75 12.0833 33.75C10.2424 33.75 8.75 32.7551 8.75 31.5278C8.75 30.3005 10.2424 29.3056 12.0833 29.3056C13.9243 29.3056 15.4167 30.3005 15.4167 31.5278ZM28.75 28.1944C28.75 29.4217 27.2576 30.4167 25.4167 30.4167C23.5757 30.4167 22.0833 29.4217 22.0833 28.1944C22.0833 26.9671 23.5757 25.9722 25.4167 25.9722C27.2576 25.9722 28.75 26.9671 28.75 28.1944ZM15.4167 21.5278L28.75 18.1944" stroke="white" stroke-linecap="round" stroke-linejoin="round"/></g><defs><filter id="filter0_i" x="5" y="0" width="30" height="40" filterUnits="userSpaceOnUse" color-interpolation-filters="sRGB"><feFlood flood-opacity="0" result="BackgroundImageFix"/><feBlend mode="normal" in="SourceGraphic" in2="BackgroundImageFix" result="shape"/><feColorMatrix in="SourceAlpha" type="matrix" values="0 0 0 0 0 0 0 0 0 0 0 0 0 0 0 0 0 0 127 0" result="hardAlpha"/><feOffset/><feGaussianBlur stdDeviation="2"/><feComposite in2="hardAlpha" operator="arithmetic" k2="-1" k3="1"/><feColorMatrix type="matrix" values="0 0 0 0 0 0 0 0 0 0 0 0 0 0 0 0 0 0 0.1 0"/><feBlend mode="normal" in2="shape" result="effect1_innerShadow"/></filter><filter id="filter1_d" x="23" y="-1" width="14" height="14" filterUnits="userSpaceOnUse" color-interpolation-filters="sRGB"><feFlood flood-opacity="0" result="BackgroundImageFix"/><feColorMatrix in="SourceAlpha" type="matrix" values="0 0 0 0 0 0 0 0 0 0 0 0 0 0 0 0 0 0 127 0" result="hardAlpha"/><feOffset dy="1"/><feGaussianBlur stdDeviation="1"/><feColorMatrix type="matrix" values="0 0 0 0 0 0 0 0 0 0 0 0 0 0 0 0 0 0 0.05 0"/><feBlend mode="normal" in2="BackgroundImageFix" result="effect1_dropShadow"/><feBlend mode="normal" in="SourceGraphic" in2="effect1_dropShadow" result="shape"/></filter><clipPath id="clip0"><rect width="40" height="40" fill="white"/></clipPath></defs></svg>
