<svg width="auto" height="auto" viewBox="0 0 40 40" fill="none" xmlns="http://www.w3.org/2000/svg"><g clip-path="url(#clip0)"><g filter="url(#filter0_i)"><path d="M9 40H31C33.2091 40 35 38.2091 35 36V10L25 0H9C6.79086 0 5 1.79086 5 4V36C5 38.2091 6.79086 40 9 40Z" fill="#FF8484"/></g><g filter="url(#filter1_d)"><path d="M27 10H35L25 0V8C25 9.10457 25.8954 10 27 10Z" fill="white" fill-opacity="0.5"/></g><path d="M8.75 28.75V23.75M8.75 23.75V18.75H11.75C12.8546 18.75 13.75 19.6454 13.75 20.75V21.75C13.75 22.8546 12.8546 23.75 11.75 23.75H8.75Z" stroke="white" stroke-linecap="round" stroke-linejoin="round"/><path d="M26.25 28.75V23.75V18.75H32.5" stroke="white" stroke-linecap="round" stroke-linejoin="round"/><path d="M26.25 23.75H31.25" stroke="white" stroke-linecap="round" stroke-linejoin="round"/><path d="M20.5 18.75H17.5V28.75H20.5C21.6046 28.75 22.5 27.8546 22.5 26.75V20.75C22.5 19.6454 21.6046 18.75 20.5 18.75Z" stroke="white" stroke-linecap="round" stroke-linejoin="round"/></g><defs><filter id="filter0_i" x="5" y="0" width="30" height="40" filterUnits="userSpaceOnUse" color-interpolation-filters="sRGB"><feFlood flood-opacity="0" result="BackgroundImageFix"/><feBlend mode="normal" in="SourceGraphic" in2="BackgroundImageFix" result="shape"/><feColorMatrix in="SourceAlpha" type="matrix" values="0 0 0 0 0 0 0 0 0 0 0 0 0 0 0 0 0 0 127 0" result="hardAlpha"/><feOffset/><feGaussianBlur stdDeviation="2"/><feComposite in2="hardAlpha" operator="arithmetic" k2="-1" k3="1"/><feColorMatrix type="matrix" values="0 0 0 0 0 0 0 0 0 0 0 0 0 0 0 0 0 0 0.1 0"/><feBlend mode="normal" in2="shape" result="effect1_innerShadow"/></filter><filter id="filter1_d" x="23" y="-1" width="14" height="14" filterUnits="userSpaceOnUse" color-interpolation-filters="sRGB"><feFlood flood-opacity="0" result="BackgroundImageFix"/><feColorMatrix in="SourceAlpha" type="matrix" values="0 0 0 0 0 0 0 0 0 0 0 0 0 0 0 0 0 0 127 0" result="hardAlpha"/><feOffset dy="1"/><feGaussianBlur stdDeviation="1"/><feColorMatrix type="matrix" values="0 0 0 0 0 0 0 0 0 0 0 0 0 0 0 0 0 0 0.05 0"/><feBlend mode="normal" in2="BackgroundImageFix" result="effect1_dropShadow"/><feBlend mode="normal" in="SourceGraphic" in2="effect1_dropShadow" result="shape"/></filter><clipPath id="clip0"><rect width="40" height="40" fill="white"/></clipPath></defs></svg>
