<svg width="auto" height="auto" viewBox="0 0 40 40" fill="none" xmlns="http://www.w3.org/2000/svg"><g clip-path="url(#clip0)"><g filter="url(#filter0_i)"><path d="M9 40H31C33.2091 40 35 38.2091 35 36V10L25 0H9C6.79086 0 5 1.79086 5 4V36C5 38.2091 6.79086 40 9 40Z" fill="#FF8484"/></g><g filter="url(#filter1_d)"><path d="M27 10H35L25 0V8C25 9.10457 25.8954 10 27 10Z" fill="white" fill-opacity="0.5"/></g><path d="M23.4916 23.5073L20.1611 21.287C19.4689 20.8255 18.5417 21.3218 18.5417 22.1537V26.5943C18.5417 27.4263 19.4689 27.9225 20.1611 27.461L23.4916 25.2407C24.1101 24.8284 24.1101 23.9196 23.4916 23.5073Z" stroke="white" stroke-linecap="round" stroke-linejoin="round"/><path d="M30 24.374C30 29.5517 25.8027 33.749 20.625 33.749C15.4473 33.749 11.25 29.5517 11.25 24.374C11.25 19.1964 15.4473 14.999 20.625 14.999C25.8027 14.999 30 19.1964 30 24.374Z" stroke="white" stroke-linecap="round" stroke-linejoin="round"/></g><defs><filter id="filter0_i" x="5" y="0" width="30" height="40" filterUnits="userSpaceOnUse" color-interpolation-filters="sRGB"><feFlood flood-opacity="0" result="BackgroundImageFix"/><feBlend mode="normal" in="SourceGraphic" in2="BackgroundImageFix" result="shape"/><feColorMatrix in="SourceAlpha" type="matrix" values="0 0 0 0 0 0 0 0 0 0 0 0 0 0 0 0 0 0 127 0" result="hardAlpha"/><feOffset/><feGaussianBlur stdDeviation="2"/><feComposite in2="hardAlpha" operator="arithmetic" k2="-1" k3="1"/><feColorMatrix type="matrix" values="0 0 0 0 0 0 0 0 0 0 0 0 0 0 0 0 0 0 0.1 0"/><feBlend mode="normal" in2="shape" result="effect1_innerShadow"/></filter><filter id="filter1_d" x="23" y="-1" width="14" height="14" filterUnits="userSpaceOnUse" color-interpolation-filters="sRGB"><feFlood flood-opacity="0" result="BackgroundImageFix"/><feColorMatrix in="SourceAlpha" type="matrix" values="0 0 0 0 0 0 0 0 0 0 0 0 0 0 0 0 0 0 127 0" result="hardAlpha"/><feOffset dy="1"/><feGaussianBlur stdDeviation="1"/><feColorMatrix type="matrix" values="0 0 0 0 0 0 0 0 0 0 0 0 0 0 0 0 0 0 0.05 0"/><feBlend mode="normal" in2="BackgroundImageFix" result="effect1_dropShadow"/><feBlend mode="normal" in="SourceGraphic" in2="effect1_dropShadow" result="shape"/></filter><clipPath id="clip0"><rect width="40" height="40" fill="white"/></clipPath></defs></svg>
