<?xml version="1.0" encoding="utf-8"?>
<svg xmlns="http://www.w3.org/2000/svg" height="256" width="256" viewBox="0 0 256 256">
  <g>
    <path id="path1" transform="rotate(0,128,128) translate(20.0093058161351,0) scale(8.00049641828367,8.00049641828367)  " fill="#FFFFFF" d="M21.998568,25.350608L21.981819,25.357749C19.921681,26.185996 16.977343,26.448991 14.064378,26.448991 13.164377,26.448991 12.268358,26.423997 11.401361,26.382981L11.267357,26.377C10.659946,26.383374,10.086407,26.337903,9.5451854,26.248765L9.5016635,26.240939 9.5025666,26.26385C9.5551818,27.239177 9.7852776,28.522632 10.476209,29.278155 10.908205,29.750131 11.5142,29.993119 12.253195,29.97412L20.359129,30.003118C20.35813,30.003118 20.370129,30.003118 20.38913,30.003118 20.47313,30.003118 20.724127,29.983119 20.990124,29.739131 21.321717,29.432864 21.999295,28.456012 22.000515,25.586251z M16.527396,2.0010269C15.03338,2.0010269 13.234369,2.0020339 13.234369,2.0020344 13.165368,2.0010269 10.544344,1.9230241 8.6503308,3.7490101 7.2833155,5.0680089 6.5903166,7.0790229 6.5923155,9.7269993L6.5929602,10.549926 6.600539,10.779735C6.7467983,14.107472 7.93239,17.566972 7.9459842,17.605035 8.1259864,18.127027 7.8499825,18.697019 7.3279746,18.877015 7.2199729,18.915015 7.1089709,18.933015 7.0009692,18.933015 6.585963,18.933015 6.1989572,18.673018 6.0559547,18.260024 5.9979542,18.091464 4.7507084,14.451368 4.6007216,10.821486L4.5947402,10.626401 4.4876721,10.626255C4.0062912,10.635758 3.4127844,10.73301 2.938278,11.078011 2.4032851,11.46601 2.0872727,12.146002 1.9982829,13.09702 1.9502782,13.72501 2.8792868,16.752013 3.3822818,18.126004 4.0732968,20.01501 6.2053035,24.37798 11.129356,24.37798 11.175346,24.37798 11.221352,24.37798 11.267357,24.377004L11.496348,24.384999C18.787409,24.731008 22.427439,23.555989 22.726452,22.316001 22.787442,22.042993 22.939451,21.489984 23.124451,20.851007 23.838461,18.389005 24.334467,15.843995 24.599469,13.285008L24.926468,10.114022C24.936463,10.035012 25.450474,6.266005 23.41646,3.9280262 22.305443,2.6490364 20.588434,2.0020339 18.314413,2.0020344 17.989414,2.0010269 17.302397,2.0010269 16.527396,2.0010269z M13.122533,2.3235339E-05C13.209152,-0.0002258003 13.262844,0.0015994852 13.278376,0.0020367939 13.282374,0.0020367443 17.291409,-0.00098449189 18.278418,0.0020367939L18.32041,0.0020367939C21.20044,0.0020367443 23.427447,0.88402408 24.935471,2.6270332 27.568487,5.668014 26.938479,10.172006 26.910479,10.362008L26.588484,13.491001C26.311474,16.168 25.792473,18.831998 25.045471,21.407006 24.875473,21.993981 24.734465,22.499991 24.675459,22.76699 24.553429,23.271615 24.304814,23.711545 23.951823,24.094113L23.951369,24.094584 23.966296,24.344699C24.151388,27.834226 23.573542,30.171233 22.245114,31.298051 21.56012,31.879022 20.854126,31.998015 20.391129,31.998015 20.24613,31.998015 20.125132,31.986016 20.036133,31.974017L12.259195,31.974017C10.935206,31.978017 9.807215,31.514041 8.9952214,30.622087 7.6369822,29.130412 7.4802335,26.800096 7.4926551,25.66573L7.4928525,25.654384 7.3225749,25.580518C3.6657617,23.933091 2.0085876,20.191894 1.5032679,18.812985 1.4872769,18.768003 -0.12073819,14.291995 0.0072536481,12.912023 0.15225909,11.354011 0.74827234,10.187997 1.7802784,9.4470005 2.7192819,8.7740278 3.8422923,8.6040144 4.6282943,8.6290083 4.8132933,5.9290304 5.7043074,3.8000357 7.2843225,2.2880139 9.5287192,0.14160727 12.417209,0.0020497981 13.122533,2.3235339E-05z" />
  </g>
</svg>

