<?xml version="1.0" encoding="UTF-8"?>
<svg width="256px" height="256px" viewBox="0 0 256 256" version="1.1" xmlns="http://www.w3.org/2000/svg" xmlns:xlink="http://www.w3.org/1999/xlink">
    <!-- Generator: Sketch 49.3 (51167) - http://www.bohemiancoding.com/sketch -->
    <title>Artboard Copy</title>
    <desc>Created with Sketch.</desc>
    <defs></defs>
    <g id="Artboard-Copy" stroke="none" stroke-width="1" fill="none" fill-rule="evenodd">
        <path d="M120.38597,59 C111.561968,59 104.385968,66.1759984 104.385966,74.999996 C104.385968,83.8239992 111.561968,90.9999992 120.38597,90.9999968 C129.20997,90.9999992 136.38597,83.8239992 136.38597,74.999996 C136.38597,66.1759984 129.20997,59 120.38597,59 Z M222.450778,45.9076576 C224.756394,45.976841 227.012026,47.0357361 228.528522,48.9932174 C231.248506,52.4811824 230.616522,57.5051304 227.128514,60.2171024 L171.264162,103.653105 L189.62641,159.711904 L130.650802,175.040032 L121.10729,142.651392 L99.7206428,159.28008 C97.392646,161.352056 94.4406476,162.384048 91.4886492,162.384048 C88.3526532,162.384048 85.2246572,161.224064 82.832658,158.89608 L82.2726604,158.288088 L64.8151788,137.317688 C62.6416252,137.867712 60.4788804,138.143888 58.2501228,138.143888 C43.9860564,138.143888 32.418002,126.831928 32.418002,112.871981 C32.418002,98.9120352 43.9860564,87.6000776 58.2501228,87.600076 C72.5141868,87.6000776 84.0742396,98.9120352 84.0742388,112.871981 C84.0742396,118.543211 82.1663796,123.777416 78.9444324,127.993704 L78.4178796,128.64944 L92.0246484,145.000232 L217.304522,47.5852318 C218.834018,46.3987426 220.657522,45.8538437 222.450778,45.9076576 Z M120.38597,43 C138.03397,43 152.38597,57.3519976 152.38597,74.999996 C152.38597,92.6479992 138.03397,106.999998 120.38597,106.999998 C102.737969,106.999998 88.3859692,92.6479992 88.3859692,74.999996 C88.3859692,57.3519976 102.737969,43 120.38597,43 Z" id="path1" fill="#FFFFFF" fill-rule="nonzero" transform="translate(131.318301, 109.020016) rotate(28.000000) translate(-131.318301, -109.020016) "></path>
        <path d="M11.0639996,186.296924 C22.3439963,186.296924 28.471995,191.448948 32.9439937,195.200972 C36.7439947,198.392989 39.0399941,200.328997 44.447992,200.328989 C49.8559915,200.328997 52.1519924,198.392989 55.9519927,195.200972 C60.4239929,191.448948 66.5519917,186.296924 77.8319908,186.296924 C89.1119891,186.296924 95.2319894,191.448948 99.7039897,195.200972 C103.50399,198.392989 105.79999,200.328997 111.207982,200.328989 C116.607983,200.328997 118.903983,198.392989 122.703991,195.200972 C127.175983,191.448948 133.295984,186.296924 144.583976,186.296924 C155.871977,186.296924 161.999977,191.448948 166.471978,195.200972 C170.279978,198.392989 172.575986,200.328997 177.991986,200.328989 C183.415979,200.328997 185.711971,198.392989 189.527979,195.200972 C193.999979,191.440956 200.135972,186.296924 211.42398,186.296924 C222.711973,186.296924 228.847973,191.440956 233.319974,195.200972 C237.135974,198.392989 239.431974,200.328997 244.855974,200.328989 C249.311967,200.328997 252.919967,203.929013 252.919967,208.385037 C252.919967,212.841053 249.311967,216.44907 244.855974,216.449078 C233.559966,216.44907 227.431973,211.297045 222.951981,207.545029 C219.143981,204.345013 216.847973,202.417005 211.42398,202.417005 C205.999964,202.417005 203.70398,204.345013 199.89598,207.545029 C195.415979,211.297045 189.287979,216.44907 177.991986,216.449078 C166.703978,216.44907 160.575985,211.297045 156.103985,207.545029 C152.295985,204.345013 149.999977,202.417005 144.583976,202.417005 C139.175984,202.417005 136.879984,204.345013 133.079984,207.545029 C128.607983,211.297045 122.487983,216.44907 111.207982,216.449078 C106.269486,216.449078 102.320174,215.462942 99.0652856,214.03935 L85.4761488,204.538573 C83.3694927,203.170133 81.206991,202.417005 77.8319908,202.417005 C72.4239897,202.417005 70.1279919,204.345013 66.3279925,207.545029 C61.8559922,211.297045 55.7279935,216.44907 44.447992,216.449078 C33.1679945,216.44907 27.0399958,211.297045 22.5680011,207.545029 C18.7679961,204.345013 16.4719967,202.417005 11.0639996,202.417005 C6.61599798,202.417005 2.99999808,198.816989 3,194.360964 C2.99999808,189.90494 6.61599798,186.296924 11.0639996,186.296924 Z" id="path1-copy" fill="#FFFFFF" fill-rule="nonzero"></path>
    </g>
</svg>