<?xml version="1.0" encoding="UTF-8"?>
<svg width="113px" height="55px" viewBox="0 0 113 55" version="1.1" xmlns="http://www.w3.org/2000/svg" xmlns:xlink="http://www.w3.org/1999/xlink">
    <!-- Generator: Sketch 52.5 (67469) - http://www.bohemiancoding.com/sketch -->
    <title>Tooltip Copy 2</title>
    <desc>Created with Sketch.</desc>
    <defs>
        <path d="M2.75892857,7.92122861 C1.24151786,7.92122861 0,9.24311687 0,10.8587581 L0,43.0624705 C0,44.684966 1.23508036,46 2.75892857,46 L43.8540893,46 L100.241071,46 C101.758482,46 103,44.6781117 103,43.0624705 L103,10.8587581 C103,9.23626264 101.76492,7.92122861 100.241071,7.92122861 L82.379558,7.92122861 L77.0535714,2.06057393e-13 L70.5441794,7.92122861 L2.75892857,7.92122861 Z" id="path-1"></path>
        <filter x="-6.8%" y="-13.8%" width="113.6%" height="131.2%" filterUnits="objectBoundingBox" id="filter-2">
            <feMorphology radius="0.5" operator="dilate" in="SourceAlpha" result="shadowSpreadOuter1"></feMorphology>
            <feOffset dx="0" dy="1" in="shadowSpreadOuter1" result="shadowOffsetOuter1"></feOffset>
            <feGaussianBlur stdDeviation="2" in="shadowOffsetOuter1" result="shadowBlurOuter1"></feGaussianBlur>
            <feComposite in="shadowBlurOuter1" in2="SourceAlpha" operator="out" result="shadowBlurOuter1"></feComposite>
            <feColorMatrix values="0 0 0 0 0   0 0 0 0 0   0 0 0 0 0  0 0 0 0.188547328 0" type="matrix" in="shadowBlurOuter1"></feColorMatrix>
        </filter>
    </defs>
    <g id="Heatmap" stroke="none" stroke-width="1" fill="none" fill-rule="evenodd">
        <g id="Layout_7-Copy" transform="translate(-400.000000, -363.000000)">
            <g id="Tooltip-Copy-2" transform="translate(405.000000, 366.000000)">
                <g id="Fill-2" opacity="0.949999988">
                    <use fill="black" fill-opacity="1" filter="url(#filter-2)" xlink:href="#path-1"></use>
                    <use stroke-opacity="0.438915308" stroke="#C2C2C2" stroke-width="1" fill="#FFFFFF" fill-rule="evenodd" xlink:href="#path-1"></use>
                </g>
                <path d="M31.5,30.5 L31.5,28.5 L23.5,23.5 L23.5,18 C23.5,17.17 22.83,16.5 22,16.5 C21.17,16.5 20.5,17.17 20.5,18 L20.5,23.5 L12.5,28.5 L12.5,30.5 L20.5,28 L20.5,33.5 L18.5,35 L18.5,36.5 L22,35.5 L25.5,36.5 L25.5,35 L23.5,33.5 L23.5,28 L31.5,30.5 Z" id="Path" fill="#444444" transform="translate(22.000000, 26.500000) rotate(-270.000000) translate(-22.000000, -26.500000) "></path>
                <text id="3h-40min" font-family="Roboto-Bold, Roboto" font-size="12" font-weight="bold" letter-spacing="-0.006030353" fill="#444444">
                    <tspan x="40" y="31">3h 40min</tspan>
                </text>
            </g>
        </g>
    </g>
</svg>