<svg width="44" height="44" viewBox="0 0 44 44" fill="none" xmlns="http://www.w3.org/2000/svg">
<g clip-path="url(#clip0_3445_170)">
<mask id="mask0_3445_170" style="mask-type:luminance" maskUnits="userSpaceOnUse" x="0" y="0" width="44" height="44">
<path d="M44 0H0V44H44V0Z" fill="white"/>
</mask>
<g mask="url(#mask0_3445_170)">
<path opacity="0.5" d="M27.9679 0.801948L5.73658 6.75882C2.00232 7.75942 -0.213762 11.5978 0.786831 15.332L6.93697 38.2847C7.93756 42.0189 11.7759 44.235 15.5102 43.2344L37.7415 37.2775C41.4758 36.2769 43.6919 32.4386 42.6913 28.7043L36.5412 5.7517C35.5406 2.01743 31.7022 -0.198645 27.9679 0.801948Z" fill="#333030"/>
<path d="M37.8231 7.51123L38.1803 8.07254L38.7416 8.42977L38.1803 8.787L37.8231 9.34831L37.4659 8.787L36.9045 8.42977L37.4659 8.07254L37.8231 7.51123Z" stroke="#58E076" stroke-width="0.45927" stroke-linejoin="round"/>
<path d="M10.4964 38.0527V39.8898M9.57788 38.9713H11.415" stroke="#526EED" stroke-width="0.45927" stroke-linecap="round"/>
<path d="M8 11C8 9.34314 9.34315 8 11 8H30C31.6569 8 33 9.34315 33 11V30.0001C33 31.6569 31.6568 33.0001 30 33.0001L11 32.9999C9.34313 32.9999 8 31.6568 8 29.9999V11Z" fill="#1F1F1F" stroke="#798393" stroke-width="2" stroke-linejoin="round"/>
<path d="M4.13338 31.3118C4.64068 31.3118 5.05192 30.9005 5.05192 30.3932C5.05192 29.8859 4.64068 29.4747 4.13338 29.4747C3.62609 29.4747 3.21484 29.8859 3.21484 30.3932C3.21484 30.9005 3.62609 31.3118 4.13338 31.3118Z" stroke="#D64F4F" stroke-width="0.45927"/>
<path d="M9 15H32" stroke="#798393" stroke-width="2" stroke-linecap="round"/>
<path d="M28 37C32.9706 37 37 32.9706 37 28C37 23.0294 32.9706 19 28 19C23.0294 19 19 23.0294 19 28C19 32.9706 23.0294 37 28 37Z" fill="#1F1F1F" stroke="#D7D4D4" stroke-width="2"/>
<path d="M28 23V28" stroke="#D7D4D4" stroke-width="2" stroke-linecap="round"/>
<path d="M28 33.5C28.8284 33.5 29.5 32.8284 29.5 32C29.5 31.1716 28.8284 30.5 28 30.5C27.1716 30.5 26.5 31.1716 26.5 32C26.5 32.8284 27.1716 33.5 28 33.5Z" fill="#D7D4D4"/>
</g>
</g>
<defs>
<clipPath id="clip0_3445_170">
<rect width="44" height="44" fill="white"/>
</clipPath>
</defs>
</svg>
