<svg width="44" height="44" viewBox="0 0 44 44" fill="none" xmlns="http://www.w3.org/2000/svg">
<g clip-path="url(#clip0_1996_241)">
<rect x="-1.0249" y="8.57056" width="37.0156" height="37.7623" rx="7" transform="rotate(-15 -1.0249 8.57056)" fill="#EFF3F9"/>
<path d="M37.8231 7.51123L38.1803 8.07254L38.7416 8.42977L38.1803 8.787L37.8231 9.34831L37.4659 8.787L36.9045 8.42977L37.4659 8.07254L37.8231 7.51123Z" stroke="#65FA86" stroke-width="0.45927" stroke-linejoin="round"/>
<path d="M10.4964 38.0527V39.8898M9.57788 38.9713H11.415" stroke="#5F7BF8" stroke-width="0.45927" stroke-linecap="round"/>
<path d="M8 11C8 9.34314 9.34315 8 11 8H30C31.6569 8 33 9.34315 33 11V30.0001C33 31.6569 31.6568 33.0001 30 33.0001L11 32.9999C9.34313 32.9999 8 31.6568 8 29.9999V11Z" fill="white" stroke="#A3B2C8" stroke-width="2" stroke-linejoin="round"/>
<circle cx="4.13338" cy="30.3932" r="0.91854" stroke="#EF5858" stroke-width="0.45927"/>
<path d="M9 15H32" stroke="#A3B2C8" stroke-width="2" stroke-linecap="round"/>
<circle cx="28" cy="28" r="9" fill="white" stroke="#4C5666" stroke-width="2"/>
<path d="M28 23V28" stroke="#4C5666" stroke-width="2" stroke-linecap="round"/>
<circle cx="28" cy="32" r="1.5" fill="#4C5666"/>
</g>
<defs>
<clipPath id="clip0_1996_241">
<rect width="44" height="44" fill="white"/>
</clipPath>
</defs>
</svg>
