<?xml version="1.0" encoding="utf-8"?>
<!-- Generator: Adobe Illustrator 21.1.0, SVG Export Plug-In . SVG Version: 6.00 Build 0)  -->
<svg version="1.0" xmlns="http://www.w3.org/2000/svg"
 width="1179.000000pt" height="1280.000000pt" viewBox="0 0 1179.000000 1280.000000"
 preserveAspectRatio="xMidYMid meet">
    <!-- Snowflake path -->
   <g transform="translate(0.000000,1280.000000) scale(0.100000,-0.100000)"
fill="#000000" stroke="none">
<path d="M6154 12560 c-267 -324 -325 -601 -158 -756 l44 -42 -25 -243 c-14
-134 -28 -249 -30 -255 -2 -6 -18 -14 -37 -17 -103 -17 -210 -83 -242 -151
-21 -45 -20 -111 3 -161 39 -84 153 -165 233 -165 l37 0 -5 -47 c-6 -68 -34
-392 -34 -403 0 -5 -123 72 -272 170 -598 392 -657 430 -715 461 -36 20 -65
30 -76 26 -16 -6 -16 -9 -2 -44 15 -37 26 -50 76 -86 54 -39 -418 239 -557
330 l-29 18 15 -22 c12 -17 653 -768 1498 -1755 13 -16 13 -42 -3 -235 -16
-204 -31 -330 -34 -291 0 9 -20 27 -43 41 -24 13 -140 85 -258 159 -219 138
-308 188 -334 188 -23 0 -24 -23 -2 -43 28 -25 29 -25 -194 100 -107 61 -211
118 -230 128 l-35 17 26 -28 c14 -16 79 -90 145 -164 65 -74 277 -308 469
-520 193 -212 356 -393 363 -402 11 -13 9 -47 -8 -190 -19 -154 -37 -250 -39
-208 -1 8 -22 22 -49 32 -26 9 -87 32 -137 51 -49 19 -103 37 -120 41 l-30 6
25 -15 c41 -24 18 -17 -141 40 -84 30 -154 53 -155 52 -2 -1 141 -200 318
-442 176 -242 324 -449 328 -460 4 -11 33 -149 66 -307 32 -159 61 -288 64
-288 3 0 30 94 60 210 30 115 57 205 61 199 3 -6 14 20 23 58 10 37 26 88 37
112 l19 44 -22 -19 -23 -19 21 25 c65 78 327 370 332 370 3 0 -10 -17 -28 -37
-28 -30 -25 -28 13 7 42 39 64 71 37 55 -20 -12 -9 2 22 31 30 27 31 27 13 3
-33 -43 164 162 206 214 22 27 36 53 33 58 -3 5 17 36 45 68 28 32 51 60 51
62 0 2 -129 -28 -287 -68 -279 -70 -344 -83 -314 -64 10 6 11 13 2 29 -27 50
3 305 45 383 21 37 94 108 313 303 306 271 401 364 401 391 0 14 -11 9 -47
-20 -51 -40 -29 -17 205 208 61 60 112 111 112 113 0 2 -10 -2 -22 -10 -35
-22 -890 -477 -913 -486 -20 -8 -21 -4 -23 69 -4 131 25 358 53 416 25 53 -4
24 840 819 426 401 585 560 585 583 0 27 -88 8 -150 -34 -14 -9 54 63 150 160
165 167 189 196 137 163 -33 -21 -1274 -674 -1405 -740 -63 -32 -111 -52 -107
-47 3 6 8 62 10 124 7 181 23 304 45 347 12 24 44 56 84 85 80 57 110 102 109
165 -1 60 -21 98 -94 176 -32 34 -61 75 -64 91 -4 15 -8 36 -10 46 -6 33 23
371 36 407 6 19 33 64 60 100 70 97 84 138 84 250 -1 106 -24 206 -75 330 -34
83 -63 120 -95 120 -27 0 -63 -25 -85 -62 l-17 -29 -53 96 c-29 52 -57 95 -61
95 -4 0 -34 -31 -65 -70z m133 -877 c-2 -16 -4 -5 -4 22 0 28 2 40 4 28 2 -13
2 -35 0 -50z m383 -3696 c0 -2 -10 -12 -22 -23 l-23 -19 19 23 c18 21 26 27
26 19z m-170 -191 c0 -2 -8 -10 -17 -17 -16 -13 -17 -12 -4 4 13 16 21 21 21
13z m-493 -638 c-3 -8 -6 -5 -6 6 -1 11 2 17 5 13 3 -3 4 -12 1 -19z m-10 -40
c-3 -8 -6 -5 -6 6 -1 11 2 17 5 13 3 -3 4 -12 1 -19z"/>
<path d="M2465 9755 c2 -192 1 -330 -3 -305 -8 51 -48 123 -66 117 -29 -9 -29
-82 -2 -584 15 -280 31 -545 35 -590 4 -46 5 -83 3 -83 -4 0 -229 104 -333
154 l-76 37 20 57 c25 76 19 155 -20 231 -76 148 -222 151 -378 9 l-60 -56
-229 103 -229 102 -16 65 c-43 171 -199 257 -469 258 -106 0 -321 -24 -349
-39 -9 -5 2 -31 38 -91 65 -110 75 -129 59 -114 -8 8 -24 9 -53 2 -124 -28
-100 -105 88 -294 77 -77 116 -108 170 -135 l70 -34 155 0 155 0 177 -87 c104
-52 185 -98 197 -113 20 -27 40 -76 60 -153 13 -47 59 -106 102 -128 44 -22
103 -17 182 17 111 47 148 41 345 -55 87 -43 169 -86 182 -96 l24 -18 -100
-64 c-54 -35 -381 -241 -727 -457 -345 -217 -626 -395 -625 -396 2 -2 97 22
213 51 209 53 264 64 213 41 -31 -14 -98 -73 -98 -87 0 -18 21 -21 77 -10 54
9 476 133 1388 406 493 148 460 145 680 45 88 -40 176 -85 195 -99 19 -15 38
-26 43 -24 41 13 -85 -68 -553 -358 -333 -205 -389 -242 -345 -225 57 21 438
125 443 121 3 -3 -1 -6 -9 -6 -8 -1 -27 -7 -44 -15 -29 -15 -28 -15 35 -11 50
3 159 35 462 135 431 143 450 146 552 111 114 -39 245 -107 257 -134 7 -14 17
-23 23 -19 18 10 -27 -38 -226 -246 -103 -107 -186 -196 -184 -198 2 -2 41 3
86 11 87 17 133 20 90 6 l-25 -8 25 -1 c44 -1 417 85 395 92 -11 3 -2 4 20 1
27 -3 35 -2 26 5 -18 12 71 27 90 15 8 -4 10 -3 5 4 -4 7 -3 12 2 12 4 0 86
16 181 35 173 35 213 41 176 25 -16 -7 -12 -9 20 -9 22 -1 65 -8 95 -16 66
-18 69 -18 50 -4 -12 9 -12 10 3 5 10 -3 26 -6 35 -6 15 0 15 -2 2 -10 -12 -8
-9 -9 10 -6 14 3 108 -18 215 -48 165 -46 212 -56 194 -43 -2 2 -107 96 -234
210 l-230 206 -220 500 c-121 275 -222 497 -226 493 -3 -4 -14 -54 -23 -112
-23 -137 -44 -222 -46 -190 -2 24 -2 24 -11 -5 -15 -48 -50 -288 -45 -307 2
-10 2 -18 -2 -18 -3 0 -85 34 -183 76 -138 59 -180 80 -185 97 -24 83 -371
1168 -407 1274 -24 73 -47 130 -51 126 -3 -3 -6 -124 -7 -267 -1 -196 -4 -253
-11 -228 -13 39 -25 41 -38 6 -20 -51 0 -705 22 -731 9 -11 6 -12 -18 -3 -32
12 -422 196 -442 208 -6 5 -179 483 -383 1063 -204 580 -380 1077 -390 1104
l-19 50 5 -350z m1982 -3171 c-3 -3 -12 -4 -19 -1 -8 3 -5 6 6 6 11 1 17 -2
13 -5z"/>
<path d="M9278 9958 c-41 -118 -639 -1820 -705 -2005 l-25 -71 -211 -100
c-117 -55 -221 -102 -232 -106 -20 -6 -20 -3 -14 72 14 161 21 626 10 655 -14
36 -28 34 -40 -5 -6 -23 -9 50 -10 235 -1 147 -4 267 -8 267 -5 0 -18 -31 -29
-68 -12 -37 -96 -299 -187 -582 -91 -283 -184 -574 -207 -646 l-41 -132 -52
-22 c-271 -115 -367 -152 -318 -121 11 7 10 29 -4 131 -20 137 -42 232 -45
190 -2 -32 -23 52 -46 190 -9 58 -20 108 -24 113 -3 4 -26 -37 -49 -90 -23
-54 -123 -281 -222 -504 l-180 -406 -229 -204 c-125 -112 -229 -207 -229 -210
-1 -3 86 18 192 48 111 30 203 51 217 48 19 -4 21 -3 10 4 -11 7 -5 10 20 9
40 -1 147 19 172 33 22 11 443 -71 425 -83 -7 -4 4 -5 23 -2 28 4 32 3 20 -6
-12 -9 -6 -10 25 -5 30 4 36 3 25 -5 -12 -9 -7 -10 20 -6 19 3 28 3 20 -1 -8
-3 50 -21 130 -39 152 -34 261 -51 225 -35 -29 14 -11 13 84 -4 47 -8 86 -13
88 -12 2 2 -81 91 -184 198 -215 224 -253 265 -235 255 8 -5 23 4 40 21 15 16
80 53 146 82 191 86 179 88 602 -52 403 -134 483 -157 539 -156 l40 0 -40 19
c-55 26 -27 20 215 -50 111 -31 198 -54 193 -50 -4 4 -170 108 -368 230 -477
295 -551 343 -534 348 8 3 23 13 34 23 30 26 313 156 370 169 27 6 67 8 90 5
38 -6 703 -202 1515 -445 350 -105 430 -111 333 -23 -21 18 -55 39 -76 45 -20
6 -35 13 -33 15 3 4 420 -98 461 -113 14 -5 17 -4 10 3 -5 6 -327 210 -715
453 -388 243 -711 447 -719 455 -11 11 -3 18 45 46 33 19 118 63 191 98 160
77 192 80 300 33 106 -47 162 -43 226 17 37 34 52 62 72 141 27 104 44 120
243 218 l177 87 160 0 160 0 65 35 c73 39 244 202 298 284 39 60 43 110 10
127 -40 21 -91 29 -107 16 -17 -14 -19 -18 47 93 28 47 52 91 54 99 5 21 -109
39 -292 47 -175 8 -271 -6 -359 -51 -100 -50 -152 -113 -174 -209 l-13 -58
-229 -103 -230 -102 -60 55 c-113 104 -227 132 -309 75 -88 -61 -128 -201 -89
-314 l19 -57 -65 -32 c-99 -49 -339 -160 -346 -160 -3 0 -4 4 -1 8 10 16 69
1160 62 1205 -5 31 -12 47 -21 47 -23 0 -63 -73 -68 -121 -3 -24 -3 112 0 304
3 191 3 347 1 347 -2 0 -25 -60 -50 -132z"/>
<path d="M4061 6328 c51 -57 109 -121 128 -143 l36 -40 -34 30 -35 30 20 -32
c11 -18 66 -80 123 -137 l102 -104 -58 -34 c-32 -19 -107 -62 -168 -96 l-110
-61 -80 29 c-44 15 -289 103 -545 195 -526 189 -782 277 -787 271 -2 -2 93
-79 212 -171 118 -92 215 -170 215 -172 0 -2 -13 5 -30 17 -30 22 -50 20 -50
-5 0 -26 92 -96 493 -377 l108 -76 -63 -34 c-35 -19 -135 -72 -224 -118 l-160
-83 -110 36 c-205 66 -799 259 -981 318 -101 33 -265 86 -365 118 -101 33
-266 87 -368 120 -370 120 -404 130 -407 128 -1 -2 43 -36 100 -77 199 -144
437 -322 437 -327 0 -2 -15 4 -32 15 -37 21 -112 29 -123 12 -8 -13 57 -76
135 -129 30 -21 233 -158 450 -306 217 -147 402 -273 410 -280 8 -7 22 -10 30
-8 34 10 -76 -53 -235 -134 -107 -54 -171 -81 -173 -74 -10 31 -72 98 -113
123 -53 34 -141 54 -190 44 -56 -10 -101 -46 -129 -101 -23 -45 -25 -61 -24
-166 l2 -116 -220 -120 -219 -119 -51 25 c-133 66 -280 21 -429 -131 -67 -69
-148 -187 -213 -309 l-46 -86 37 -6 c21 -4 71 -9 111 -13 39 -4 72 -8 72 -10
0 -2 -9 -21 -20 -41 -26 -48 -25 -85 1 -109 19 -17 36 -19 153 -18 268 4 417
69 502 220 19 34 53 79 75 99 50 45 349 194 404 202 30 4 59 -3 118 -26 158
-63 264 -23 297 113 38 152 48 164 242 261 82 42 167 83 189 90 l39 14 0 -42
c0 -24 -34 -409 -75 -857 -41 -448 -73 -815 -72 -817 2 -1 33 71 70 160 37 89
77 184 90 210 l22 49 0 -71 c1 -38 4 -73 7 -77 27 -26 68 49 161 296 30 80
130 343 222 585 92 242 203 535 246 650 99 261 121 307 167 345 43 36 324 186
367 196 17 4 33 12 37 18 13 18 10 -21 -42 -558 -28 -286 -49 -520 -48 -522 2
-1 38 90 82 202 72 186 98 245 82 179 -12 -49 21 -15 52 53 28 61 59 147 235
655 59 168 83 209 154 261 73 53 224 125 268 128 47 3 35 43 90 -322 20 -135
39 -252 42 -260 3 -9 25 25 54 83 27 53 52 97 54 97 3 0 1 -9 -5 -21 -7 -11
-9 -23 -6 -26 9 -10 148 288 142 304 -3 8 -2 12 2 9 13 -8 62 101 55 120 -5
13 -3 15 7 9 8 -5 11 -4 7 3 -10 15 3 43 16 35 5 -3 7 -1 4 4 -8 13 160 366
170 360 5 -3 35 20 68 50 33 31 51 49 40 42 -18 -13 -19 -12 -7 3 8 9 19 15
26 12 7 -3 19 3 27 13 13 17 13 17 -6 3 -19 -14 -19 -14 -6 3 8 10 20 16 28
13 8 -3 11 -2 8 3 -3 6 67 65 155 132 88 67 159 123 158 125 -2 1 -140 -24
-307 -56 l-303 -58 -536 129 c-295 71 -538 129 -540 129 -2 0 38 -46 89 -102z"/>
<path d="M6157 6187 c60 -57 127 -121 151 -142 23 -21 40 -40 37 -43 -3 -3 29
-40 70 -83 41 -42 75 -83 75 -90 0 -11 2 -11 8 -1 5 7 36 -66 81 -192 40 -113
70 -209 67 -215 -9 -14 4 -42 17 -34 6 4 8 0 4 -10 -7 -18 99 -343 128 -393
15 -27 15 -27 9 -4 -4 14 -4 23 -1 20 4 -4 49 -114 71 -174 3 -10 8 -17 11
-14 2 2 39 132 80 288 42 156 81 291 86 300 9 13 10 12 5 -2 -4 -15 1 -18 29
-18 35 0 147 -68 246 -151 74 -62 90 -104 164 -429 115 -511 140 -600 165
-600 7 0 9 14 5 38 -6 43 76 -236 102 -348 l18 -75 6 90 c4 50 8 257 9 460 2
306 12 600 18 534 1 -10 14 -19 31 -22 37 -8 294 -180 343 -230 46 -48 63 -93
128 -342 28 -110 87 -337 130 -505 166 -643 250 -961 270 -1022 23 -67 42 -94
58 -84 15 9 31 96 25 131 -13 68 9 8 71 -199 36 -120 68 -221 71 -224 3 -3 5
53 5 124 0 71 4 417 10 769 10 598 19 871 27 834 2 -8 18 -21 36 -27 43 -16
274 -166 315 -205 46 -44 52 -57 68 -154 22 -140 61 -184 168 -191 44 -3 81 1
116 13 97 32 139 21 297 -80 203 -129 215 -141 266 -248 67 -141 142 -200 319
-251 46 -13 126 -30 179 -36 115 -16 152 -5 157 45 5 42 -15 103 -36 108 -9 3
38 5 106 6 67 0 122 4 122 9 0 15 -59 161 -91 224 -148 296 -340 432 -524 370
l-60 -20 -203 140 c-111 77 -205 144 -207 148 -3 5 2 39 11 77 46 195 -27 322
-183 323 -95 0 -211 -62 -251 -135 -10 -18 -23 -11 -202 109 -192 128 -193
129 -164 141 25 10 219 113 774 408 304 161 352 201 254 209 -25 2 -52 -1 -60
-5 -9 -5 -18 -7 -20 -4 -5 5 120 79 396 237 80 46 149 87 154 91 5 4 -20 1
-55 -7 -35 -7 -347 -72 -694 -144 -1274 -264 -1401 -291 -1473 -306 l-72 -16
-157 103 c-198 129 -281 189 -261 189 17 0 491 261 576 317 55 37 79 67 62 78
-5 3 -24 -1 -42 -10 -33 -16 -33 -16 -10 2 13 10 117 77 232 148 115 71 208
131 205 133 -5 6 -231 -46 -889 -204 -307 -74 -562 -134 -566 -134 -8 0 -251
172 -300 214 -19 15 -29 25 -22 21 21 -11 274 204 269 230 0 6 47 53 106 105
59 52 101 96 94 98 -6 1 -252 -29 -546 -67 l-534 -68 -291 88 c-160 49 -294
89 -298 89 -5 0 40 -46 99 -103z m1362 -150 c-2 -1 -15 -11 -29 -22 l-25 -20
19 23 c11 12 24 22 29 22 6 0 8 -1 6 -3z m-1129 -72 c19 -19 32 -35 29 -35 -3
0 -20 16 -39 35 -19 19 -32 35 -29 35 3 0 20 -16 39 -35z m300 -640 c0 -5 -5
-3 -10 5 -5 8 -10 20 -10 25 0 6 5 3 10 -5 5 -8 10 -19 10 -25z"/>
<path d="M5779 5854 l-84 -296 -357 -421 c-196 -232 -355 -423 -354 -425 2 -1
59 13 127 32 143 39 205 52 174 36 -40 -20 59 1 170 36 60 20 118 36 127 37
10 1 18 8 19 17 0 9 4 6 9 -7 5 -13 12 -105 15 -205 l6 -183 -353 -332 c-486
-457 -738 -704 -708 -694 14 5 113 50 220 101 107 51 206 96 220 101 l25 9
-25 -20 c-21 -17 -23 -21 -10 -30 8 -5 24 -7 35 -4 34 9 270 128 448 223 92
50 172 91 177 91 6 0 11 8 11 18 6 66 17 -129 18 -301 l1 -207 -722 -728
c-397 -400 -769 -776 -827 -835 l-106 -108 310 156 c259 131 331 163 259 117
-18 -12 -54 -69 -54 -86 0 -42 62 -13 605 288 226 125 431 240 457 256 25 15
49 26 52 22 3 -3 6 -105 6 -227 l0 -222 -44 0 c-117 -2 -243 -112 -262 -230
-4 -30 0 -49 23 -92 39 -75 97 -114 249 -165 7 -3 13 -88 18 -256 l7 -252 -54
-49 c-79 -70 -101 -122 -101 -234 -1 -150 51 -282 192 -494 l75 -113 19 23
c10 13 39 57 65 98 38 60 48 70 54 55 12 -35 66 -84 91 -84 33 0 59 30 106
125 48 98 78 188 92 280 19 117 1 186 -78 310 -44 70 -55 140 -50 335 5 198
11 214 103 301 72 69 95 110 95 171 0 55 -20 87 -94 152 -90 80 -99 101 -103
271 -1 77 1 173 5 212 5 48 5 77 -2 84 -6 6 5 3 24 -6 31 -16 761 -470 1263
-786 103 -65 187 -116 187 -114 0 3 -44 56 -97 118 -153 177 -231 276 -192
241 34 -30 69 -49 121 -64 24 -8 26 -6 22 18 -3 14 -23 48 -45 76 -43 54 -71
85 -739 815 -468 510 -503 550 -526 600 -27 56 -39 348 -22 487 l3 20 35 -20
c19 -11 226 -141 459 -288 233 -147 425 -268 428 -268 2 0 -60 71 -138 158
-189 209 -203 225 -152 178 l43 -40 -10 34 c-5 18 -20 45 -32 59 -47 53 -179
192 -381 400 -114 118 -219 233 -233 256 -41 71 -60 326 -30 400 11 25 12 35
3 39 -37 17 501 -151 580 -181 11 -4 -1 20 -30 60 -27 37 -46 71 -43 76 11 17
-148 226 -164 216 -5 -3 -12 0 -16 6 -4 8 -3 9 4 5 7 -4 12 -3 12 2 0 12 -25
33 -32 27 -3 -3 -11 2 -19 12 -9 11 -10 14 -1 9 18 -11 15 9 -5 25 -15 12 -16
12 -8 -1 8 -13 7 -13 -8 -1 -18 15 -23 26 -7 16 17 -10 11 12 -7 26 -15 12
-16 12 -8 -1 8 -13 7 -13 -8 -1 -18 15 -23 26 -7 16 19 -12 10 12 -12 31 -22
19 -23 19 -8 -1 13 -19 13 -19 -4 -4 -9 9 -19 25 -20 35 -2 10 -8 19 -14 19
-11 0 -242 297 -242 311 0 4 7 -1 15 -12 14 -17 14 -15 0 14 -9 18 -22 60 -29
95 -8 35 -15 51 -16 37 -1 -14 -23 89 -50 228 -26 139 -50 255 -52 257 -2 3
-42 -128 -89 -291z m198 -256 c-3 -8 -6 -5 -6 6 -1 11 2 17 5 13 3 -3 4 -12 1
-19z m584 -805 c13 -16 12 -17 -3 -4 -10 7 -18 15 -18 17 0 8 8 3 21 -13z
m-644 -3625 c-3 -7 -5 -2 -5 12 0 14 2 19 5 13 2 -7 2 -19 0 -25z"/>
<path d="M5156 5863 c-6 -14 -5 -15 5 -6 7 7 10 15 7 18 -3 3 -9 -2 -12 -12z"/>
<path d="M5961 5714 c0 -11 3 -14 6 -6 3 7 2 16 -1 19 -3 4 -6 -2 -5 -13z"/>
</g>
</svg>
