<?xml version="1.0" encoding="UTF-8"?>
<svg width="100px" height="100px" viewBox="0 0 100 100" version="1.1" xmlns="http://www.w3.org/2000/svg" xmlns:xlink="http://www.w3.org/1999/xlink">
    <!-- Generator: Sketch 48.2 (47327) - http://www.bohemiancoding.com/sketch -->
    <title>environment</title>
    <desc>Created with Sketch.</desc>
    <defs></defs>
    <g id="Page-1" stroke="none" stroke-width="1" fill="none" fill-rule="evenodd">
        <g id="environment" fill-rule="nonzero">
            <g id="sprout" transform="translate(15.000000, 1.000000)">
                <path d="M5.89680146,19.7930435 C5.40191631,19.9612321 5.00929373,20.3351584 4.8326957,20.8064776 C3.03386003,25.6055239 4.14889173,31.1729575 8.1835405,35.0156757 C12.2181893,38.8581983 18.0639945,39.9201333 23.1031985,38.2069565 C23.5980837,38.0387679 23.9907063,37.6648416 24.1673043,37.1935224 C25.96614,32.3944761 24.8511083,26.8270425 20.8164595,22.9843243 C16.7820161,19.1418017 10.9360055,18.0798667 5.89680146,19.7930435 Z" id="Shape" fill="#66BF00"></path>
                <g id="Group" transform="translate(4.000000, 20.000000)" fill="#58AB23">
                    <path d="M5.75777027,13.8732222 C1.93763514,10.2085278 0.770878378,4.96688889 2.24878378,0.33425 C2.15027027,0.365555556 2.05155405,0.396277778 1.95344595,0.429916667 C1.46493243,0.597138889 1.07736486,0.968916667 0.903040541,1.43752778 C-0.872635135,6.209 0.228040541,11.7444444 4.21074324,15.5650833 C8.19344595,19.3855278 13.9639865,20.4413611 18.9383108,18.7380278 C19.4268243,18.5708056 19.8143919,18.1990278 19.9887162,17.7304167 C20.0612838,17.5355833 20.1271622,17.339 20.19,17.1418333 C15.2839865,18.7047778 9.66202703,17.6184167 5.75777027,13.8732222 Z" id="Shape"></path>
                    <path d="M29.3282432,25.0969444 L3.22722973,0.0593055556 C2.79810811,0.163722222 2.37263514,0.286027778 1.95324324,0.429527778 C1.46472973,0.59675 1.07716216,0.968527778 0.902837838,1.43713889 C0.792972973,1.73211111 0.694459459,2.03 0.606689189,2.33022222 L26.8339865,27.4891944 C27.1783784,27.8195556 27.6295946,27.9846389 28.0810135,27.9846389 C28.5324324,27.9846389 28.9836486,27.8195556 29.3280405,27.4891944 C30.017027,26.8286667 30.017027,25.7576667 29.3282432,25.0969444 Z" id="Shape"></path>
                </g>
                <path d="M32.7581463,0.154763399 C32.279611,-0.0515877997 31.720389,-0.0515877997 31.2418537,0.154763399 C26.3704355,2.25555416 23,6.76835697 23,12 C23,17.231643 26.3704355,21.7444458 31.2418537,23.8452366 C31.720389,24.0515878 32.279611,24.0515878 32.7581463,23.8452366 C37.6295645,21.7444458 41,17.231643 41,12 C41,6.76835697 37.6295645,2.25555416 32.7581463,0.154763399 Z" id="Shape" fill="#66BF00"></path>
                <g id="Group" transform="translate(23.000000, 0.000000)" fill="#58AB23">
                    <path d="M9.65413636,21.4059934 C9.18102273,21.6144131 8.62813636,21.6144131 8.15502273,21.4059934 C3.75095455,19.4657508 0.5895,15.4879016 0.0803863636,10.7809639 C0.0327272727,11.2213836 0.00654545455,11.6678885 0.00654545455,12.1200984 C0.00654545455,17.4041836 3.33879545,21.962223 8.15502273,24.0840721 C8.62813636,24.2924918 9.18102273,24.2924918 9.65413636,24.0840721 C14.4703636,21.962223 17.8026136,17.4041836 17.8026136,12.1200984 C17.8026136,11.6678885 17.7764318,11.2215738 17.7287727,10.7809639 C17.2196591,15.4880918 14.0582045,19.465941 9.65413636,21.4059934 Z" id="Shape"></path>
                    <path d="M9.65413636,0.156314754 C9.18102273,-0.052104918 8.62813636,-0.052104918 8.15502273,0.156314754 C7.85740909,0.287337705 7.56531818,0.428059016 7.27936364,0.577337705 L7.27936364,56.2516328 C7.27936364,57.2311672 8.22968182,58.0125508 9.27490909,57.8936984 C10.1562955,57.7936721 10.83825,57.0775148 10.83825,56.2516328 L10.83825,0.745252459 C10.4547273,0.533029508 10.0603636,0.335259016 9.65413636,0.156314754 Z" id="Shape"></path>
                </g>
                <path d="M58.1031985,19.7930435 C58.5980837,19.9612321 58.9907063,20.3351584 59.1673043,20.8064776 C60.96614,25.6055239 59.8511083,31.1729575 55.8164595,35.0156757 C51.7818107,38.8581983 45.9360055,39.9201333 40.8968015,38.2069565 C40.4019163,38.0387679 40.0092937,37.6648416 39.8326957,37.1935224 C38.03386,32.3944761 39.1488917,26.8270425 43.1835405,22.9843243 C47.2183946,19.1418017 53.0641999,18.0798667 58.1031985,19.7930435 Z" id="Shape" fill="#66BF00"></path>
                <g id="Group" transform="translate(30.000000, 20.000000)" fill="#58AB23">
                    <path d="M24.2562162,13.8732222 C28.0763514,10.2085278 29.2431081,4.96688889 27.7652027,0.33425 C27.8637162,0.365555556 27.9624324,0.396277778 28.0605405,0.429916667 C28.5490541,0.597138889 28.9366216,0.968916667 29.1109459,1.43752778 C30.8866216,6.209 29.7859459,11.7444444 25.8032432,15.5650833 C21.8205405,19.3855278 16.05,20.4413611 11.0756757,18.7380278 C10.5871622,18.5708056 10.1995946,18.1990278 10.0252703,17.7304167 C9.9527027,17.5355833 9.88682432,17.339 9.82398649,17.1418333 C14.7297973,18.7047778 20.3517568,17.6184167 24.2562162,13.8732222 Z" id="Shape"></path>
                    <path d="M29.1109459,1.43713889 C28.9366216,0.968527778 28.5490541,0.59675 28.0605405,0.429527778 C27.6409459,0.286027778 27.2158784,0.163527778 26.7865541,0.0593055556 L0.685540541,25.0969444 C-0.00344594595,25.7574722 -0.00344594595,26.8286667 0.685540541,27.4891944 C1.02993243,27.8195556 1.48114865,27.9846389 1.93256757,27.9846389 C2.38398649,27.9846389 2.8352027,27.8195556 3.17959459,27.4891944 L29.4068919,2.33022222 C29.3193243,2.03019444 29.2208108,1.73211111 29.1109459,1.43713889 Z" id="Shape"></path>
                </g>
                <path d="M55,74.8947878 C55,62.8026424 44.7026945,53 31.9998983,53 C19.2971022,53 9,62.8026424 9,74.8947878 C9,78.5399506 9.93706151,81.9766249 11.5925775,85 L52.4076258,85 C54.0629385,81.9766249 55,78.5399506 55,74.8947878 Z" id="Shape" fill="#B9873C"></path>
                <path d="M38.518876,81.6776774 C26.5226414,81.6776774 16.1982996,74.8312107 11.5805865,65 C9.93344185,67.9979188 9,71.410746 9,75.0328413 C9,78.6282054 9.91967074,82.0179291 11.5444623,85 L51.6020304,85 C52.8520082,82.705879 53.6824661,80.1696485 54,77.4846772 C49.499042,80.1427262 44.196765,81.6776774 38.518876,81.6776774 Z" id="Shape" fill="#A3682D"></path>
                <path d="M1.15426644,73.6261991 C2.55628081,72.4077868 4.46225157,72.8621558 6.07972702,73.805474 C9.09395676,75.5632564 19.7001044,82.0575275 19.7001044,82.0575275 L33.3906837,80.8690587 L36.1063026,78.2759481 C36.5722246,77.831045 36.3816477,77.0733768 35.7538771,76.8817382 C33.9296399,76.3249815 30.5664239,75.3146284 27.412195,74.4545727 C25.9351233,74.0517838 24.8661126,72.7694275 24.8926154,71.3029667 C24.9257944,69.4619219 26.5064492,67.9861883 28.4389227,68.0000975 C28.4389227,68.0000975 44.4576956,71.0539523 51.405658,72.1794431 C53.5677543,72.5296859 55.5613257,73.5162773 57.1120385,74.9972269 L69.4845625,86.8115959 C70.1718125,87.4678424 70.1718125,88.532287 69.4845625,89.1885335 L60.7722469,97.5078151 C60.0849969,98.1640616 58.9702639,98.1640616 58.2830139,97.5078151 L52.0599313,91.5654711 L21.4112498,90.3947752 C21.1053558,90.382991 20.8081611,90.2954786 20.5487986,90.1405449 L1.03105912,78.4921211 C-0.383498529,77.1413776 -0.342631732,74.9269079 1.15426644,73.6261991 Z" id="Shape" fill="#FFE5BA"></path>
                <path d="M21.6789877,87.1098135 L0.280955152,75 C-0.263555816,76.2142175 -0.0170759992,77.672772 1.02462342,78.6635245 L20.4518243,90.209601 C20.7099837,90.3631734 21.0062025,90.4499168 21.3102748,90.4615975 L51.8167838,91.6220072 L58.0109988,97.5121396 C58.6950608,98.1626201 59.8046228,98.1626201 60.4886848,97.5121396 L63,95.1241084 L54.5284645,87.9429723 L21.6789877,87.1098135 Z" id="Shape" fill="#FFD686"></path>
            </g>
        </g>
    </g>
</svg>