<?xml version="1.0" encoding="UTF-8"?>
<svg width="100px" height="100px" viewBox="0 0 100 100" version="1.1" xmlns="http://www.w3.org/2000/svg" xmlns:xlink="http://www.w3.org/1999/xlink">
    <!-- Generator: Sketch 48.2 (47327) - http://www.bohemiancoding.com/sketch -->
    <title>health</title>
    <desc>Created with Sketch.</desc>
    <defs></defs>
    <g id="Page-1" stroke="none" stroke-width="1" fill="none" fill-rule="evenodd">
        <g id="health" fill-rule="nonzero">
            <g id="stethoscope" transform="translate(9.000000, 7.000000)">
                <path d="M55.6351361,49.7656794 C53.7294927,54.7488875 54.2178192,60.3328942 54.6901138,65.733198 C55.2261031,71.864011 55.7326281,77.6547371 52.4707628,81.3081432 C49.8939412,84.1944717 45.056172,85.7176564 37.6810113,85.9643861 C30.3712786,86.2085344 25.2943291,84.6038236 22.5938009,81.1930601 C17.7185515,75.0360038 20.9147722,63.6554631 23.0301318,56.1247227 C23.7153921,53.6849599 24.2684967,51.7147793 24.5148264,50.1750313 C24.1827037,50.1911644 23.8473313,50.2014896 23.5069759,50.2017047 C22.8028671,50.2010594 22.11804,50.1619096 21.4494616,50.0952259 C21.1873165,51.4738576 20.6586933,53.3573493 20.1086218,55.3156989 C17.8290424,63.4319652 14.3841088,75.697248 20.2095802,83.0543956 C23.3358233,87.003146 28.7357963,89 36.2751768,89 C36.7682696,89 37.2717616,88.9913957 37.7830529,88.9744021 C46.0349916,88.6982025 51.5818525,86.8441806 54.7403763,83.3058577 C58.8666706,78.6838171 58.2795522,71.9676934 57.7114989,65.4727014 C56.9532278,56.8012396 56.2304872,48.5277289 65,43.5909843 C64.3686852,42.8116454 63.8487279,41.9404552 63.4630929,41 C59.6344742,43.1665748 57.0489866,46.068176 55.6351361,49.7656794 Z" id="Shape" fill="#2B3237"></path>
                <path d="M24.547534,49.9734054 C33.4440837,49.540973 39.3654225,43.6419459 40,40.7245405 C36.1739479,43.6819459 31.2396811,45.3085405 25.2914461,45.5703784 C25.1009853,45.611027 24.9044019,45.6339459 24.702789,45.6354595 C24.6019826,45.6363243 24.5009575,45.6363243 24.4005884,45.6363243 C17.1921637,45.6363243 11.3655086,43.7543784 7.07806485,40.0402162 C7.06297668,40.027027 7.04898186,40.0131892 7.0338937,40 C7.01158946,40.0726486 7,40.1515676 7,40.2371892 C7,42.8194595 12.636413,49.0172973 21.4535858,49.892973 C22.1281798,49.96 22.8193926,49.9993514 23.5302857,50 C23.8738147,50 24.2123144,49.9896216 24.547534,49.9734054 Z" id="Shape" fill="#C3BFB8"></path>
                <path d="M3.63635202,24.3418051 C3.61719249,23.9192413 3.6039937,23.4947121 3.6039937,23.065597 C3.6039937,16.2593721 6.16839102,9.11793517 11,6.38950532 C10.2525652,5.86998118 9.73078724,5.00410761 9.63179631,4 C7.72946736,5.11744642 6.04129944,6.80791989 4.66649636,9.01420505 C2.30220973,12.8085438 1,17.7989455 1,23.065597 C1,23.7168038 1.02277856,24.3614592 1.0628007,25 C1.47920126,24.6237326 1.9939541,24.3642981 2.57150764,24.2815324 C2.9383063,24.2293398 3.29680249,24.2555453 3.63635202,24.3418051 Z" id="Shape" fill="#2B3237"></path>
                <path d="M44.4284254,24.281329 C45.0060036,24.3638746 45.5207783,24.6235221 45.9371966,25 C45.9772205,24.3612541 46,23.7166121 46,23.0654188 C46,17.7988769 44.6979477,12.808579 42.3335604,9.01431914 C40.9586988,6.80786149 39.270459,5.11742318 37.3680491,4 C37.2690539,5.0043051 36.7474666,5.86994229 36,6.389674 C40.8316018,9.11826548 43.3961083,16.2595539 43.3961083,23.0654188 C43.3961083,23.4943067 43.382909,23.9190454 43.3637486,24.3416004 C43.7035255,24.255124 44.062037,24.2291374 44.4284254,24.281329 Z" id="Shape" fill="#2B3237"></path>
                <path d="M23.9202069,45 C24.0193592,45 24.1193775,45 24.2193959,44.9991484 C24.4189995,44.997871 24.6136239,44.9750907 24.8021866,44.9350655 C30.6911443,44.6772436 35.5762384,43.075597 39.3641618,40.163551 C39.6583715,39.9372384 39.948035,39.7053903 40.2290388,39.463323 C43.9758292,36.2351205 46.3080746,31.7652853 46.973781,26.5371004 C47.1142829,25.4336398 46.6800042,24.3910685 45.9131971,23.7268206 C45.4897429,23.3599939 44.9662703,23.1068558 44.3789333,23.0261667 C44.0063542,22.9752836 43.6417853,23.0006187 43.2964839,23.0847142 C42.1114183,23.3734066 41.1634091,24.3917072 40.9947635,25.7178613 C39.9330972,34.0541731 33.3033111,38.7933267 22.8223867,38.7164698 C22.8152425,38.7162569 22.8083148,38.7162569 22.8009542,38.7162569 C22.7829855,38.7162569 22.7652334,38.7188117 22.7474812,38.7192375 C13.0965789,38.3690171 7.01775963,33.6941592 6.00545296,25.7444737 C5.83659085,24.4183197 4.88879816,23.400232 3.70373257,23.1113267 C3.35821473,23.0272312 2.99364577,23.0018961 2.62106669,23.0527792 C2.03372965,23.1332554 1.51004064,23.3863935 1.08680293,23.7532202 C0.319995778,24.417681 -0.114282917,25.4602523 0.0262190137,26.5637129 C0.68932751,31.7710336 3.00663516,36.2251142 6.72723021,39.4503361 C6.74216801,39.463323 6.75602336,39.4769486 6.77096116,39.4899355 C11.0148122,43.1469185 16.7834015,45 23.9202069,45 Z" id="Shape" fill="#E0DCD3"></path>
                <path d="M11.4739345,5.52346134 C11.9722647,5.8237129 12.5636497,6 13.2000906,6 C14.967227,6 18,4.65691766 18,3.00010062 C18,1.34328358 14.967227,0 13.2000906,0 C11.4327277,0 10,1.34328358 10,3.00010062 C10,3.10877075 10.0067923,3.21583096 10.0187921,3.32148248 C10.1240731,4.24678853 10.6787796,5.04470904 11.4739345,5.52346134 Z" id="Shape" fill="#E6A123"></path>
                <path d="M37.9812084,3.32137108 C37.9932079,3.2157231 38,3.10866649 38,3 C38,1.34323853 36.5673129,0 34.8,0 C33.0326871,0 30,1.34323853 30,3 C30,4.6569627 33.0326871,6 34.8,6 C35.4364228,6 36.0277911,5.82371881 36.5263337,5.52347733 C37.3212396,5.04453984 37.8759304,4.24684733 37.9812084,3.32137108 Z" id="Shape" fill="#E6A123"></path>
                <path d="M72.4998913,27 C66.7007654,27 62,31.7010316 62,37.5 C62,38.899826 62.2762213,40.2341847 62.7732023,41.4554437 C63.1603472,42.406351 63.6823403,43.287441 64.3161269,44.0752237 C66.240759,46.4677169 69.1906725,48 72.5001087,48 C78.2992346,48 83,43.2989684 83,37.5 C83,31.7010316 78.2990171,27 72.4998913,27 Z M72.4998913,46.1051454 C67.7473616,46.1051454 63.894835,42.2523614 63.894835,37.5 C63.894835,32.7474211 67.747579,28.8948546 72.4998913,28.8948546 C77.2522035,28.8948546 81.1049475,32.7474211 81.1049475,37.5 C81.1049475,42.2523614 77.252421,46.1051454 72.4998913,46.1051454 Z" id="Shape" fill="#E0DCD3"></path>
                <path d="M72.5,28 C67.8054924,28 64,31.8054924 64,36.5 C64,41.1945076 67.8057072,45 72.5,45 C77.1942928,45 81,41.1942928 81,36.5 C81,31.8057072 77.1945076,28 72.5,28 Z M72.5,40.5265646 C70.2761728,40.5265646 68.4736503,38.7238272 68.4736503,36.5002148 C68.4736503,34.2766025 70.2763876,32.4738651 72.5,32.4738651 C74.7238272,32.4738651 76.5263497,34.2768173 76.5263497,36.5002148 C76.5263497,38.7238272 74.7238272,40.5265646 72.5,40.5265646 Z" id="Shape" fill="#F7F1E6"></path>
                <circle id="Oval" fill="#2B3237" cx="72" cy="37" r="4"></circle>
            </g>
        </g>
    </g>
</svg>