<?xml version="1.0" encoding="UTF-8"?>
<svg width="25px" height="25px" viewBox="0 0 25 25" version="1.1" xmlns="http://www.w3.org/2000/svg" xmlns:xlink="http://www.w3.org/1999/xlink">
    <!-- Generator: Sketch 48.2 (47327) - http://www.bohemiancoding.com/sketch -->
    <title>cloudy@2x</title>
    <desc>Created with Sketch.</desc>
    <defs></defs>
    <g id="Weather" stroke="none" stroke-width="1" fill="none" fill-rule="evenodd">
        <g id="cloudy" fill="#3E95D1">
            <path d="M22.4346965,12.4792723 C22.4346965,10.0623322 20.4810929,8.10319117 18.0713164,8.10319117 C17.2196351,8.10319117 16.4275773,8.35162541 15.7559564,8.77482851 C14.8474765,6.56039368 12.6772354,5 10.1415207,5 C6.78847137,5 4.07046593,7.72606621 4.07046593,11.0887265 C4.07046593,11.3429764 4.09098479,11.591858 4.12116833,11.8379064 C1.82246131,11.8353713 0,13.6631375 0,15.9176857 C0,18.1722338 1.82246131,20 4.07046593,20 L22.1132344,20 C23.7076092,20 25,18.7038473 25,17.1048315 C25,15.5059648 23.7076092,14.209663 22.1132344,14.209663 C22.3062306,13.6814793 22.4346965,13.095586 22.4346965,12.4792723 Z" id="Fill-3" transform="translate(12.500000, 12.500000) scale(-1, 1) translate(-12.500000, -12.500000) "></path>
        </g>
    </g>
</svg>