<?xml version="1.0" encoding="utf-8"?>
<svg xmlns="http://www.w3.org/2000/svg" height="256" width="256" viewBox="0 0 256 256">
  <g>
    <path id="path1" transform="rotate(360,128,128) translate(0,18.9721476138439) scale(7.99999141694036,7.99999141694036)  " fill="#FFFFFF" d="M5.9520035,17.336999C3.7640018,17.336999 1.9840012,19.116998 1.9840012,21.304996 1.9840012,23.492995 3.7640018,25.272994 5.9520035,25.272994 8.1400051,25.272994 9.9200058,23.492995 9.9200058,21.304996 9.9200058,19.116998 8.1400051,17.336999 5.9520035,17.336999z M26.048066,17.248002C23.860076,17.248002 22.080045,19.028018 22.080045,21.216007 22.080045,23.404028 23.860076,25.184028 26.048066,25.184028 28.236055,25.184028 30.016086,23.404028 30.016086,21.216007 30.016086,19.028018 28.236055,17.248002 26.048066,17.248002z M5.9520035,15.353C9.2340059,15.353 11.904007,18.022998 11.904007,21.304996 11.904007,24.586994 9.2340059,27.256993 5.9520035,27.256993 2.6700001,27.256993 0,24.586994 0,21.304996 0,18.022998 2.6700001,15.353 5.9520035,15.353z M26.048066,15.264007C29.33005,15.264007 32.000035,17.934007 32.000035,21.216007 32.000035,24.498023 29.33005,27.168008 26.048066,27.168008 22.766081,27.168008 20.096035,24.498023 20.096035,21.216007 20.096035,17.934007 22.766081,15.264007 26.048066,15.264007z M13.473395,4.0580025C15.641199,4.0573854 18.2447,6.9373837 18.764167,7.5416765 19.734193,8.6606984 20.179205,9.7607198 20.083202,10.80474 19.976199,11.955763 19.237179,12.574775 19.154177,12.641776 17.868143,13.664796 14.094041,16.588853 14.094041,16.588853 14.04104,16.639854 14.172044,16.863859 14.187044,16.889859L17.304127,21.429948C18.390157,22.860976 17.706138,23.60099 17.469133,23.791994 17.223125,23.991999 16.896117,24.065 16.589108,23.979999 16.514107,23.981998 16.2731,24.114 16.128096,24.244003 16.031094,24.332005 15.91009,24.406007 15.786087,24.450007 15.427077,24.57701 15.103069,24.624011 14.819061,24.624011 14.446051,24.624011 14.143043,24.543009 13.919037,24.452007 13.412023,24.243003 13.169017,23.663992 13.377022,23.156982 13.586028,22.650972 14.167044,22.407968 14.671057,22.614972 14.719059,22.634972 14.816061,22.654972 14.980065,22.621972 15.105069,22.52597 15.281074,22.404967 15.493079,22.294965L12.532,17.980881C11.993985,17.165865 11.865982,15.91584 12.829008,15.062823 12.880009,15.020823 16.63711,12.107766 17.919144,11.089746 18.236153,10.79274 18.276154,10.007725 17.261127,8.8377018 16.023093,7.3996735 14.206045,5.9416447 13.439024,6.0436468 13.400023,6.0496473 13.309021,6.0626478 13.193017,6.2896519L12.369996,9.2157092C12.350995,9.2827106 12.323994,9.3477116 12.292993,9.4097128 12.246992,9.4947147 11.160963,11.485754 8.1168814,11.485754L6.3148327,11.413753C5.7678185,11.391752 5.3418074,10.930743 5.3638077,10.383732 5.385808,9.8357215 5.8398199,9.3797126 6.3948355,9.4317136L8.1568823,9.5027146C9.6919231,9.5017147,10.340941,8.7617002,10.496945,8.5436959L11.305966,5.6716394C11.319967,5.6246386 11.335968,5.5786381 11.356968,5.533637 11.831981,4.4776163 12.598001,4.1596098 13.157016,4.0796089 13.261222,4.0650301 13.366782,4.058033 13.473395,4.0580025z M8.3089895,0C9.6790009,0 10.789009,1.1099987 10.789009,2.4799967 10.789009,3.8499947 9.6790009,4.9599934 8.3089895,4.9599934 6.9389791,4.9599934 5.82897,3.8499947 5.82897,2.4799967 5.82897,1.1099987 6.9389791,0 8.3089895,0z" />
  </g>
</svg>

