<svg id="Layer_1" data-name="Layer 1" xmlns="http://www.w3.org/2000/svg" width="129" height="28" viewBox="0 0 129 28">
  <defs>
    <style>
      .cls-1 {
        fill: #5d5d5d;
      }
    </style>
  </defs>
  <title>Artboard 2</title>
  <g>
    <g>
      <path class="cls-1" d="M36.21,13.13H29.09a2.7,2.7,0,0,0-1.68.43,1.63,1.63,0,0,0-.53,1.36A1.35,1.35,0,0,0,27.33,16a2.13,2.13,0,0,0,1.36.37H32.5a5,5,0,0,1,3.35.89,3.82,3.82,0,0,1,1,3,3.87,3.87,0,0,1-1.15,3.1,5.48,5.48,0,0,1-3.62,1H24.42V21.93h7.21a3.12,3.12,0,0,0,1.73-.36,1.36,1.36,0,0,0,.5-1.19,1.46,1.46,0,0,0-.46-1.22,2.61,2.61,0,0,0-1.58-.36h-3.4A5.2,5.2,0,0,1,25,17.86a3.72,3.72,0,0,1-1.09-3A4,4,0,0,1,25,11.71a5.47,5.47,0,0,1,3.64-1h7.54Z"/>
      <path class="cls-1" d="M42.74,22.16h2.12V14.35h2.65v9.75A4.1,4.1,0,0,1,46.58,27a3.8,3.8,0,0,1-2.84,1H38.57V26h4.72a1.68,1.68,0,0,0,1.17-.37,1.38,1.38,0,0,0,.41-1.07v-.17H42.53a4.65,4.65,0,0,1-3.2-.88,3.87,3.87,0,0,1-1-3V14.35H41v6a2.27,2.27,0,0,0,.34,1.49A2,2,0,0,0,42.74,22.16Z"/>
      <path class="cls-1" d="M49.59,14.35h5a4.86,4.86,0,0,1,3.22.85,3.58,3.58,0,0,1,1,2.82v6.35H56.11v-6a2.11,2.11,0,0,0-.35-1.46,2.08,2.08,0,0,0-1.39-.33H52.24v7.81H49.59Z"/>
      <path class="cls-1" d="M66.2,22.22H69v2.14h-3.6a7.54,7.54,0,0,1-2.25-.28,3.87,3.87,0,0,1-1.53-.92,4.81,4.81,0,0,1-1.09-1.68,5.59,5.59,0,0,1-.39-2.09,5.93,5.93,0,0,1,.39-2.17,4.57,4.57,0,0,1,1.1-1.68,3.92,3.92,0,0,1,1.55-.91,7.44,7.44,0,0,1,2.23-.28H69v2.17H66.2a3.87,3.87,0,0,0-2.57.64,2.94,2.94,0,0,0-.71,2.24,3.52,3.52,0,0,0,.29,1.52,2.3,2.3,0,0,0,.89,1,2.07,2.07,0,0,0,.69.25A9.06,9.06,0,0,0,66.2,22.22Z"/>
      <path class="cls-1" d="M71.38,16.35H69.49v-2h1.89v-1a2.82,2.82,0,0,1,.57-2.06,3.24,3.24,0,0,1,2.17-.53h2.51v1.92H75.37a1.67,1.67,0,0,0-1,.21.8.8,0,0,0-.29.7v.81h2.51v2H74.12v8H71.38Z"/>
      <path class="cls-1" d="M86.7,24.36h-5a4.71,4.71,0,0,1-3.17-.87,3.56,3.56,0,0,1-1-2.79V14.35h2.62v6.14a1.88,1.88,0,0,0,.35,1.34,2.07,2.07,0,0,0,1.39.34h2.13V14.35H86.7Z"/>
      <path class="cls-1" d="M88.64,22.27h5.57A2,2,0,0,0,95.3,22a1,1,0,0,0,0-1.48,2,2,0,0,0-1.08-.23H91.93a4.32,4.32,0,0,1-2.74-.62,2.83,2.83,0,0,1-.71-2.21,3,3,0,0,1,.86-2.38A3.94,3.94,0,0,1,92,14.35h5.7v2.09H93a3.47,3.47,0,0,0-1.49.2.76.76,0,0,0-.34.72.8.8,0,0,0,.3.69,1.63,1.63,0,0,0,1,.22h2.4a3.67,3.67,0,0,1,2.5.76,2.78,2.78,0,0,1,.86,2.21,3.29,3.29,0,0,1-.77,2.26,2.5,2.5,0,0,1-2,.87H88.64Z"/>
      <path class="cls-1" d="M102.56,13.22H99.8V10.74h2.76Zm0,11.14H99.8v-10h2.76Z"/>
      <path class="cls-1" d="M114.56,19.36a5,5,0,0,1-1.43,3.76,6,6,0,0,1-7.75,0,5,5,0,0,1-1.45-3.76,5,5,0,0,1,1.45-3.77,6,6,0,0,1,7.74,0A5,5,0,0,1,114.56,19.36Zm-7.87,0a3.35,3.35,0,0,0,.67,2.23,2.61,2.61,0,0,0,3.75,0,3.32,3.32,0,0,0,.68-2.23,3.31,3.31,0,0,0-.68-2.22,2.61,2.61,0,0,0-3.75,0A3.32,3.32,0,0,0,106.69,19.36Z"/>
      <path class="cls-1" d="M115.87,14.35h5a4.86,4.86,0,0,1,3.22.85A3.58,3.58,0,0,1,125,18v6.35h-2.65v-6a2.12,2.12,0,0,0-.35-1.46,2.09,2.09,0,0,0-1.39-.33h-2.12v7.81h-2.65Z"/>
    </g>
    <rect class="cls-1" x="0.74" y="3.29" width="6.23" height="6.23"/>
    <rect class="cls-1" x="18.25" y="1.3" width="6.35" height="6.35" transform="translate(4.14 17.91) rotate(-49.66)"/>
    <rect class="cls-1" x="8.15" y="3.29" width="6.23" height="6.23"/>
    <rect class="cls-1" x="0.74" y="10.7" width="6.23" height="6.23"/>
    <rect class="cls-1" x="8.15" y="10.7" width="6.23" height="6.23"/>
    <rect class="cls-1" x="15.58" y="10.7" width="6.23" height="6.23"/>
    <rect class="cls-1" x="0.75" y="18.12" width="6.23" height="6.23"/>
    <rect class="cls-1" x="8.16" y="18.12" width="6.23" height="6.23"/>
    <rect class="cls-1" x="15.59" y="18.12" width="6.23" height="6.23"/>
    <path class="cls-1" d="M128.26,13.85a1.62,1.62,0,1,1-1.6-1.62A1.62,1.62,0,0,1,128.26,13.85Zm-2.63-.9a1.36,1.36,0,0,0,1,2.26,1.36,1.36,0,0,0,0-2.72A1.33,1.33,0,0,0,125.63,12.95Zm1.68,1.86H127l-.49-.71v.71h-.27V12.93h.32c.41,0,.62.19.62.54a.48.48,0,0,1-.43.51Zm-.73-1.08c.21,0,.31-.1.31-.27s-.1-.27-.34-.27h-.06v.55Z"/>
  </g>
</svg>
