<?xml version="1.0" encoding="UTF-8"?>
<svg width="32px" height="32px" viewBox="0 0 32 32" version="1.1" xmlns="http://www.w3.org/2000/svg" xmlns:xlink="http://www.w3.org/1999/xlink">
    <!-- Generator: Sketch 47.1 (45422) - http://www.bohemiancoding.com/sketch -->
    <title>Group</title>
    <desc>Created with Sketch.</desc>
    <defs></defs>
    <g id="Samples" stroke="none" stroke-width="1" fill="none" fill-rule="evenodd">
        <g id="Profile-Card" transform="translate(-479.000000, -365.000000)" fill="#606060">
            <g id="Page-1" transform="translate(479.000000, 365.000000)">
                <g id="Group">
                    <g id="Group-3">
                        <path d="M15.9999925,1.44103377 C9.69343646,1.44103377 4.10382997,5.50212896 2.15496717,11.5012696 C0.206104368,17.4994101 2.34095407,24.0705642 7.44359485,27.777651 C12.5462356,31.4857379 19.4547493,31.4857379 24.55739,27.777651 C29.6590309,24.0705642 31.7938806,17.4994101 29.8450178,11.5012696 C27.896155,5.50212896 22.3065485,1.44103377 15.9999925,1.44103377 M31.2159213,11.0552591 C33.3577705,17.6474136 31.0109357,24.8695829 25.4043304,28.9436784 C19.7967252,33.0187739 12.2032598,33.0187739 6.59665447,28.9436784 C0.989049248,24.8695829 -1.35778553,17.6474136 0.784063679,11.0552591 C2.92591289,4.46210458 9.06948038,0 15.9999925,0 C22.9315045,0 29.0740721,4.46210458 31.2159213,11.0552591" id="Fill-1"></path>
                    </g>
                    <path d="M18.1759,11.4006 C18.6099,11.3846 19.0429,11.3966 19.4789,11.3966 L19.6579,11.3966 L19.6579,9.1376 C19.4259,9.1156 19.1839,9.0816 18.9409,9.0706 C18.4959,9.0506 18.0499,9.0286 17.6039,9.0386 C16.9239,9.0536 16.2799,9.2186 15.7179,9.6216 C15.0729,10.0856 14.7189,10.7376 14.5839,11.5066 C14.5289,11.8226 14.5139,12.1526 14.5059,12.4746 C14.4929,12.9816 14.5039,13.4876 14.5039,13.9946 L14.5039,14.1846 L12.3439,14.1846 L12.3439,16.7066 L14.4909,16.7066 L14.4909,23.0456 L17.1159,23.0456 L17.1159,16.7166 L19.2569,16.7166 C19.3659,15.8776 19.4739,15.0476 19.5859,14.1836 C19.4139,14.1836 19.2589,14.1816 19.1049,14.1836 C18.4959,14.1866 17.0989,14.1836 17.0989,14.1836 C17.0989,14.1836 17.1049,12.9336 17.1199,12.3916 C17.1409,11.6486 17.5809,11.4216 18.1759,11.4006" id="Fill-4"></path>
                </g>
            </g>
        </g>
    </g>
</svg>