<?xml version="1.0" encoding="UTF-8"?>
<svg width="33px" height="32px" viewBox="0 0 33 32" version="1.1" xmlns="http://www.w3.org/2000/svg" xmlns:xlink="http://www.w3.org/1999/xlink">
    <!-- Generator: Sketch 47.1 (45422) - http://www.bohemiancoding.com/sketch -->
    <title>Group 4</title>
    <desc>Created with Sketch.</desc>
    <defs></defs>
    <g id="Samples" stroke="none" stroke-width="1" fill="none" fill-rule="evenodd">
        <g id="Profile-Card" transform="translate(-579.000000, -365.000000)" fill="#606060">
            <g id="Page-1" transform="translate(479.000000, 365.000000)">
                <g id="Group-4" transform="translate(100.000000, 0.000000)">
                    <path d="M16.7328,1.4416 C10.4258,1.4416 4.8358,5.5026 2.8868,11.5016 C0.9378,17.4996 3.0728,24.0706 8.1758,27.7776 C13.2778,31.4856 20.1878,31.4856 25.2898,27.7776 C30.3928,24.0706 32.5278,17.4996 30.5788,11.5016 C28.6298,5.5026 23.0398,1.4416 16.7328,1.4416 M31.9498,11.0556 C34.0918,17.6476 31.7448,24.8696 26.1378,28.9436 C20.5298,33.0186 12.9358,33.0186 7.3278,28.9436 C1.7208,24.8696 -0.6262,17.6476 1.5158,11.0556 C3.6578,4.4626 9.8018,0.0006 16.7328,0.0006 C23.6638,0.0006 29.8078,4.4626 31.9498,11.0556" id="Fill-10"></path>
                    <path d="M14.5091,15.0383 C14.5071,15.0713 14.5041,15.1003 14.5041,15.1253 C14.5041,15.7993 14.5061,17.2563 14.5061,17.2563 L17.4611,17.2563 C17.4611,17.4763 17.2011,18.3573 16.3751,18.9173 C15.8921,19.2443 15.3481,19.3953 14.7721,19.4323 C14.3651,19.4583 13.9651,19.4173 13.5741,19.2923 C12.3421,18.8973 11.4241,17.7823 11.2981,16.4243 C11.2681,16.0893 11.2901,15.7543 11.3651,15.4233 C11.7311,13.8173 13.2531,12.6253 14.9961,12.8823 C15.7681,12.9973 16.2131,13.3183 16.6181,13.6643 C17.1511,13.1303 17.6801,12.6023 18.2231,12.0573 C18.0911,11.9623 17.7861,11.6523 17.2451,11.3393 C16.4351,10.8713 15.5611,10.6373 14.6271,10.6263 C14.4511,10.6253 14.2741,10.6353 14.0991,10.6433 C13.7901,10.6553 13.4871,10.7083 13.1891,10.7843 C11.9961,11.0893 11.0051,11.7163 10.2281,12.6733 C9.4811,13.5913 9.0811,14.6483 9.0081,15.8273 C8.9761,16.3263 9.0141,16.8243 9.1241,17.3123 C9.4341,18.6803 10.1511,19.7843 11.2831,20.6113 C12.1601,21.2543 13.1471,21.5963 14.2301,21.6553 C14.8391,21.6883 15.4451,21.6323 16.0391,21.4773 C17.1451,21.1873 18.0631,20.6103 18.7541,19.6913 C19.7541,18.3623 19.9951,16.6573 19.7001,15.0383 L14.5091,15.0383 Z" id="Fill-12"></path>
                    <polygon id="Fill-14" points="26.3758 15.11 24.5058 15.11 24.5058 13.24 24.5058 13.185 24.4508 13.185 23.0548 13.185 22.9988 13.185 22.9988 13.24 22.9988 15.11 21.1278 15.11 21.0738 15.11 21.0738 15.165 21.0738 16.561 21.0738 16.617 21.1278 16.617 22.9988 16.617 22.9988 18.488 22.9988 18.543 23.0548 18.543 24.4508 18.543 24.5058 18.543 24.5058 18.488 24.5058 16.617 26.3758 16.617 26.4308 16.617 26.4308 16.561 26.4308 15.165 26.4308 15.11"></polygon>
                </g>
            </g>
        </g>
    </g>
</svg>