<?xml version="1.0" encoding="UTF-8"?>
<svg width="14px" height="16px" viewBox="0 0 14 16" version="1.1" xmlns="http://www.w3.org/2000/svg" xmlns:xlink="http://www.w3.org/1999/xlink">
    <!-- Generator: Sketch 47.1 (45422) - http://www.bohemiancoding.com/sketch -->
    <title>Page 1</title>
    <desc>Created with Sketch.</desc>
    <defs></defs>
    <g id="Samples" stroke="none" stroke-width="1" fill="none" fill-rule="evenodd">
        <g id="Explore-Card" transform="translate(-677.000000, -396.000000)">
            <g id="Page-1" transform="translate(604.000000, 392.000000)">
                <g transform="translate(73.000000, 4.000000)">
                    <path d="M5.0004,7.9996 C5.0004,9.3806 3.8804,10.4996 2.5004,10.4996 C1.1194,10.4996 0.0004,9.3806 0.0004,7.9996 C0.0004,6.6196 1.1194,5.4996 2.5004,5.4996 C3.8804,5.4996 5.0004,6.6196 5.0004,7.9996" id="Fill-1" fill="#757575"></path>
                    <path d="M14.0004,13.4996 C14.0004,14.8806 12.8804,15.9996 11.5004,15.9996 C10.1194,15.9996 9.0004,14.8806 9.0004,13.4996 C9.0004,12.1196 10.1194,10.9996 11.5004,10.9996 C12.8804,10.9996 14.0004,12.1196 14.0004,13.4996" id="Fill-3" fill="#757575"></path>
                    <path d="M14.0004,2.4996 C14.0004,3.8806 12.8804,4.9996 11.5004,4.9996 C10.1194,4.9996 9.0004,3.8806 9.0004,2.4996 C9.0004,1.1196 10.1194,-0.0004 11.5004,-0.0004 C12.8804,-0.0004 14.0004,1.1196 14.0004,2.4996" id="Fill-6" fill="#757575"></path>
                    <polyline id="Stroke-9" stroke="#757575" points="11.5004 2.4996 2.5004 7.9996 11.5004 13.4996"></polyline>
                </g>
            </g>
        </g>
    </g>
</svg>