<?xml version="1.0" encoding="UTF-8"?>
<svg width="33px" height="32px" viewBox="0 0 33 32" version="1.1" xmlns="http://www.w3.org/2000/svg" xmlns:xlink="http://www.w3.org/1999/xlink">
    <!-- Generator: Sketch 47.1 (45422) - http://www.bohemiancoding.com/sketch -->
    <title>Group 2</title>
    <desc>Created with Sketch.</desc>
    <defs></defs>
    <g id="Samples" stroke="none" stroke-width="1" fill="none" fill-rule="evenodd">
        <g id="Profile-Card" transform="translate(-529.000000, -365.000000)" fill="#606060">
            <g id="Page-1" transform="translate(479.000000, 365.000000)">
                <g id="Group-2" transform="translate(50.000000, 0.000000)">
                    <path d="M16.3668,1.4416 C10.0598,1.4416 4.4698,5.5026 2.5208,11.5016 C0.5718,17.4996 2.7068,24.0706 7.8098,27.7776 C12.9118,31.4856 19.8218,31.4856 24.9238,27.7776 C30.0268,24.0706 32.1618,17.4996 30.2128,11.5016 C28.2638,5.5026 22.6738,1.4416 16.3668,1.4416 M31.5838,11.0556 C33.7258,17.6476 31.3788,24.8696 25.7718,28.9436 C20.1638,33.0186 12.5698,33.0186 6.9618,28.9436 C1.3548,24.8696 -0.9922,17.6476 1.1498,11.0556 C3.2918,4.4626 9.4348,0.0006 16.3668,0.0006 C23.2978,0.0006 29.4418,4.4626 31.5838,11.0556" id="Fill-6"></path>
                    <path d="M13.9964,19.4714 C12.3844,19.4154 11.3774,18.2574 11.1104,17.3184 C11.5594,17.4044 12.0014,17.3874 12.4404,17.2794 C12.4524,17.2764 12.4634,17.2684 12.4854,17.2584 C11.6114,17.0544 10.9384,16.5884 10.4704,15.8344 C10.1604,15.3344 10.0114,14.7864 10.0164,14.1864 C10.4514,14.4184 10.9074,14.5484 11.3964,14.5614 C10.7404,14.0884 10.2994,13.4704 10.1194,12.6794 C9.9414,11.8904 10.0564,11.1414 10.4524,10.4334 C12.1314,12.4104 14.2574,13.4964 16.8494,13.6754 C16.8314,13.5514 16.8124,13.4444 16.8004,13.3354 C16.7134,12.6054 16.8584,11.9244 17.2534,11.3064 C17.7464,10.5334 18.4514,10.0514 19.3564,9.9044 C20.4004,9.7334 21.3104,10.0314 22.0724,10.7694 C22.1234,10.8194 22.1654,10.8354 22.2374,10.8194 C22.8744,10.6794 23.4764,10.4504 24.0414,10.1244 C24.0544,10.1174 24.0684,10.1104 24.0824,10.1034 C24.0854,10.1024 24.0904,10.1024 24.1024,10.1024 C23.8584,10.8234 23.4104,11.3794 22.7744,11.7904 C23.3754,11.7234 23.9494,11.5654 24.5024,11.3254 C24.5074,11.3304 24.5104,11.3354 24.5144,11.3394 C24.3964,11.4944 24.2814,11.6534 24.1584,11.8044 C23.8294,12.2104 23.4514,12.5674 23.0304,12.8764 C22.9954,12.9024 22.9784,12.9274 22.9794,12.9734 C22.9964,13.4334 22.9784,13.8944 22.9224,14.3504 C22.8024,15.3144 22.5334,16.2334 22.1224,17.1124 C21.6974,18.0194 21.1434,18.8374 20.4454,19.5574 C19.2644,20.7784 17.8404,21.5674 16.1834,21.9334 C15.6144,22.0584 15.0384,22.1214 14.4554,22.1384 C12.6674,22.1904 11.0134,21.7454 9.4924,20.8054 C9.4724,20.7944 9.4534,20.7814 9.4194,20.7594 C10.5014,20.8754 11.5314,20.7374 12.5214,20.3314 C13.0474,20.1154 13.5354,19.8324 13.9964,19.4714" id="Fill-8"></path>
                </g>
            </g>
        </g>
    </g>
</svg>