<?xml version="1.0" encoding="UTF-8"?>
<svg width="34px" height="33px" viewBox="0 0 34 33" version="1.1" xmlns="http://www.w3.org/2000/svg" xmlns:xlink="http://www.w3.org/1999/xlink">
    <!-- Generator: Sketch 47.1 (45422) - http://www.bohemiancoding.com/sketch -->
    <title>Page 1</title>
    <desc>Created with Sketch.</desc>
    <defs>
        <polygon id="path-1" points="0 19.2345 0 0.3105 30.1648027 0.3105 30.1648027 19.2345"></polygon>
    </defs>
    <g id="Samples" stroke="none" stroke-width="1" fill="none" fill-rule="evenodd">
        <g id="Weather-Card" transform="translate(-333.000000, -287.000000)">
            <g id="Page-1" transform="translate(333.000000, 287.000000)">
                <g id="Group-6" transform="translate(3.000000, 0.000000)">
                    <mask id="mask-2" fill="white">
                        <use xlink:href="#path-1"></use>
                    </mask>
                    <g id="Clip-5"></g>
                    <path d="M24.5948,8.1405 L24.1478,8.1405 C23.7028,6.2715 22.0178,4.8705 20.0038,4.8705 C19.5148,4.8705 19.0178,4.9795 18.6078,5.1165 C17.6218,2.3195 14.9528,0.3105 11.8058,0.3105 C7.8218,0.3105 4.5908,3.5245 4.5908,7.4885 C4.5908,7.7385 4.6048,7.9845 4.6288,8.2275 C2.0098,8.6775 -0.0002,10.9575 -0.0002,13.6875 C-0.0002,16.7375 2.5078,19.2345 5.5738,19.2345 L24.5908,19.2345 C27.6578,19.2345 30.1648,16.7395 30.1648,13.6875 C30.1678,10.6375 27.6598,8.1405 24.5948,8.1405" id="Fill-4" fill="#EFEFEF" mask="url(#mask-2)"></path>
                </g>
                <path d="M27.331717,26 C27.053417,26 26.7720361,25.9103372 26.5327596,25.7224723 C25.9432974,25.2634841 25.8251996,24.3946089 26.2678097,23.7840479 L28.6020388,20.5529849 C29.043622,19.9413565 29.8785223,19.8186039 30.4679845,20.277592 C31.0564197,20.7365802 31.1745175,21.6054554 30.7329344,22.2170838 L28.3976783,25.4470794 C28.1358092,25.8089328 27.7373574,26 27.331717,26" id="Fill-7" fill="#BEC9CE"></path>
                <path d="M21.3319543,33 C21.0536492,33 20.7722632,32.9092778 20.5329825,32.7224968 C19.9435097,32.2635492 19.8254098,31.3947508 20.2670009,30.7831765 L22.601272,27.552399 C23.0438901,26.941892 23.8788053,26.8180829 24.4682781,27.2780978 C25.055697,27.7370454 25.1748239,28.6058438 24.7332328,29.2163508 L22.3979347,32.446061 C22.1360609,32.8089497 21.736575,33 21.3319543,33" id="Fill-9" fill="#BEC9CE"></path>
                <path d="M17.3316417,26 C17.0533573,26 16.7719924,25.9092664 16.5327294,25.722462 C15.9433006,25.2634569 15.8252095,24.3945496 16.2677945,23.7839661 L18.6018916,20.5527838 C19.0444766,19.9411328 19.8793296,19.8183756 20.4687585,20.2784482 C21.0561335,20.7363858 21.1742247,21.6052931 20.7336934,22.2169441 L18.3975426,25.447059 C18.1356883,25.8089258 17.7372591,26 17.3316417,26" id="Fill-13" fill="#BEC9CE"></path>
                <path d="M11.3318735,33 C11.0535853,33 10.7722164,32.9092709 10.5329502,32.7214082 C9.94351313,32.263493 9.82542034,31.3946283 10.2669847,30.7830073 L12.6021411,27.5519832 C13.0437055,26.9414296 13.879597,26.8186785 14.4680071,27.2776611 C15.0564173,27.7366437 15.1745101,28.6055084 14.7329457,29.216062 L12.3977893,32.4460187 C12.1359314,32.8089351 11.7364697,33 11.3318735,33" id="Fill-15" fill="#BEC9CE"></path>
                <path d="M7.3319543,26 C7.05364921,26 6.77226325,25.9103372 6.53298248,25.7224723 C5.9435097,25.2634841 5.82540976,24.3946089 6.26700086,23.7840479 L8.60127199,20.5529849 C9.04389006,19.9413565 9.87880534,19.8186039 10.4682781,20.277592 C11.055697,20.7365802 11.1748239,21.6054554 10.7332328,22.2170838 L8.39793469,25.4470794 C8.1360609,25.8089328 7.73657499,26 7.3319543,26" id="Fill-19" fill="#BEC9CE"></path>
                <path d="M1.33166018,33 C1.05337197,33 0.772003087,32.9092778 0.532736844,32.7214295 C-0.0567001658,32.2635492 -0.174792947,31.3947508 0.267798258,30.7831765 L2.60192774,27.552399 C3.04451895,26.941892 3.87938356,26.8180829 4.46779368,27.2780978 C5.05620379,27.7370454 5.17429657,28.6058438 4.73375916,29.2163508 L2.39757589,32.446061 C2.13571798,32.8089497 1.73728321,33 1.33166018,33" id="Fill-21" fill="#BEC9CE"></path>
            </g>
        </g>
    </g>
</svg>