<?xml version="1.0" encoding="UTF-8"?>
<svg width="64px" height="42px" viewBox="0 0 64 42" version="1.1" xmlns="http://www.w3.org/2000/svg" xmlns:xlink="http://www.w3.org/1999/xlink">
    <!-- Generator: Sketch 50.2 (55047) - http://www.bohemiancoding.com/sketch -->
    <title>Artboard 7 Copy 8</title>
    <desc>Created with Sketch.</desc>
    <defs></defs>
    <g id="Artboard-7-Copy-8" stroke="none" stroke-width="1" fill="none" fill-rule="evenodd">
        <g id="angular-icon" transform="translate(17.000000, 5.000000)" fill-rule="nonzero">
            <polygon id="Shape" fill="#B3B3B3" points="15.356528 0 0 5.28725285 2.4267426 24.9708292 15.372762 31.9320014 28.3856559 24.8764838 30.8114293 5.19361861"></polygon>
            <polygon id="Shape" fill="#A6120D" points="28.8857149 6.46710401 15.4057146 1.87835303 15.4057146 30.0536484 26.7025356 23.812494 28.8855979 6.46710401"></polygon>
            <polygon id="Shape" fill="#DD1B16" points="1.92571433 6.5501781 3.98731904 23.895514 15.4057146 30.0536484 15.4057146 1.87835303 1.92583443 6.55006131"></polygon>
            <path d="M19.2571433,16.9996723 L15.373476,18.7574043 L11.2801785,18.7574043 L9.3560385,23.4154177 L5.77714299,23.4794128 L15.373476,2.81752954 L19.2571433,16.9997909 L19.2571433,16.9996723 Z M18.8817193,16.1147624 L15.3993124,9.44232556 L12.5427347,15.9999267 L15.3733535,15.9999267 L18.8817193,16.1148809 L18.8817193,16.1147624 Z" id="Shape" fill="#F2F2F2"></path>
            <polygon id="Shape" fill="#B3B3B3" points="15.4057146 2.81752954 15.4303789 9.4225549 18.5392491 15.9655496 15.4127616 15.9655496 15.4057146 18.7054146 19.7290057 18.70955 21.7495952 23.4182092 25.0342863 23.4794128 15.4057146 2.81752954"></polygon>
        </g>
    </g>
</svg>