<?xml version="1.0" encoding="UTF-8"?>
<svg width="64px" height="42px" viewBox="0 0 64 42" version="1.1" xmlns="http://www.w3.org/2000/svg" xmlns:xlink="http://www.w3.org/1999/xlink">
    <!-- Generator: Sketch 50.2 (55047) - http://www.bohemiancoding.com/sketch -->
    <title>Artboard 7 Copy 9</title>
    <desc>Created with Sketch.</desc>
    <defs></defs>
    <g id="Artboard-7-Copy-9" stroke="none" stroke-width="1" fill="none" fill-rule="evenodd">
        <g id="javascript" transform="translate(17.000000, 7.000000)" fill-rule="nonzero">
            <polygon id="Shape" fill="#F7DF1E" points="0 0 29.2571429 0 29.2571429 28.3966387 0 28.3966387"></polygon>
            <path d="M7.6928,23.7302723 L9.93165714,22.4151529 C10.3636571,23.1584571 10.7565714,23.7873983 11.6990857,23.7873983 C12.6025143,23.7873983 13.1722286,23.4444202 13.1722286,22.1102218 L13.1722286,13.0368303 L15.9216,13.0368303 L15.9216,22.1479361 C15.9216,24.9118387 14.2523429,26.1699429 11.8169143,26.1699429 C9.61748571,26.1699429 8.3408,25.0643597 7.69268571,23.7300504 M17.4149714,23.4443092 L19.6536,22.186316 C20.2429714,23.1204101 21.0089143,23.8065882 22.3638857,23.8065882 C23.5032,23.8065882 24.2296,23.2537412 24.2296,22.4912471 C24.2296,21.5763429 23.4833143,21.2522218 22.2264,20.7186756 L21.5392,20.4324908 C19.5555429,19.6130924 18.2397714,18.5837143 18.2397714,16.4107059 C18.2397714,14.4091866 19.8108571,12.8841983 22.2658286,12.8841983 C24.0137143,12.8841983 25.2706286,13.4752034 26.1739429,15.0191597 L24.0331429,16.3535798 C23.5617143,15.5339597 23.0513143,15.2099496 22.2657143,15.2099496 C21.4604571,15.2099496 20.9498286,15.7055597 20.9498286,16.3535798 C20.9498286,17.154121 21.4604571,17.4783529 22.6387429,17.973963 L23.3260571,18.2598151 C25.6632,19.2320672 26.9789714,20.2231765 26.9789714,22.4532 C26.9789714,24.8551563 25.0347429,26.1702756 22.4227429,26.1702756 C19.8697143,26.1702756 18.22,24.9884874 17.4148571,23.4444202" id="Shape" fill="#000000"></path>
        </g>
    </g>
</svg>