<?xml version="1.0" encoding="UTF-8"?>
<svg width="64px" height="42px" viewBox="0 0 64 42" version="1.1" xmlns="http://www.w3.org/2000/svg" xmlns:xlink="http://www.w3.org/1999/xlink">
    <!-- Generator: Sketch 50.2 (55047) - http://www.bohemiancoding.com/sketch -->
    <title>Artboard 7 Copy 7</title>
    <desc>Created with Sketch.</desc>
    <defs></defs>
    <g id="Artboard-7-Copy-7" stroke="none" stroke-width="1" fill="none" fill-rule="evenodd">
        <g id="typescript" transform="translate(17.000000, 7.000000)" fill-rule="nonzero">
            <polyline id="Shape" fill="#007ACC" points="0 14.1983193 0 0 29.2571429 0 29.2571429 28.3966387 0 28.3966387"></polyline>
            <path d="M6.41462857,14.2480134 L6.41462857,15.4051765 L10.2180571,15.4051765 L10.2180571,25.9119328 L12.9170286,25.9119328 L12.9170286,15.4051765 L16.7204571,15.4051765 L16.7204571,14.2693109 C16.7204571,13.6303866 16.7204571,13.1121479 16.6912,13.0979496 C16.6912,13.0766521 14.3725714,13.0695529 11.5565714,13.0695529 L6.43657143,13.0908504 L6.43657143,14.2551126 L6.41462857,14.2480134 Z M23.5081143,13.0624538 C24.2541714,13.2328336 24.8246857,13.559395 25.3366857,14.0776336 C25.6073143,14.3616 26.0096,14.8585412 26.0388571,14.9863261 C26.0388571,15.028921 24.7734857,15.8595227 24.0054857,16.3209681 C23.9762286,16.3422655 23.8592,16.2215798 23.7421714,16.0370017 C23.3618286,15.5116639 22.9741714,15.2844908 22.3670857,15.2418958 C21.4893714,15.1851025 20.9042286,15.6323496 20.9042286,16.3777613 C20.9042286,16.6049345 20.9481143,16.7327193 21.0358857,16.9172975 C21.2333714,17.3077513 21.5990857,17.5420235 22.7328,18.0247664 C24.8246857,18.897963 25.7316571,19.472995 26.2802286,20.2964975 C26.9019429,21.2193882 27.0409143,22.6676168 26.624,23.7537882 C26.1558857,24.9393479 25.0148571,25.7415529 23.3837714,26.0042218 C22.8717714,26.0894118 21.7014857,26.0752134 21.1529143,25.9829244 C19.9826286,25.7699496 18.8635429,25.2020168 18.176,24.4708034 C17.9053714,24.186837 17.3860571,23.4272269 17.4153143,23.3775328 L17.6932571,23.2071529 L18.7904,22.5895261 L19.6169143,22.1209815 L19.8070857,22.3694521 C20.0484571,22.7386084 20.5897143,23.2355496 20.9042286,23.4059294 C21.8550857,23.8815731 23.1277714,23.8176807 23.7568,23.2639462 C24.0274286,23.0225748 24.1444571,22.767005 24.1444571,22.4120471 C24.1444571,22.0854857 24.0932571,21.9364034 23.9250286,21.6879328 C23.6909714,21.3755697 23.2228571,21.12 21.9062857,20.5520672 C20.3922286,19.9273412 19.7485714,19.5297882 19.1488,18.9192605 C18.8050286,18.5501042 18.4905143,17.9750723 18.3442286,17.4994286 C18.2345143,17.0876773 18.1979429,16.0795966 18.3003429,15.6749445 C18.6148571,14.2551126 19.7193143,13.2612303 21.2992,12.9772639 C21.8112,12.8778756 23.0180571,12.9204706 23.5227429,13.0482555 L23.5081143,13.0624538 Z" id="Shape" fill="#FFFFFF"></path>
        </g>
    </g>
</svg>