<?xml version="1.0" encoding="utf-8"?>
<!-- Generator: Adobe Illustrator 21.0.2, SVG Export Plug-In . SVG Version: 6.00 Build 0)  -->
<svg version="1.1" id="Layer_1" xmlns="http://www.w3.org/2000/svg" xmlns:xlink="http://www.w3.org/1999/xlink" x="0px" y="0px"
	 width="24px" height="24px" viewBox="0 0 24 24" style="enable-background:new 0 0 24 24;" xml:space="preserve">
<style type="text/css">
	.st0{fill:#F4F4F4;stroke:#D3D3D3;stroke-width:2;stroke-miterlimit:10;}
	.st1{fill:#F7F7F7;}
	.st2{opacity:0;fill:#E6E7E8;}
	.st3{fill:none;stroke:#E6E7E8;stroke-miterlimit:10;}
	.st4{fill:#F1F2F2;}
	.st5{opacity:0.8;}
	.st6{fill:#4285F4;}
	.st7{opacity:0.38;}
	.st8{fill:#FF4081;}
	.st9{opacity:0.12;fill:none;stroke:#000000;stroke-width:2;stroke-miterlimit:10;}
	.st10{opacity:0.26;}
	.st11{fill:#E6E7E8;}
	.st12{fill:#757575;}
	.st13{fill:#E0E0E0;}
	.st14{fill:#30B32D;}
	.st15{fill:none;stroke:#9E9E9E;stroke-miterlimit:10;}
	.st16{fill:none;stroke:#9E9E9E;stroke-width:2;stroke-miterlimit:10;}
	.st17{opacity:0.6;}
	.st18{fill:#9E9E9E;}
	.st19{opacity:0.79;}
	.st20{fill:#F02828;}
	.st21{fill:#FFDD00;}
	.st22{fill:#F03E3E;}
	.st23{fill:#414042;}
	.st24{fill:none;stroke:#ED1C24;stroke-width:2;stroke-miterlimit:10;stroke-dasharray:2,2;}
	.st25{fill:#ED1C24;}
	.st26{opacity:0.54;}
	.st27{opacity:0.9;fill:#616161;}
	.st28{fill:#FF9200;}
	.st29{fill:none;stroke:#FFFFFF;stroke-width:2;stroke-miterlimit:10;}
	.st30{fill:#FFFFFF;}
	.st31{fill:#E2E2E2;}
	.st32{fill:#4D4D4D;}
	.st33{fill:none;stroke:#4D4D4D;stroke-miterlimit:10;}
	.st34{fill:none;stroke:#D0003A;stroke-miterlimit:10;}
	.st35{opacity:0.4;fill:#D0003A;}
	.st36{fill:#D0003A;}
</style>
<g class="st17">
	<path d="M12.7,12.6c-0.1-0.2-0.2-0.4-0.4-0.6l-2.1-1.8l2.6-2.1c0.3-0.2,0.5-0.5,0.6-0.8l5.1,4.1c0.4,0.4,1.1,0.3,1.4-0.2
		s0.3-1.1-0.2-1.4l-6.3-5c-0.2-0.2-0.4-0.2-0.7-0.2l0,0c0,0-4,0.3-6.4,3.2c-2.3,2.7,3.6,5.3,4.5,5.7l1,5.6c0.1,0.5,0.5,0.8,1,0.8
		c0.1,0,0.1,0,0.2,0c0.5-0.1,0.9-0.6,0.8-1.2L12.7,12.6z M17,6c1.2,0,2.1-1,2.1-2.1s-1-2.1-2.1-2.1s-2.1,1-2.1,2.1S15.8,6,17,6z
		 M4.7,12.9C2.1,12.9,0,15,0,17.6s2.1,4.7,4.7,4.7s4.7-2.1,4.7-4.7C9.3,15,7.2,12.9,4.7,12.9z M4.7,20.3c-1.5,0-2.6-1.2-2.6-2.6
		S3.2,15,4.7,15s2.6,1.2,2.6,2.6C7.3,19.1,6.1,20.3,4.7,20.3z M19.3,12.9c-2.6,0-4.7,2.1-4.7,4.7s2.1,4.7,4.7,4.7s4.7-2.1,4.7-4.7
		C24,15,21.9,12.9,19.3,12.9z M19.3,20.3c-1.5,0-2.6-1.2-2.6-2.6s1.2-2.6,2.6-2.6c1.5,0,2.6,1.2,2.6,2.6
		C22,19.1,20.8,20.3,19.3,20.3z"/>
</g>
</svg>
