<?xml version="1.0" encoding="utf-8"?>
<!-- Generator: Adobe Illustrator 21.0.2, SVG Export Plug-In . SVG Version: 6.00 Build 0)  -->
<svg version="1.1" id="Layer_1" xmlns="http://www.w3.org/2000/svg" xmlns:xlink="http://www.w3.org/1999/xlink" x="0px" y="0px"
	 width="32px" height="32px" viewBox="0 0 32 32" style="enable-background:new 0 0 32 32;" xml:space="preserve">
<style type="text/css">
	.st0{fill:#F4F4F4;stroke:#D3D3D3;stroke-width:2;stroke-miterlimit:10;}
	.st1{fill:#F7F7F7;}
	.st2{opacity:0;fill:#E6E7E8;}
	.st3{fill:none;stroke:#E6E7E8;stroke-miterlimit:10;}
	.st4{fill:#F1F2F2;}
	.st5{opacity:0.8;}
	.st6{fill:#4285F4;}
	.st7{opacity:0.38;}
	.st8{fill:#FF4081;}
	.st9{opacity:0.12;fill:none;stroke:#000000;stroke-width:2;stroke-miterlimit:10;}
	.st10{opacity:0.26;}
	.st11{fill:#E6E7E8;}
	.st12{fill:#757575;}
	.st13{fill:#E0E0E0;}
	.st14{fill:#30B32D;}
	.st15{fill:none;stroke:#9E9E9E;stroke-miterlimit:10;}
	.st16{fill:none;stroke:#9E9E9E;stroke-width:2;stroke-miterlimit:10;}
	.st17{opacity:0.6;}
	.st18{fill:#9E9E9E;}
	.st19{opacity:0.79;}
	.st20{fill:#F02828;}
	.st21{fill:#FFDD00;}
	.st22{fill:#F03E3E;}
	.st23{fill:#414042;}
	.st24{fill:none;stroke:#ED1C24;stroke-width:2;stroke-miterlimit:10;stroke-dasharray:2,2;}
	.st25{fill:#ED1C24;}
	.st26{opacity:0.54;}
	.st27{opacity:0.9;fill:#616161;}
	.st28{fill:#FF9200;}
	.st29{fill:none;stroke:#FFFFFF;stroke-width:2;stroke-miterlimit:10;}
	.st30{fill:#FFFFFF;}
	.st31{fill:#E2E2E2;}
	.st32{fill:#4D4D4D;}
	.st33{fill:none;stroke:#4D4D4D;stroke-miterlimit:10;}
	.st34{fill:none;stroke:#D0003A;stroke-miterlimit:10;}
	.st35{opacity:0.4;fill:#D0003A;}
	.st36{fill:#D0003A;}
</style>
<g>
	<g>
		<path class="st6" d="M29.8,13.8C29.8,13.8,29.7,13.8,29.8,13.8l-0.1-3.1c0-1-0.8-1.7-1.7-1.7s-1.7,0.8-1.7,1.7V8.5
			c0-1-0.8-1.7-1.7-1.7c-1,0-1.7,0.8-1.7,1.7v5.2H9.2V8.5c0-1-0.8-1.7-1.7-1.7c-1,0-1.7,0.8-1.7,1.7v2.2C5.8,9.8,5,9,4,9
			c-1,0-1.7,0.8-1.7,1.7v3.1c0,0-0.1,0-0.1,0C1,13.8,0,14.8,0,16c0,1.2,1,2.2,2.2,2.2c0,0,0.1,0,0.1,0v3.1c0,1,0.8,1.7,1.7,1.7
			c1,0,1.7-0.8,1.7-1.7v2.2c0,1,0.8,1.7,1.7,1.7c1,0,1.7-0.8,1.7-1.7v-5.2h13.6v5.2c0,1,0.8,1.7,1.7,1.7c1,0,1.7-0.8,1.7-1.7v-2.2
			c0,1,0.8,1.7,1.7,1.7s1.7-0.8,1.7-1.7v-3.1c0,0,0.1,0,0.1,0c1.2,0,2.2-1,2.2-2.2C32,14.8,31,13.8,29.8,13.8z"/>
	</g>
</g>
</svg>
