<?xml version="1.0" encoding="utf-8"?>
<!-- Generator: Adobe Illustrator 21.0.2, SVG Export Plug-In . SVG Version: 6.00 Build 0)  -->
<svg version="1.1" id="Layer_1" xmlns="http://www.w3.org/2000/svg" xmlns:xlink="http://www.w3.org/1999/xlink" x="0px" y="0px"
	 width="24px" height="24px" viewBox="0 0 24 24" style="enable-background:new 0 0 24 24;" xml:space="preserve">
<style type="text/css">
	.st0{fill:#F4F4F4;stroke:#D3D3D3;stroke-width:2;stroke-miterlimit:10;}
	.st1{fill:#F7F7F7;}
	.st2{opacity:0;fill:#E6E7E8;}
	.st3{fill:none;stroke:#E6E7E8;stroke-miterlimit:10;}
	.st4{fill:#F1F2F2;}
	.st5{opacity:0.8;}
	.st6{fill:#4285F4;}
	.st7{opacity:0.38;}
	.st8{fill:#FF4081;}
	.st9{opacity:0.12;fill:none;stroke:#000000;stroke-width:2;stroke-miterlimit:10;}
	.st10{opacity:0.26;}
	.st11{fill:#E6E7E8;}
	.st12{fill:#757575;}
	.st13{fill:#E0E0E0;}
	.st14{fill:#30B32D;}
	.st15{fill:none;stroke:#9E9E9E;stroke-miterlimit:10;}
	.st16{fill:none;stroke:#9E9E9E;stroke-width:2;stroke-miterlimit:10;}
	.st17{opacity:0.6;}
	.st18{fill:#9E9E9E;}
	.st19{opacity:0.79;}
	.st20{fill:#F02828;}
	.st21{fill:#FFDD00;}
	.st22{fill:#F03E3E;}
	.st23{fill:#414042;}
	.st24{fill:none;stroke:#ED1C24;stroke-width:2;stroke-miterlimit:10;stroke-dasharray:2,2;}
	.st25{fill:#ED1C24;}
	.st26{opacity:0.54;}
	.st27{opacity:0.9;fill:#616161;}
	.st28{fill:#FF9200;}
	.st29{fill:none;stroke:#FFFFFF;stroke-width:2;stroke-miterlimit:10;}
	.st30{fill:#FFFFFF;}
	.st31{fill:#E2E2E2;}
	.st32{fill:#4D4D4D;}
	.st33{fill:none;stroke:#4D4D4D;stroke-miterlimit:10;}
	.st34{fill:none;stroke:#D0003A;stroke-miterlimit:10;}
	.st35{opacity:0.4;fill:#D0003A;}
	.st36{fill:#D0003A;}
</style>
<g class="st17">
	<circle cx="12.9" cy="2" r="2"/>
	<path d="M20,11.6c0,0.6-0.5,1-1,1c-0.1,0-0.1,0-0.2,0l0,0c0,0-3.4-0.7-3.7-0.7c-0.3-0.1-0.5-0.4-0.6-0.6c-0.1-0.2-0.9-1.8-0.9-1.8
		l-0.6,3c0,0,2.8,3,2.9,3.1c0.1,0.1,0.4,0.3,0.4,1.3c0,0.9,0,5,0,5.8c0,0,0,0,0,0s0,0,0,0v0.4h0c-0.1,0.3-0.6,0.7-1.2,0.7
		c-0.6,0-1.1-0.5-1.2-0.7h0.3v-5.7l-3.4-3c0,0-0.5,3.2-0.6,3.4c0,0.2-0.1,0.4-0.4,0.8c-0.3,0.3-3.3,3.8-3.8,4.5
		c-0.2,0.3-0.6,0.5-1,0.5c-0.7,0-1.2-0.5-1.2-1.2c0-0.3,0.1-0.6,0.4-0.9l3.2-3.9l0.9-5.2c0,0,0.9-4.4,1-4.6l-1,0.6l-1.6,3
		c-0.1,0.5-0.5,0.8-1,0.8c-0.6,0-1-0.5-1-1c0-0.2,0.1-0.5,0.2-0.6l1.7-3.2c0,0,0.2-0.4,0.4-0.5c0.2-0.1,3.9-2.2,3.9-2.2
		s0.7-0.4,1.5-0.1c0.7,0.2,1.2,0.8,1.4,1c0.2,0.2,2.1,4.3,2.2,4.4c0,0.1-0.1,0,0,0.1c0.1,0,2.3,0.4,2.9,0.5C19.6,10.6,20,11,20,11.6
		z"/>
</g>
</svg>
