<?xml version="1.0" encoding="utf-8"?>
<!-- Generator: Adobe Illustrator 22.1.0, SVG Export Plug-In . SVG Version: 6.00 Build 0)  -->
<svg version="1.1" id="Layer_1" xmlns="http://www.w3.org/2000/svg" xmlns:xlink="http://www.w3.org/1999/xlink" x="0px" y="0px"
	 viewBox="0 0 74 20" style="enable-background:new 0 0 74 20;" xml:space="preserve">
<style type="text/css">
	.st0{fill-rule:evenodd;clip-rule:evenodd;fill:#181616;}
	.st1{fill:#0F0D0E;}
	.st2{fill-rule:evenodd;clip-rule:evenodd;fill:none;stroke:#181616;stroke-miterlimit:10;}
</style>
<g>
	<path class="st1" d="M14.3,8.6H8c-0.2,0-0.3,0.1-0.3,0.3v3c0,0.2,0.1,0.3,0.3,0.3h2.4V16c0,0-0.5,0.2-2.1,0.2
		c-1.8,0-4.3-0.6-4.3-6.1c0-5.5,2.6-6.2,5-6.2c2.1,0,3,0.4,3.6,0.5c0.2,0.1,0.3-0.1,0.3-0.3l0.7-2.9c0-0.1,0-0.2-0.1-0.2
		C13.4,0.8,12,0,8.4,0C4.3,0,0,1.8,0,10.3C0,18.7,4.9,20,9,20c3.4,0,5.5-1.5,5.5-1.5c0.1,0,0.1-0.2,0.1-0.2V8.9
		C14.5,8.7,14.4,8.6,14.3,8.6z"/>
	<path class="st1" d="M46.3,1c0-0.2-0.1-0.3-0.3-0.3h-3.5c-0.2,0-0.3,0.1-0.3,0.3c0,0,0,6.8,0,6.8h-5.5V1c0-0.2-0.1-0.3-0.3-0.3H33
		c-0.2,0-0.3,0.1-0.3,0.3v18.3c0,0.2,0.1,0.3,0.3,0.3h3.5c0.2,0,0.3-0.1,0.3-0.3v-7.8h5.5c0,0,0,7.8,0,7.8c0,0.2,0.1,0.3,0.3,0.3H46
		c0.2,0,0.3-0.1,0.3-0.3V1z"/>
	<g>
		<g>
			<path class="st1" d="M20.9,3.4c0-1.3-1-2.3-2.3-2.3c-1.2,0-2.3,1-2.3,2.3c0,1.3,1,2.3,2.3,2.3C19.8,5.7,20.9,4.7,20.9,3.4z"/>
			<path class="st1" d="M20.6,15.5c0-0.5,0-8.5,0-8.5c0-0.2-0.1-0.3-0.3-0.3h-3.5c-0.2,0-0.3,0.2-0.3,0.3c0,0,0,10.2,0,12.1
				c0,0.4,0.2,0.5,0.5,0.5c0,0,1.5,0,3.1,0c0.3,0,0.4-0.2,0.4-0.5C20.6,18.5,20.6,16,20.6,15.5z"/>
		</g>
	</g>
	<path class="st1" d="M59.6,6.7h-3.5c-0.2,0-0.3,0.1-0.3,0.3v9c0,0-0.9,0.6-2.1,0.6c-1.3,0-1.6-0.6-1.6-1.8c0-1.2,0-7.8,0-7.8
		c0-0.2-0.1-0.3-0.3-0.3h-3.5C48.1,6.7,48,6.9,48,7c0,0,0,4.8,0,8.4c0,3.6,2,4.5,4.8,4.5c2.3,0,4.1-1.3,4.1-1.3s0.1,0.7,0.1,0.7
		c0,0.1,0.1,0.2,0.3,0.2l2.2,0c0.2,0,0.3-0.1,0.3-0.3l0-12.3C59.9,6.9,59.8,6.7,59.6,6.7z"/>
	<path class="st1" d="M69.1,6.3c-2,0-3.3,0.9-3.3,0.9V1c0-0.2-0.1-0.3-0.3-0.3H62c-0.2,0-0.3,0.1-0.3,0.3v18.3
		c0,0.2,0.1,0.3,0.3,0.3c0,0,2.4,0,2.4,0c0.1,0,0.2-0.1,0.3-0.2c0.1-0.1,0.1-0.8,0.1-0.8S66.3,20,69,20c3.2,0,5-1.6,5-7.3
		C74,7.1,71.1,6.3,69.1,6.3z M67.7,16.7c-1.2,0-2-0.6-2-0.6v-5.8c0,0,0.8-0.5,1.8-0.6C68.8,9.6,70,10,70,12.9
		C70,16.1,69.4,16.7,67.7,16.7z"/>
	<path class="st1" d="M30.7,6.7H28c0,0,0-3.5,0-3.5c0-0.1-0.1-0.2-0.2-0.2h-3.6c-0.1,0-0.2,0.1-0.2,0.2v3.6c0,0-1.8,0.4-1.9,0.5
		c-0.1,0-0.2,0.1-0.2,0.3v2.3c0,0.2,0.1,0.3,0.3,0.3H24c0,0,0,2.4,0,5.4c0,4,2.8,4.4,4.7,4.4c0.9,0,1.9-0.3,2.1-0.3
		c0.1,0,0.2-0.1,0.2-0.3l0-2.5c0-0.2-0.1-0.3-0.3-0.3c-0.2,0-0.5,0.1-0.9,0.1c-1.3,0-1.7-0.6-1.7-1.4c0-0.8,0-5.2,0-5.2h2.6
		c0.2,0,0.3-0.1,0.3-0.3V7C31,6.8,30.8,6.7,30.7,6.7z"/>
</g>
</svg>
