<?xml version="1.0" encoding="UTF-8"?>
<svg width="16px" height="14px" viewBox="0 0 16 14" version="1.1" xmlns="http://www.w3.org/2000/svg" xmlns:xlink="http://www.w3.org/1999/xlink">
    <!-- Generator: Sketch 47.1 (45422) - http://www.bohemiancoding.com/sketch -->
    <title>Fill 9</title>
    <desc>Created with Sketch.</desc>
    <defs></defs>
    <g id="Samples" stroke="none" stroke-width="1" fill="none" fill-rule="evenodd">
        <g id="Explore-Card" transform="translate(-642.000000, -397.000000)" fill="#757575">
            <g id="Page-1" transform="translate(604.000000, 392.000000)">
                <path d="M46,19.0001094 C45.8877491,19.0001094 45.7744982,18.9621091 45.6824975,18.8868585 L40.6017078,14.7138259 C40.1427042,14.3370729 39.7092009,13.9238197 39.3126978,13.4845663 C37.5624341,11.5518012 37.5624341,8.4052766 39.3126978,6.4717615 C40.1729545,5.52250408 41.3247135,5 42.5552231,5 C43.7849827,5 44.9362417,5.52250408 45.7959984,6.4717615 L46,6.69726326 L46.2030016,6.47276151 C46.2030016,6.4717615 46.2030016,6.4717615 46.2040016,6.4717615 C47.0637583,5.52250408 48.2150173,5 49.4457769,5 L49.4467769,5 C50.6772865,5 51.8280455,5.52350409 52.6873022,6.4717615 C54.4375659,8.4052766 54.4375659,11.5518012 52.6873022,13.4853163 C52.2907991,13.9238197 51.8572958,14.3370729 51.3982922,14.7138259 L46.3175025,18.8868585 C46.2255018,18.9621091 46.1122509,19.0001094 46,19.0001094" id="Fill-9"></path>
            </g>
        </g>
    </g>
</svg>