<?xml version="1.0" encoding="UTF-8"?>
<svg width="33px" height="32px" viewBox="0 0 33 32" version="1.1" xmlns="http://www.w3.org/2000/svg" xmlns:xlink="http://www.w3.org/1999/xlink">
    <!-- Generator: Sketch 47.1 (45422) - http://www.bohemiancoding.com/sketch -->
    <title>Group 5</title>
    <desc>Created with Sketch.</desc>
    <defs></defs>
    <g id="Samples" stroke="none" stroke-width="1" fill="none" fill-rule="evenodd">
        <g id="Profile-Card" transform="translate(-629.000000, -365.000000)">
            <g id="Page-1" transform="translate(479.000000, 365.000000)">
                <g id="Group-5" transform="translate(150.000000, 0.000000)">
                    <path d="M16.7328,1.4416 C10.4258,1.4416 4.8358,5.5026 2.8868,11.5016 C0.9378,17.4996 3.0728,24.0706 8.1758,27.7776 C13.2778,31.4856 20.1878,31.4856 25.2898,27.7776 C30.3928,24.0706 32.5278,17.4996 30.5788,11.5016 C28.6298,5.5026 23.0398,1.4416 16.7328,1.4416 M31.9498,11.0556 C34.0918,17.6476 31.7448,24.8696 26.1378,28.9436 C20.5298,33.0186 12.9358,33.0186 7.3278,28.9436 C1.7208,24.8696 -0.6262,17.6476 1.5158,11.0556 C3.6578,4.4626 9.8018,0.0006 16.7328,0.0006 C23.6638,0.0006 29.8078,4.4626 31.9498,11.0556" id="Fill-10" fill="#606060"></path>
                    <g id="Page-1" transform="translate(9.000000, 9.000000)">
                        <g id="Group-3" transform="translate(0.000000, 0.636400)" fill="#606060">
                            <path d="M13.7139,12.0002 L2.2859,12.0002 C1.0259,12.0002 -0.0001,11.0212 -0.0001,9.8182 L-0.0001,2.5452 C-0.0001,1.3422 1.0259,0.3632 2.2859,0.3632 L13.7139,0.3632 C14.9749,0.3632 15.9999,1.3422 15.9999,2.5452 L15.9999,9.8182 C15.9999,11.0212 14.9749,12.0002 13.7139,12.0002" id="Fill-1"></path>
                        </g>
                        <polyline id="Stroke-4" stroke="#FFFFFF" points="1.875 3.412 8 7.745 14.125 3.412"></polyline>
                    </g>
                </g>
            </g>
        </g>
    </g>
</svg>