<?xml version="1.0" encoding="UTF-8"?><svg  width="42px" height="42px" viewBox="0 -5 36.5 42" version="1.1" xmlns="http://www.w3.org/2000/svg" xmlns:xlink="http://www.w3.org/1999/xlink">><defs><style>.cls-1{fill:#53c1de;}</style></defs><title>React</title><g id="Layer_2" data-name="Layer 2"><g id="Layer_1-2" data-name="Layer 1"><path class="cls-1" d="M30.16,10.58c-.39-.14-.79-.26-1.18-.38l.18-.8c.89-4.34.31-7.83-1.69-9s-5,0-8.2,2.79c-.31.27-.62.56-.91.84-.2-.19-.4-.38-.61-.56C14.44.55,11.12-.69,9.12.46S6.65,4.85,7.45,9c.08.4.17.81.27,1.21-.47.13-.92.28-1.36.43C2.48,12,0,14.09,0,16.29s2.66,4.55,6.71,5.93c.32.11.66.22,1,.31-.11.44-.2.88-.29,1.31-.77,4.05-.17,7.25,1.74,8.35s5.28,0,8.49-2.84c.26-.22.51-.46.77-.71.32.31.65.62,1,.91,3.12,2.68,6.19,3.76,8.1,2.66s2.61-4.58,1.78-8.78c-.07-.32-.14-.64-.22-1l.68-.21c4.2-1.39,6.94-3.65,6.94-5.95S34.12,11.94,30.16,10.58ZM20.3,4.4C23,2,25.54,1.11,26.69,1.77s1.71,3.57.93,7.31c-.05.25-.1.49-.16.73A37.24,37.24,0,0,0,22.56,9a37.73,37.73,0,0,0-3.1-3.87C19.73,4.91,20,4.65,20.3,4.4ZM10.83,18.17c.33.64.68,1.27,1,1.89S12.62,21.33,13,22c-1.2-.14-2.33-.32-3.38-.55A32.92,32.92,0,0,1,10.83,18.17Zm0-3.69a33.38,33.38,0,0,1-1.17-3.17A32,32,0,0,1,13,10.74c-.39.6-.77,1.22-1.13,1.85S11.16,13.84,10.83,14.48Zm.83,1.84c.48-1,1-2,1.56-3s1.15-1.91,1.78-2.83c1.09-.09,2.21-.13,3.34-.13s2.25,0,3.35.13c.62.91,1.21,1.86,1.76,2.82S24.54,15.3,25,16.3c-.49,1-1,2-1.57,3s-1.14,1.91-1.76,2.84c-1.09.08-2.22.12-3.36.12s-2.26,0-3.32-.11c-.64-.92-1.24-1.87-1.8-2.84S12.14,17.33,11.66,16.32Zm13.16,3.73c.36-.64.72-1.28,1.06-1.94a33.88,33.88,0,0,1,1.23,3.23,32.43,32.43,0,0,1-3.42.58C24.08,21.31,24.45,20.68,24.82,20.05Zm1-5.57c-.33-.64-.69-1.28-1.05-1.91s-.73-1.23-1.12-1.83a32.34,32.34,0,0,1,3.35.59A32.54,32.54,0,0,1,25.86,14.48Zm-7.5-8.19A32.91,32.91,0,0,1,20.51,8.9c-1.44-.07-2.89-.07-4.33,0A32.16,32.16,0,0,1,18.36,6.29ZM9.91,1.82c1.22-.71,3.94.3,6.8,2.84l.55.51A38.17,38.17,0,0,0,14.13,9a39.15,39.15,0,0,0-4.89.76c-.09-.38-.18-.75-.25-1.13C8.3,5.14,8.76,2.49,9.91,1.82ZM8.12,21c-.31-.08-.61-.18-.91-.28a13.46,13.46,0,0,1-4.28-2.27,3.26,3.26,0,0,1-1.37-2.18c0-1.34,2-3,5.32-4.2.41-.15.83-.28,1.26-.4a37.45,37.45,0,0,0,1.79,4.63A37.53,37.53,0,0,0,8.12,21Zm8.49,7.14a13.26,13.26,0,0,1-4.11,2.58,3.19,3.19,0,0,1-2.57.09c-1.15-.66-1.64-3.24-1-6.7.08-.41.17-.81.27-1.21a36.42,36.42,0,0,0,4.94.71,38.84,38.84,0,0,0,3.15,3.89C17.08,27.74,16.85,28,16.61,28.16Zm1.79-1.77c-.74-.8-1.48-1.68-2.21-2.64.7,0,1.42,0,2.15,0s1.48,0,2.21-.05A30.45,30.45,0,0,1,18.4,26.39Zm9.52,2.18a3.25,3.25,0,0,1-1.2,2.28c-1.16.67-3.63-.2-6.3-2.49-.3-.27-.61-.55-.92-.85a36.06,36.06,0,0,0,3.07-3.9,35.51,35.51,0,0,0,5-.77c.07.31.14.6.2.89A13.28,13.28,0,0,1,27.92,28.57Zm1.33-7.82-.62.19a36.79,36.79,0,0,0-1.86-4.64,38.79,38.79,0,0,0,1.79-4.58c.37.1.74.22,1.09.34,3.39,1.17,5.46,2.9,5.46,4.23S32.88,19.55,29.25,20.75Z"/><path class="cls-1" d="M18.34,19.56a3.28,3.28,0,1,0-3.28-3.27A3.27,3.27,0,0,0,18.34,19.56Z"/></g></g></svg>