<?xml version="1.0" encoding="utf-8"?>
<!-- Generator: Adobe Illustrator 22.1.0, SVG Export Plug-In . SVG Version: 6.00 Build 0)  -->
<svg version="1.1" id="Layer_1" xmlns="http://www.w3.org/2000/svg" xmlns:xlink="http://www.w3.org/1999/xlink" x="0px" y="0px"
	 viewBox="0 0 25 25" style="enable-background:new 0 0 25 25;" xml:space="preserve">
<style type="text/css">
	.st0{fill:#FFFFFF;}
	.st1{fill:none;stroke:#000000;stroke-linecap:round;stroke-linejoin:round;stroke-miterlimit:10;}
	.st2{fill:none;stroke:#000000;stroke-miterlimit:10;}
	.st3{fill:none;}
	.st4{fill:none;stroke:#FFFFFF;stroke-miterlimit:10;}
	.st5{fill:none;stroke:#000000;stroke-linejoin:round;stroke-miterlimit:10;}
	.st6{fill:#D5EDED;}
	.st7{fill:none;stroke:#000000;stroke-width:2;stroke-linecap:round;stroke-miterlimit:10;}
	.st8{fill:none;stroke:#000000;stroke-width:2;stroke-miterlimit:10;}
	.st9{fill:none;stroke:#D5EDED;stroke-miterlimit:10;}
	.st10{fill:none;stroke:#000000;stroke-width:2;stroke-linecap:round;stroke-linejoin:round;stroke-miterlimit:10;}
	.st11{fill:none;stroke:#FCFBFA;stroke-linecap:round;stroke-linejoin:round;stroke-miterlimit:10;}
</style>
<path d="M24.7,12l-5.5-2c-0.1,0-0.2,0-0.3,0l-2.8,1V6.5c0-0.2-0.1-0.4-0.3-0.5l-7-3C8.6,3,8.4,3,8.3,3l-7,3C1.1,6.1,1,6.3,1,6.5v17
	C1,23.8,1.2,24,1.5,24H2h7h4.5H14h1.5H19h5.5c0.3,0,0.5-0.2,0.5-0.5v-11C25,12.3,24.9,12.1,24.7,12z M9,4.3l6,2.6v4.6L13.3,12
	c-0.2,0.1-0.3,0.3-0.3,0.5V23H9V4.3z M24,23h-5V11l5,1.8V23z"/>
</svg>
