<?xml version="1.0" encoding="utf-8"?>
<!-- Generator: Adobe Illustrator 22.1.0, SVG Export Plug-In . SVG Version: 6.00 Build 0)  -->
<svg version="1.1" id="Layer_1" xmlns="http://www.w3.org/2000/svg" xmlns:xlink="http://www.w3.org/1999/xlink" x="0px" y="0px"
	 viewBox="0 0 25 25" style="enable-background:new 0 0 25 25;" xml:space="preserve">
<style type="text/css">
	.st0{fill:#FFFFFF;}
	.st1{fill:none;stroke:#000000;stroke-linecap:round;stroke-linejoin:round;stroke-miterlimit:10;}
	.st2{fill:none;stroke:#000000;stroke-miterlimit:10;}
	.st3{fill:none;}
	.st4{fill:none;stroke:#FFFFFF;stroke-miterlimit:10;}
	.st5{fill:none;stroke:#000000;stroke-linejoin:round;stroke-miterlimit:10;}
	.st6{fill:#D5EDED;}
	.st7{fill:none;stroke:#000000;stroke-width:2;stroke-linecap:round;stroke-miterlimit:10;}
	.st8{fill:none;stroke:#000000;stroke-width:2;stroke-miterlimit:10;}
	.st9{fill:none;stroke:#D5EDED;stroke-miterlimit:10;}
	.st10{fill:none;stroke:#000000;stroke-width:2;stroke-linecap:round;stroke-linejoin:round;stroke-miterlimit:10;}
	.st11{fill:none;stroke:#FCFBFA;stroke-linecap:round;stroke-linejoin:round;stroke-miterlimit:10;}
</style>
<path d="M22,17v3c0,0.6-0.4,1-1,1H9v2.9c0,0.9-1,1.5-1.6,0.8l-4-3.9c-0.5-0.4-0.5-1.3,0-1.7l4-3.9C8,14.7,9,15.2,9,16.1V19h11v-2
	c0-0.6,0.4-1,1-1S22,16.4,22,17z M22.7,9.2l-4-3.9C18,4.7,17,5.2,17,6.1V9H5c-0.6,0-1,0.4-1,1v3c0,0.6,0.4,1,1,1s1-0.4,1-1v-2h11
	v2.9c0,0.9,1,1.5,1.6,0.8l4-3.9C23.1,10.4,23.1,9.6,22.7,9.2z"/>
</svg>
