<?xml version="1.0" encoding="UTF-8"?>
<svg width="192px" height="45px" viewBox="0 0 192 45" version="1.1" xmlns="http://www.w3.org/2000/svg" xmlns:xlink="http://www.w3.org/1999/xlink">
    <!-- Generator: Sketch 59.1 (86144) - https://sketch.com -->
    <title>blazor</title>
    <desc>Created with Sketch.</desc>
    <g id="blazor" stroke="none" stroke-width="1" fill="none" fill-rule="evenodd">
        <g id="blazor_logo-2">
            <g id="blazor_logo">
                <line x1="107.54" y1="5.48850146" x2="107.46" y2="43.7319987" id="Line-Copy-2" stroke="#716A80" stroke-width="1.15999997" opacity="0.361002604" stroke-linecap="square"></line>
                <path d="M20,20.9777999 L20,42.1941993 C20,43.2729993 20.8989999,44.1719993 21.9777999,44.1719993 C23.0925599,44.1719993 23.9915598,43.2729993 23.9915598,42.1941993 L23.9915598,20.9777999 C23.9915598,19.899 23.0925599,19 21.9777999,19 C20.8989999,19 20,19.899 20,20.9777999 Z M61.8086396,29.1766797 C61.8805596,29.1407197 61.9165196,29.0687997 61.9884396,28.9968797 L61.9884396,28.8889997 C62.0603596,28.8530397 62.0963196,28.7811197 62.0963196,28.7091997 C62.1322796,28.6372797 62.1322796,28.5653597 62.1322796,28.5293997 C62.1502596,28.4934397 62.1592496,28.4664697 62.1637446,28.4350047 L62.170541,28.2710631 C62.1739932,28.2330893 62.1826236,28.1769917 62.2041996,28.1338397 L62.2041996,28.0978797 C62.2041996,28.0619197 62.1682396,27.9899997 62.1682396,27.9540397 L62.1682396,27.7382797 C62.1322796,27.7023197 62.1322796,27.6303998 62.0963196,27.5584798 C62.0963196,27.4865598 62.0963196,27.4146398 62.0603596,27.3786798 C62.0603596,27.3067598 61.9884396,27.2707998 61.9884396,27.1629198 C61.9165196,27.1629198 61.9165196,27.1269598 61.8805596,27.0909998 C61.8445996,27.0550398 61.8086396,27.0190798 61.7726796,26.9471598 L61.7007596,26.8592576 C61.6887729,26.8472709 61.6767863,26.8392798 61.6647996,26.8392798 C61.5928796,26.7313998 61.5209596,26.6954398 61.4849996,26.6594798 C61.4849996,26.6235198 61.4490396,26.5875598 61.4130796,26.5875598 C61.4130796,26.5875598 61.4130796,26.5515998 61.3771196,26.5515998 L61.2332796,26.4636976 C61.2093063,26.4517109 61.1853329,26.4437198 61.1613596,26.4437198 C61.1253996,26.4437198 61.0894396,26.3717998 61.0534796,26.3358398 L60.9442678,26.3092028 C60.9216263,26.3038753 60.8976529,26.2998798 60.8736796,26.2998798 C60.8377196,26.2639198 60.7657996,26.2639198 60.6938796,26.2279598 L60.5140796,26.2279598 L60.2983196,26.1919998 L60.2983196,26.1919998 L49.9058799,26.1919998 C48.899,26.1919998 48,27.0550398 48,28.0978797 C48,29.1766797 48.899,30.0037597 49.9058799,30.0037597 L56.4865597,30.0037597 L48.39556,41.1873194 L48.3596,41.1873194 C48.32364,41.2232794 48.25172,41.2951994 48.25172,41.3671194 L48.211265,41.4210594 C48.18879,41.4480294 48.16182,41.4749994 48.14384,41.4749994 L48.1172029,41.5842112 C48.1118755,41.6068527 48.10788,41.630826 48.10788,41.6547993 C48.07192,41.7267193 48.07192,41.7986393 48.03596,41.8345993 L48.03596,41.9784393 C48.03596,42.0503593 48,42.1582393 48,42.2301593 L48,42.2661193 C48,42.3020793 48,42.3380393 48.03596,42.3739993 L48.03596,42.6257193 C48.03596,42.6616793 48.07192,42.7335993 48.07192,42.7695593 L48.10788,42.8999143 C48.11687,42.9313793 48.12586,42.9493593 48.14384,42.9493593 C48.14384,43.0572393 48.1798,43.0931993 48.25172,43.1291593 C48.25172,43.2010793 48.25172,43.2370393 48.32364,43.2729993 C48.3596,43.3089593 48.39556,43.3449193 48.43152,43.4168393 L48.489955,43.4797693 C48.51243,43.5067393 48.5394,43.5426993 48.57536,43.5966393 L48.6815543,43.6724924 L48.6815543,43.6724924 L48.7192,43.7045193 C48.75516,43.7404793 48.79112,43.7764393 48.82708,43.7764393 C48.82708,43.8123993 48.82708,43.8123993 48.86304,43.8123993 C48.86304,43.8483593 48.899,43.8483593 48.93496,43.9202793 C48.97092,43.9202793 49.04284,43.9921993 49.0788,43.9921993 C49.11476,44.0281593 49.15072,44.0281593 49.22264,44.0641193 C49.2945599,44.0641193 49.3664799,44.1000793 49.4383999,44.1360393 L49.5462799,44.1360393 C49.6901199,44.1719993 49.7979999,44.1719993 49.9058799,44.1719993 L60.2983196,44.1719993 C61.3051996,44.1719993 62.2041996,43.3089593 62.2041996,42.2661193 C62.2041996,41.1873194 61.3051996,40.3602394 60.2983196,40.3602394 L53.6816798,40.3602394 L61.8086396,29.2126397 L61.8086396,29.1766797 Z M95.1697998,26.2279598 C96.2485997,26.2279598 97.0756797,27.0550398 97.0756797,28.0978797 C97.0756797,29.1047597 96.2485997,30.0037597 95.1697998,30.0037597 C94.3427198,30.0037597 93.6235198,30.2195197 93.0121998,30.6869997 C92.3289598,31.1185197 91.7895599,31.7298396 91.3580399,32.4130796 C90.4949999,33.5637996 90.0634799,34.9302795 89.8836799,35.4337195 L89.8836799,42.2661193 C89.8836799,43.3089593 88.9846799,44.1719993 87.90588,44.1719993 C86.86304,44.1719993 86,43.3089593 86,42.2661193 L86,28.0978797 C86,27.0550398 86.86304,26.2279598 87.90588,26.2279598 C88.9846799,26.2279598 89.8836799,27.0550398 89.8836799,28.0978797 L89.8836799,28.3495997 C90.0994399,28.0978797 90.3871199,27.8101997 90.6388399,27.6303998 C91.8255198,26.8392798 93.3717998,26.1919998 95.1697998,26.2279598 Z" id="Blazor" fill="#5C2D91" fill-rule="nonzero"></path>
                <path d="M7.0841198,19 C10.8599197,19 13.9165196,22.0565999 13.9165196,25.8323998 C13.9165196,27.3786798 13.4130796,28.7811197 12.5500396,29.9318397 C14.7076396,31.2983196 16.1819995,33.7076396 16.1819995,36.4405995 C16.1819995,40.7198394 12.7298396,44.1719993 8.48655976,44.1719993 L8.48655976,44.1719993 L2.12163994,44.1719993 C2.08567994,44.1719993 2.08567994,44.1360393 2.08567994,44.1360393 C2.01375994,44.1360393 2.01375994,44.1719993 1.97779994,44.1719993 C0.898999974,44.1719993 -1.55431223e-12,43.2729993 -1.55431223e-12,42.1941993 L-1.55431223e-12,42.1941993 L-1.55431223e-12,20.9777999 C-1.55431223e-12,19.86304 0.898999974,19 1.97779994,19 L1.97779994,19 Z M8.48655976,32.7367196 L3.99155989,32.7367196 L3.99155989,40.1804394 L8.48655976,40.1804394 C10.5362797,40.1444794 12.1904396,38.5262794 12.1904396,36.4405995 C12.1904396,34.3908796 10.5362797,32.7726796 8.48655976,32.7367196 L8.48655976,32.7367196 Z M7.0841198,22.9915599 L3.99155989,22.9915599 L3.99155989,28.7451597 L7.0841198,28.7451597 C8.66635975,28.7451597 9.92495971,27.4146398 9.92495971,25.8323998 C9.92495971,24.2501598 8.66635975,22.9915599 7.0841198,22.9915599 L7.0841198,22.9915599 Z" id="Combined-Shape" fill="#5C2D91" fill-rule="nonzero"></path>
                <path d="M42.2110795,26.1919998 C43.2539195,26.1919998 44.1169595,27.0550398 44.1169595,28.1338397 L44.1169595,28.1338397 L44.1169595,42.2661193 C44.1169595,43.3089593 43.2539195,44.1719993 42.2110795,44.1719993 C41.2761196,44.1719993 40.5569196,43.4887593 40.3411596,42.6257193 C38.9746796,43.5966393 37.3564797,44.1719993 35.5584797,44.1719993 C33.1131998,44.1719993 30.9915599,43.1651193 29.4452799,41.5469194 C27.8989999,39.8927594 27,37.6632395 27,35.2179595 C27,32.7367196 27.8989999,30.5071997 29.4452799,28.8889997 C30.9915599,27.2348398 33.1131998,26.1919998 35.5584797,26.1919998 C37.3564797,26.1919998 38.9746796,26.8033198 40.3411596,27.7742397 C40.5569196,26.8752398 41.2761196,26.1919998 42.2110795,26.1919998 Z M35.5584797,30.0397197 C34.2639198,30.0397197 33.0412798,30.5431597 32.2141998,31.5140796 L32.2141998,31.5140796 L32.0464291,31.6991005 C31.286272,32.5866465 30.8477199,33.8083276 30.8477199,35.2179595 C30.8477199,36.6923195 31.3511598,37.9868795 32.2141998,38.9218394 C33.0412798,39.8208394 34.2639198,40.3242794 35.5584797,40.3242794 C36.8170797,40.3242794 38.0397197,39.8208394 38.9027596,38.9218394 C39.7657996,37.9868795 40.3051996,36.6923195 40.3051996,35.2179595 C40.3051996,33.7076396 39.7657996,32.4130796 38.9027596,31.5140796 C38.0397197,30.5431597 36.8170797,30.0397197 35.5584797,30.0397197 Z" id="Combined-Shape" fill="#5C2D91" fill-rule="nonzero"></path>
                <path d="M73.6663597,26.1919998 C76.0397197,26.1919998 78.1973196,27.2348398 79.6716796,28.9249597 L79.6716796,28.9249597 L79.9211819,29.2007754 C81.3820208,30.8752667 82.1888795,32.9013785 82.1888795,35.2179595 C82.1888795,37.7351595 81.2898795,39.9646794 79.6716796,41.5469194 C78.1973196,43.2370393 76.0397197,44.2798793 73.6663597,44.2798793 C71.1851198,44.2798793 69.0994399,43.2370393 67.4812399,41.5469194 C65.93496,39.9646794 65,37.7351595 65,35.2179595 C65,32.7726796 65.93496,30.6510397 67.4812399,28.9249597 C69.0994399,27.2348398 71.1851198,26.1919998 73.6663597,26.1919998 Z M73.6663597,30.1116397 C72.2998798,30.1116397 71.1131998,30.6869997 70.2141998,31.4781196 C69.3871199,32.4490396 68.9196399,33.7435996 68.9196399,35.2179595 C68.9196399,36.7642395 69.3871199,38.0228395 70.2141998,39.0297194 C71.1131998,39.8927594 72.2998798,40.3602394 73.6663597,40.3602394 C74.9249597,40.3602394 76.0756797,39.8927594 76.9746796,39.0297194 C77.8736796,38.0228395 78.3771196,36.7642395 78.3771196,35.2179595 C78.3771196,33.7435996 77.8736796,32.4490396 76.9746796,31.4781196 C76.0756797,30.6869997 74.9249597,30.1116397 73.6663597,30.1116397 Z" id="Combined-Shape" fill="#5C2D91" fill-rule="nonzero"></path>
                <g id="DEMOS-Copy-2" transform="translate(118.460000, 10.000000)" fill="#716A80" font-family="Roboto, Segoe UI, GeezaPro, DejaVu Serif, sans-serif" font-size="18.5599995" font-weight="500">
                    <text id="DEMOS">
                        <tspan x="0" y="20.4399997">DEMOS</tspan>
                    </text>
                </g>
                <text id="Essential-Studio-for" fill="#716A80" font-family="Roboto, Segoe UI, GeezaPro, DejaVu Serif, sans-serif" font-size="11" font-weight="500" letter-spacing="-0.191667">
                    <tspan x="0" y="12">Essential Studio for</tspan>
                </text>
            </g>
        </g>
    </g>
</svg>