<?xml version="1.0" encoding="UTF-8"?>
<svg width="494px" height="109px" viewBox="0 0 494 109" version="1.1" xmlns="http://www.w3.org/2000/svg" xmlns:xlink="http://www.w3.org/1999/xlink">
    <title>syncfusion-logo</title>
    <g id="syncfusion-logo" stroke="none" stroke-width="1" fill="none" fill-rule="evenodd">
        <g id="Syncfusion-Logo" fill-rule="nonzero">
            <path d="M137.352583,50.8333224 L109.79444,50.8333224 C106.82897,50.8333224 104.658899,51.3828735 103.270994,52.4849143 C101.88897,53.5884245 101.197958,55.3384653 101.197958,57.7365061 C101.197958,59.6584653 101.784583,61.1028735 102.963714,62.0594449 C104.147256,63.0160163 105.905661,63.4979755 108.240399,63.4979755 L123.013351,63.4979755 C129.095726,63.4979755 133.429988,64.6470367 136.002905,66.948098 C138.577292,69.2491592 139.86375,73.0872 139.86375,78.4534041 C139.86375,83.8974857 138.375869,87.8942204 135.407458,90.4480163 C132.434637,93.0032816 127.76222,94.2831184 121.388738,94.2831184 L91.6943393,94.2831184 L91.6943393,84.8937306 L119.617101,84.8937306 C122.792815,84.8937306 125.033458,84.4294041 126.336089,83.5051592 C127.63578,82.5794449 128.287095,81.0468735 128.287095,78.9030367 C128.287095,76.6930776 127.691649,75.1193633 126.499286,74.186302 C125.308393,73.2488327 123.266232,72.7756898 120.377214,72.7756898 L107.19506,72.7756898 C101.106804,72.7756898 96.6534524,71.5605061 93.8423571,69.1257306 C91.025381,66.6953633 89.6183631,62.8632 89.6183631,57.6116082 C89.6183631,52.0044245 91.0974226,47.913649 94.0555417,45.3245878 C97.0166012,42.7399347 101.721363,41.4454041 108.166887,41.4454041 L137.352583,41.4454041 L137.352583,50.8333224 Z" id="Fill-26" fill="#2B357C"></path>
            <path d="M162.661262,85.7649306 L170.86078,85.7649306 L170.86078,55.5249306 L181.127452,55.5249306 L181.127452,93.2411755 C181.127452,98.3796245 179.932149,102.183869 177.535661,104.658318 C175.136232,107.12689 171.466518,108.367053 166.532399,108.367053 L146.501728,108.367053 L146.501728,100.504359 L164.776935,100.504359 C166.732351,100.504359 168.233464,100.026808 169.290565,99.0746449 C170.337375,98.1195429 170.86078,96.7412571 170.86078,94.9250939 L170.86078,94.2829714 L161.837929,94.2829714 C156.04078,94.2829714 151.90794,93.1441959 149.443821,90.859298 C146.972204,88.5773388 145.735734,84.7657469 145.735734,79.4392163 L145.735734,55.5249306 L155.895226,55.5249306 L155.895226,78.6501551 C155.895226,81.5742367 156.334827,83.4903184 157.203738,84.4042776 C158.074119,85.3094204 159.892804,85.7649306 162.661262,85.7649306" id="Fill-27" fill="#2B357C"></path>
            <path d="M189.185827,55.5255184 L208.459179,55.5255184 C214.287202,55.5255184 218.447976,56.6246204 220.93856,58.8140082 C223.436494,61.0092735 224.686196,64.6416 224.686196,69.7153959 L224.686196,94.2820898 L214.419524,94.2820898 L214.419524,70.9746612 C214.419524,68.0755592 213.96522,66.1962122 213.068375,65.3336816 C212.168589,64.4740898 210.374899,64.0420898 207.669661,64.0420898 L199.45397,64.0420898 L199.45397,94.2820898 L189.185827,94.2820898 L189.185827,55.5255184 Z" id="Fill-28" fill="#2B357C"></path>
            <path d="M253.489631,85.9844571 L264.389976,85.9844571 L264.389976,94.2820898 L250.466821,94.2820898 C246.932369,94.2820898 244.036,93.9118041 241.770363,93.1888653 C239.492964,92.4571102 237.525786,91.2757224 235.845304,89.6491102 C234.039851,87.8829061 232.632833,85.7199673 231.608077,83.164702 C230.590673,80.6123755 230.08197,77.9189878 230.08197,75.0595592 C230.08197,72.0708245 230.587732,69.276049 231.596315,66.676702 C232.599018,64.084702 234.016327,61.9070694 235.845304,60.1599673 C237.544899,58.5318857 239.544423,57.3519673 241.842405,56.6202122 C244.133036,55.8899265 247.005881,55.5255184 250.466821,55.5255184 L264.389976,55.5255184 L264.389976,63.9304163 L253.489631,63.9304163 C248.66431,63.9304163 245.344512,64.7650286 243.522887,66.4254367 C241.702732,68.0887837 240.785304,70.9746612 240.785304,75.0860082 C240.785304,77.4531918 241.160214,79.4177633 241.901214,80.9650286 C242.646625,82.5122939 243.799292,83.767151 245.353333,84.7281306 C246.122268,85.1865796 247.014702,85.5069061 248.033577,85.6993959 C249.056863,85.8816 250.869667,85.9844571 253.489631,85.9844571" id="Fill-29" fill="#2B357C"></path>
            <path d="M273.558381,63.2778612 L266.241006,63.2778612 L266.241006,55.5253714 L273.558381,55.5253714 L273.558381,51.4874939 C273.558381,47.5421878 274.286149,44.8811265 275.754917,43.5057796 C277.208982,42.131902 280.014196,41.445698 284.164679,41.445698 L293.884423,41.445698 L293.884423,48.8631673 L289.020875,48.8631673 C287.265411,48.8631673 286.017179,49.142351 285.280589,49.6860245 C284.527827,50.2311673 284.164679,51.1363102 284.164679,52.3970449 L284.164679,55.5253714 L293.884423,55.5253714 L293.884423,63.2778612 L284.164679,63.2778612 L284.164679,94.2834122 L273.558381,94.2834122 L273.558381,63.2778612 Z" id="Fill-30" fill="#2B357C"></path>
            <path d="M332.89131,94.2828245 L313.56356,94.2828245 C307.901673,94.2828245 303.805589,93.1572735 301.287071,90.9135184 C298.765613,88.6653551 297.507089,85.0653551 297.507089,80.112049 L297.507089,55.5262531 L307.662024,55.5262531 L307.662024,79.2965388 C307.662024,81.8841306 308.119268,83.6047837 309.013173,84.4673143 C309.915899,85.3327837 311.709589,85.7647837 314.395714,85.7647837 L322.627577,85.7647837 L322.627577,55.5262531 L332.89131,55.5262531 L332.89131,94.2828245 Z" id="Fill-31" fill="#2B357C"></path>
            <path d="M340.405696,86.2011918 L361.97997,86.2011918 C363.903042,86.2011918 365.298298,85.9058449 366.17897,85.3092735 C367.058173,84.7141714 367.502185,83.7649469 367.502185,82.4483755 C367.502185,81.1450286 367.055232,80.1825796 366.162798,79.5786612 C365.274774,78.9732735 363.882458,78.6691102 361.97997,78.6691102 L353.118845,78.6691102 C347.884798,78.6691102 344.354756,77.8682939 342.514018,76.2563755 C340.67181,74.6503347 339.75144,71.7953143 339.75144,67.6927837 C339.75144,63.5182531 340.86294,60.448702 343.08447,58.4782531 C345.30747,56.5092735 348.753708,55.5262531 353.408482,55.5262531 L375.473815,55.5262531 L375.473815,63.6078857 L357.336958,63.6078857 C354.377369,63.6078857 352.457238,63.8650286 351.567744,64.3896 C350.68119,64.9097633 350.234238,65.8398857 350.234238,67.1740898 C350.234238,68.3833959 350.631202,69.2767837 351.406018,69.8483755 C352.185244,70.4170286 353.421714,70.7020898 355.106607,70.7020898 L364.397042,70.7020898 C368.631327,70.7020898 371.864381,71.6851102 374.088851,73.651151 C376.325083,75.6245388 377.435113,78.4633959 377.435113,82.1868245 C377.435113,85.7647837 376.445643,88.6785796 374.469643,90.9193959 C372.498054,93.1572735 369.958952,94.2828245 366.846458,94.2828245 L340.405696,94.2828245 L340.405696,86.2011918 Z" id="Fill-32" fill="#2B357C"></path>
            <path d="M394.309036,94.2835592 L383.605702,94.2835592 L383.605702,55.5269878 L394.309036,55.5269878 L394.309036,94.2835592 Z M394.309036,51.158498 L383.605702,51.158498 L383.605702,41.5501714 L394.309036,41.5501714 L394.309036,51.158498 Z" id="Fill-33" fill="#2B357C"></path>
            <path d="M410.290524,74.9396571 C410.290524,78.6234122 411.159435,81.4990041 412.892845,83.5502694 C414.626256,85.6162286 417.044798,86.6403918 420.157292,86.6403918 C423.238911,86.6403918 425.660393,85.6162286 427.421738,83.5502694 C429.180143,81.4990041 430.060815,78.6234122 430.060815,74.9396571 C430.060815,71.255902 429.188964,68.3920653 427.437911,66.3466776 C425.689798,64.3012898 423.260964,63.2785959 420.157292,63.2785959 C417.071262,63.2785959 414.65419,64.3071673 412.910488,66.359902 C411.159435,68.4229224 410.290524,71.2808816 410.290524,74.9396571 M440.761208,74.9396571 C440.761208,81.0170449 438.910179,85.8704327 435.205179,89.4998204 C431.50606,93.1248 426.50578,94.9336163 420.227863,94.9336163 C413.947006,94.9336163 408.934964,93.1189224 405.193208,89.4807184 C401.451452,85.8454531 399.58425,81.002351 399.58425,74.9396571 C399.58425,68.8608 401.451452,63.9971265 405.193208,60.3442286 C408.934964,56.6942694 413.947006,54.8692898 420.227863,54.8692898 C426.461673,54.8692898 431.441369,56.6942694 435.174304,60.3442286 C438.899887,63.9971265 440.761208,68.8608 440.761208,74.9396571" id="Fill-34" fill="#2B357C"></path>
            <path d="M445.826179,55.5255184 L465.10247,55.5255184 C470.929024,55.5255184 475.091268,56.6246204 477.581851,58.8140082 C480.078315,61.0092735 481.329488,64.6416 481.329488,69.7153959 L481.329488,94.2820898 L471.056935,94.2820898 L471.056935,70.9746612 C471.056935,68.0755592 470.609982,66.1962122 469.714607,65.3336816 C468.811881,64.4740898 467.019661,64.0420898 464.314423,64.0420898 L456.095792,64.0420898 L456.095792,94.2820898 L445.826179,94.2820898 L445.826179,55.5255184 Z" id="Fill-35" fill="#2B357C"></path>
            <polygon id="Fill-36" fill="#2B357C" points="0 36.8613551 24.113375 36.8613551 24.113375 12.7369469 0 12.7369469"></polygon>
            <polygon id="Fill-37" fill="#F6921E" points="97.4215048 15.9108245 81.5019137 34.6372898 62.7640232 18.7266122 78.6837613 0"></polygon>
            <polygon id="Fill-38" fill="#2B357C" points="28.6814048 36.8613551 52.7947798 36.8613551 52.7947798 12.7369469 28.6814048 12.7369469"></polygon>
            <polygon id="Fill-39" fill="#2B357C" points="0 65.5349878 24.113375 65.5349878 24.113375 41.4105796 0 41.4105796"></polygon>
            <polygon id="Fill-40" fill="#2B357C" points="28.6814048 65.5349878 52.7947798 65.5349878 52.7947798 41.4105796 28.6814048 41.4105796"></polygon>
            <polygon id="Fill-41" fill="#F6921E" points="57.4495536 65.5349878 81.5629286 65.5349878 81.5629286 41.4105796 57.4495536 41.4105796"></polygon>
            <polygon id="Fill-42" fill="#2B357C" points="0.0352857143 94.2262531 24.1516012 94.2262531 24.1516012 70.1106612 0.0352857143 70.1106612"></polygon>
            <polygon id="Fill-43" fill="#2B357C" points="28.7211012 94.2262531 52.8374167 94.2262531 52.8374167 70.1106612 28.7211012 70.1106612"></polygon>
            <polygon id="Fill-44" fill="#2B357C" points="57.48925 94.2262531 81.5996845 94.2262531 81.5996845 70.1106612 57.48925 70.1106612"></polygon>
            <path d="M487.322179,53.1636245 C488.119048,53.1636245 488.538065,52.7933388 488.538065,52.1115429 C488.538065,51.3797878 488.13669,51.0535837 487.226613,51.0535837 L486.986964,51.0535837 L486.986964,53.1636245 L487.322179,53.1636245 Z M490.142095,57.3366857 L488.87328,57.3366857 L486.986964,54.5845224 L486.986964,57.3366857 L485.950446,57.3366857 L485.950446,50.0470531 L487.192798,50.0470531 C488.763012,50.0470531 489.596637,50.7744 489.596637,52.1277061 C489.596637,53.2165224 488.976196,53.9321143 487.920565,54.112849 L490.142095,57.3366857 Z M483.642173,50.1205224 C482.779143,51.0682776 482.288083,52.3246041 482.288083,53.5794612 C482.288083,56.5344 484.619881,58.883951 487.550065,58.883951 C490.437613,58.883951 492.806167,56.5182367 492.806167,53.6161959 C492.806167,50.7744 490.437613,48.3675429 487.629458,48.3675429 C486.026899,48.3675429 484.690452,48.9523592 483.642173,50.1205224 L483.642173,50.1205224 Z M493.829452,53.6161959 C493.829452,57.0971755 491.024238,59.9081143 487.550065,59.9081143 C484.053839,59.9081143 481.266268,57.0971755 481.266268,53.5794612 C481.266268,50.1205224 484.109708,47.3536653 487.648571,47.3536653 C491.024238,47.3536653 493.829452,50.2101551 493.829452,53.6161959 L493.829452,53.6161959 Z" id="Fill-45" fill="#2B357C"></path>
            <path d="M137.352583,50.8333224 L109.79444,50.8333224 C106.82897,50.8333224 104.658899,51.3828735 103.270994,52.4849143 C101.88897,53.5884245 101.197958,55.3384653 101.197958,57.7365061 C101.197958,59.6584653 101.784583,61.1028735 102.963714,62.0594449 C104.147256,63.0160163 105.905661,63.4979755 108.240399,63.4979755 L123.013351,63.4979755 C129.095726,63.4979755 133.429988,64.6470367 136.002905,66.948098 C138.577292,69.2491592 139.86375,73.0872 139.86375,78.4534041 C139.86375,83.8974857 138.375869,87.8942204 135.407458,90.4480163 C132.434637,93.0032816 127.76222,94.2831184 121.388738,94.2831184 L91.6943393,94.2831184 L91.6943393,84.8937306 L119.617101,84.8937306 C122.792815,84.8937306 125.033458,84.4294041 126.336089,83.5051592 C127.63578,82.5794449 128.287095,81.0468735 128.287095,78.9030367 C128.287095,76.6930776 127.691649,75.1193633 126.499286,74.186302 C125.308393,73.2488327 123.266232,72.7756898 120.377214,72.7756898 L107.19506,72.7756898 C101.106804,72.7756898 96.6534524,71.5605061 93.8423571,69.1257306 C91.025381,66.6953633 89.6183631,62.8632 89.6183631,57.6116082 C89.6183631,52.0044245 91.0974226,47.913649 94.0555417,45.3245878 C97.0166012,42.7399347 101.721363,41.4454041 108.166887,41.4454041 L137.352583,41.4454041 L137.352583,50.8333224 Z" id="Fill-72" fill="#2B357C"></path>
            <path d="M162.661262,85.7649306 L170.86078,85.7649306 L170.86078,55.5249306 L181.127452,55.5249306 L181.127452,93.2411755 C181.127452,98.3796245 179.932149,102.183869 177.535661,104.658318 C175.136232,107.12689 171.466518,108.367053 166.532399,108.367053 L146.501728,108.367053 L146.501728,100.504359 L164.776935,100.504359 C166.732351,100.504359 168.233464,100.026808 169.290565,99.0746449 C170.337375,98.1195429 170.86078,96.7412571 170.86078,94.9250939 L170.86078,94.2829714 L161.837929,94.2829714 C156.04078,94.2829714 151.90794,93.1441959 149.443821,90.859298 C146.972204,88.5773388 145.735734,84.7657469 145.735734,79.4392163 L145.735734,55.5249306 L155.895226,55.5249306 L155.895226,78.6501551 C155.895226,81.5742367 156.334827,83.4903184 157.203738,84.4042776 C158.074119,85.3094204 159.892804,85.7649306 162.661262,85.7649306" id="Fill-73" fill="#2B357C"></path>
            <path d="M189.185827,55.5255184 L208.459179,55.5255184 C214.287202,55.5255184 218.447976,56.6246204 220.93856,58.8140082 C223.436494,61.0092735 224.686196,64.6416 224.686196,69.7153959 L224.686196,94.2820898 L214.419524,94.2820898 L214.419524,70.9746612 C214.419524,68.0755592 213.96522,66.1962122 213.068375,65.3336816 C212.168589,64.4740898 210.374899,64.0420898 207.669661,64.0420898 L199.45397,64.0420898 L199.45397,94.2820898 L189.185827,94.2820898 L189.185827,55.5255184 Z" id="Fill-74" fill="#2B357C"></path>
            <path d="M253.489631,85.9844571 L264.389976,85.9844571 L264.389976,94.2820898 L250.466821,94.2820898 C246.932369,94.2820898 244.036,93.9118041 241.770363,93.1888653 C239.492964,92.4571102 237.525786,91.2757224 235.845304,89.6491102 C234.039851,87.8829061 232.632833,85.7199673 231.608077,83.164702 C230.590673,80.6123755 230.08197,77.9189878 230.08197,75.0595592 C230.08197,72.0708245 230.587732,69.276049 231.596315,66.676702 C232.599018,64.084702 234.016327,61.9070694 235.845304,60.1599673 C237.544899,58.5318857 239.544423,57.3519673 241.842405,56.6202122 C244.133036,55.8899265 247.005881,55.5255184 250.466821,55.5255184 L264.389976,55.5255184 L264.389976,63.9304163 L253.489631,63.9304163 C248.66431,63.9304163 245.344512,64.7650286 243.522887,66.4254367 C241.702732,68.0887837 240.785304,70.9746612 240.785304,75.0860082 C240.785304,77.4531918 241.160214,79.4177633 241.901214,80.9650286 C242.646625,82.5122939 243.799292,83.767151 245.353333,84.7281306 C246.122268,85.1865796 247.014702,85.5069061 248.033577,85.6993959 C249.056863,85.8816 250.869667,85.9844571 253.489631,85.9844571" id="Fill-75" fill="#2B357C"></path>
            <path d="M273.558381,63.2778612 L266.241006,63.2778612 L266.241006,55.5253714 L273.558381,55.5253714 L273.558381,51.4874939 C273.558381,47.5421878 274.286149,44.8811265 275.754917,43.5057796 C277.208982,42.131902 280.014196,41.445698 284.164679,41.445698 L293.884423,41.445698 L293.884423,48.8631673 L289.020875,48.8631673 C287.265411,48.8631673 286.017179,49.142351 285.280589,49.6860245 C284.527827,50.2311673 284.164679,51.1363102 284.164679,52.3970449 L284.164679,55.5253714 L293.884423,55.5253714 L293.884423,63.2778612 L284.164679,63.2778612 L284.164679,94.2834122 L273.558381,94.2834122 L273.558381,63.2778612 Z" id="Fill-76" fill="#2B357C"></path>
            <path d="M332.89131,94.2828245 L313.56356,94.2828245 C307.901673,94.2828245 303.805589,93.1572735 301.287071,90.9135184 C298.765613,88.6653551 297.507089,85.0653551 297.507089,80.112049 L297.507089,55.5262531 L307.662024,55.5262531 L307.662024,79.2965388 C307.662024,81.8841306 308.119268,83.6047837 309.013173,84.4673143 C309.915899,85.3327837 311.709589,85.7647837 314.395714,85.7647837 L322.627577,85.7647837 L322.627577,55.5262531 L332.89131,55.5262531 L332.89131,94.2828245 Z" id="Fill-77" fill="#2B357C"></path>
            <path d="M340.405696,86.2011918 L361.97997,86.2011918 C363.903042,86.2011918 365.298298,85.9058449 366.17897,85.3092735 C367.058173,84.7141714 367.502185,83.7649469 367.502185,82.4483755 C367.502185,81.1450286 367.055232,80.1825796 366.162798,79.5786612 C365.274774,78.9732735 363.882458,78.6691102 361.97997,78.6691102 L353.118845,78.6691102 C347.884798,78.6691102 344.354756,77.8682939 342.514018,76.2563755 C340.67181,74.6503347 339.75144,71.7953143 339.75144,67.6927837 C339.75144,63.5182531 340.86294,60.448702 343.08447,58.4782531 C345.30747,56.5092735 348.753708,55.5262531 353.408482,55.5262531 L375.473815,55.5262531 L375.473815,63.6078857 L357.336958,63.6078857 C354.377369,63.6078857 352.457238,63.8650286 351.567744,64.3896 C350.68119,64.9097633 350.234238,65.8398857 350.234238,67.1740898 C350.234238,68.3833959 350.631202,69.2767837 351.406018,69.8483755 C352.185244,70.4170286 353.421714,70.7020898 355.106607,70.7020898 L364.397042,70.7020898 C368.631327,70.7020898 371.864381,71.6851102 374.088851,73.651151 C376.325083,75.6245388 377.435113,78.4633959 377.435113,82.1868245 C377.435113,85.7647837 376.445643,88.6785796 374.469643,90.9193959 C372.498054,93.1572735 369.958952,94.2828245 366.846458,94.2828245 L340.405696,94.2828245 L340.405696,86.2011918 Z" id="Fill-78" fill="#2B357C"></path>
            <path d="M394.309036,94.2835592 L383.605702,94.2835592 L383.605702,55.5269878 L394.309036,55.5269878 L394.309036,94.2835592 Z M394.309036,51.158498 L383.605702,51.158498 L383.605702,41.5501714 L394.309036,41.5501714 L394.309036,51.158498 Z" id="Fill-79" fill="#2B357C"></path>
            <path d="M410.290524,74.9396571 C410.290524,78.6234122 411.159435,81.4990041 412.892845,83.5502694 C414.626256,85.6162286 417.044798,86.6403918 420.157292,86.6403918 C423.238911,86.6403918 425.660393,85.6162286 427.421738,83.5502694 C429.180143,81.4990041 430.060815,78.6234122 430.060815,74.9396571 C430.060815,71.255902 429.188964,68.3920653 427.437911,66.3466776 C425.689798,64.3012898 423.260964,63.2785959 420.157292,63.2785959 C417.071262,63.2785959 414.65419,64.3071673 412.910488,66.359902 C411.159435,68.4229224 410.290524,71.2808816 410.290524,74.9396571 M440.761208,74.9396571 C440.761208,81.0170449 438.910179,85.8704327 435.205179,89.4998204 C431.50606,93.1248 426.50578,94.9336163 420.227863,94.9336163 C413.947006,94.9336163 408.934964,93.1189224 405.193208,89.4807184 C401.451452,85.8454531 399.58425,81.002351 399.58425,74.9396571 C399.58425,68.8608 401.451452,63.9971265 405.193208,60.3442286 C408.934964,56.6942694 413.947006,54.8692898 420.227863,54.8692898 C426.461673,54.8692898 431.441369,56.6942694 435.174304,60.3442286 C438.899887,63.9971265 440.761208,68.8608 440.761208,74.9396571" id="Fill-80" fill="#2B357C"></path>
            <path d="M445.826179,55.5255184 L465.10247,55.5255184 C470.929024,55.5255184 475.091268,56.6246204 477.581851,58.8140082 C480.078315,61.0092735 481.329488,64.6416 481.329488,69.7153959 L481.329488,94.2820898 L471.056935,94.2820898 L471.056935,70.9746612 C471.056935,68.0755592 470.609982,66.1962122 469.714607,65.3336816 C468.811881,64.4740898 467.019661,64.0420898 464.314423,64.0420898 L456.095792,64.0420898 L456.095792,94.2820898 L445.826179,94.2820898 L445.826179,55.5255184 Z" id="Fill-81" fill="#2B357C"></path>
            <polygon id="Fill-82" fill="#2B357C" points="0 36.8613551 24.113375 36.8613551 24.113375 12.7369469 0 12.7369469"></polygon>
            <polygon id="Fill-83" fill="#F6921E" points="97.4215048 15.9108245 81.5019137 34.6372898 62.7640232 18.7266122 78.6837613 0"></polygon>
            <polygon id="Fill-84" fill="#2B357C" points="28.6814048 36.8613551 52.7947798 36.8613551 52.7947798 12.7369469 28.6814048 12.7369469"></polygon>
            <polygon id="Fill-85" fill="#2B357C" points="0 65.5349878 24.113375 65.5349878 24.113375 41.4105796 0 41.4105796"></polygon>
            <polygon id="Fill-86" fill="#2B357C" points="28.6814048 65.5349878 52.7947798 65.5349878 52.7947798 41.4105796 28.6814048 41.4105796"></polygon>
            <polygon id="Fill-87" fill="#F6921E" points="57.4495536 65.5349878 81.5629286 65.5349878 81.5629286 41.4105796 57.4495536 41.4105796"></polygon>
            <polygon id="Fill-88" fill="#2B357C" points="0.0352857143 94.2262531 24.1516012 94.2262531 24.1516012 70.1106612 0.0352857143 70.1106612"></polygon>
            <polygon id="Fill-89" fill="#2B357C" points="28.7211012 94.2262531 52.8374167 94.2262531 52.8374167 70.1106612 28.7211012 70.1106612"></polygon>
            <polygon id="Fill-90" fill="#2B357C" points="57.48925 94.2262531 81.5996845 94.2262531 81.5996845 70.1106612 57.48925 70.1106612"></polygon>
            <path d="M487.322179,53.1636245 C488.119048,53.1636245 488.538065,52.7933388 488.538065,52.1115429 C488.538065,51.3797878 488.13669,51.0535837 487.226613,51.0535837 L486.986964,51.0535837 L486.986964,53.1636245 L487.322179,53.1636245 Z M490.142095,57.3366857 L488.87328,57.3366857 L486.986964,54.5845224 L486.986964,57.3366857 L485.950446,57.3366857 L485.950446,50.0470531 L487.192798,50.0470531 C488.763012,50.0470531 489.596637,50.7744 489.596637,52.1277061 C489.596637,53.2165224 488.976196,53.9321143 487.920565,54.112849 L490.142095,57.3366857 Z M483.642173,50.1205224 C482.779143,51.0682776 482.288083,52.3246041 482.288083,53.5794612 C482.288083,56.5344 484.619881,58.883951 487.550065,58.883951 C490.437613,58.883951 492.806167,56.5182367 492.806167,53.6161959 C492.806167,50.7744 490.437613,48.3675429 487.629458,48.3675429 C486.026899,48.3675429 484.690452,48.9523592 483.642173,50.1205224 L483.642173,50.1205224 Z M493.829452,53.6161959 C493.829452,57.0971755 491.024238,59.9081143 487.550065,59.9081143 C484.053839,59.9081143 481.266268,57.0971755 481.266268,53.5794612 C481.266268,50.1205224 484.109708,47.3536653 487.648571,47.3536653 C491.024238,47.3536653 493.829452,50.2101551 493.829452,53.6161959 L493.829452,53.6161959 Z" id="Fill-91" fill="#2B357C"></path>
        </g>
    </g>
</svg>