<?xml version="1.0" encoding="utf-8"?>
<svg xmlns="http://www.w3.org/2000/svg" height="256" width="256" viewBox="0 0 256 256">
  <g>
    <path id="path1" transform="rotate(0,128,128) translate(1.4210854715202E-14,55.9934676041339) scale(8.00024939360814,8.00024939360814)  " fill="#FFFFFF" d="M6.5566454,7.6357889C5.7636586,7.6708243,5.0406776,8.2737465,4.8566747,8.4618621L4.8266764,8.504832C4.3806844,9.138761 3.7376891,10.862931 3.3536921,11.893844 3.1117068,12.545961 2.9936972,12.855906 2.8946996,13.051957 2.4467085,14.371941 2.2237201,15.350972 2.111722,16.001015L6.876648,16.001015 8.6656213,10.448856C8.518621,10.055901 8.3816143,9.687849 8.2596221,9.3567846 8.0776182,8.8667808 7.8916316,8.3617618 7.7976237,8.1288452 7.40763,7.7798362 7.0016461,7.6217507 6.5566454,7.6357889z M25.279486,7.6355867C24.900984,7.6565206 24.533499,7.8271701 24.184378,8.1448369 24.086373,8.3548036 23.905375,8.782794 23.665389,9.3438447 23.551392,9.6108203 23.426394,9.9037971 23.292393,10.213865L25.126364,16.001015 29.887293,16.001015C29.776288,15.351949 29.551299,14.372917 29.1043,13.051957 29.005303,12.855906 28.887309,12.545961 28.645308,11.894942 28.261311,10.862931 27.619322,9.138761 27.172324,8.504832L27.141333,8.4607637C26.958338,8.2737465 26.235341,7.6708243 25.442355,7.6357889 25.387854,7.6326611 25.333558,7.6325963 25.279486,7.6355867z M23.078,1.9999964C22.027998,1.9999962 21.172999,2.8719947 21.172999,3.9439929 21.172999,5.0169907 22.027998,5.889989 23.078,5.889989 24.129,5.889989 24.983,5.0169907 24.983,3.9439929 24.983,2.8719947 24.129,1.9999962 23.078,1.9999964z M8.9209981,1.9999964C7.870998,1.9999962 7.0159979,2.8719947 7.0159979,3.9439929 7.0159979,5.0169907 7.870998,5.889989 8.9209981,5.889989 9.9719987,5.889989 10.825999,5.0169907 10.825999,3.9439929 10.825999,2.8719947 9.9719987,1.9999962 8.9209981,1.9999964z M8.9209981,0C11.073999,0 12.826,1.7699966 12.826,3.9439929 12.826,5.7799892 11.578725,7.3269492 9.8956933,7.7655499L9.808374,7.7859657 9.830093,7.8435233C9.910872,8.0582595 10.009909,8.3259025 10.134593,8.6627955 10.725587,10.256835 11.654574,12.768868 12.500554,14.551023L14.859526,8.5878425C15.03152,8.153748 15.448506,7.8638229 15.924496,7.8827443 16.387501,7.8937309 16.801497,8.19684 16.951489,8.6367941L19.027461,14.656006C20.013438,12.799875 21.165429,10.104853 21.826413,8.5578122 21.962693,8.2388639 22.070979,7.9855208 22.15885,7.782449L22.160391,7.7788968 22.103304,7.7655499C20.420271,7.3269492 19.172997,5.7799892 19.172997,3.9439929 19.172997,1.7699966 20.924998,0 23.078,0 25.231,0 26.983,1.7699966 26.983,3.9439929 26.983,4.5559915 26.844414,5.1358752 26.597298,5.6532982L26.516886,5.8117193 26.630728,5.8482218C26.726443,5.8807227 26.822331,5.9169071 26.91833,5.956787 26.934336,5.9647216 28.290318,6.5706957 28.799298,7.3578273L28.807307,7.3528222C29.357302,8.1338501 29.931283,9.6158254 30.519272,11.195826 30.687268,11.646888 30.815272,12.000902 30.885279,12.141897L30.96827,12.319881C32.012261,15.372945,32.003258,16.869081,31.998253,17.028997L31.971261,18.001071 23.662383,18.001071 22.070412,12.978957C21.475421,14.27599 20.845425,15.563014 20.283438,16.504081 19.944439,17.074043 19.303458,17.367996 18.653458,17.247998 18.027476,17.136056 17.542483,16.673031 17.394475,16.059L15.839507,11.54691 14.067531,16.027017C13.891538,16.632991 13.387549,17.070992 12.758561,17.156076 12.104563,17.244092 11.478567,16.924991 11.163584,16.341967 10.730577,15.539942 10.262597,14.489985 9.8155981,13.400966L8.3336263,18.001071 0.027747288,18.001071 0.00074722578,17.028997C-0.0042498225,16.869081,-0.013252368,15.372945,1.0307378,12.319881L1.1597335,12.066944C1.1837277,12.000902 1.3117316,11.646888 1.4797284,11.194849 2.0687237,9.6158254 2.641713,8.1338501 3.1917074,7.3528222L3.1986957,7.3578273C3.7086976,6.5706957 5.0646797,5.963745 5.0816775,5.956787 5.1776758,5.9170289 5.2735606,5.8809552 5.3692651,5.8485522L5.48244,5.8123671 5.4016991,5.6532982C5.154583,5.1358752 5.015997,4.5559915 5.015997,3.9439929 5.015997,1.7699966 6.7679978,0 8.9209981,0z" />
  </g>
</svg>

