<?xml version="1.0" encoding="utf-8"?>
<!-- Generator: Adobe Illustrator 22.1.0, SVG Export Plug-In . SVG Version: 6.00 Build 0)  -->
<svg version="1.1" id="Layer_1" xmlns="http://www.w3.org/2000/svg" xmlns:xlink="http://www.w3.org/1999/xlink" x="0px" y="0px"
	 viewBox="0 0 25 25" style="enable-background:new 0 0 25 25;" xml:space="preserve">
<style type="text/css">
	.st0{fill:#FFFFFF;}
	.st1{fill:none;stroke:#000000;stroke-linecap:round;stroke-linejoin:round;stroke-miterlimit:10;}
	.st2{fill:none;stroke:#000000;stroke-miterlimit:10;}
	.st3{fill:none;}
	.st4{fill:none;stroke:#FFFFFF;stroke-miterlimit:10;}
	.st5{fill:none;stroke:#000000;stroke-linejoin:round;stroke-miterlimit:10;}
	.st6{fill:#D5EDED;}
	.st7{fill:none;stroke:#000000;stroke-width:2;stroke-linecap:round;stroke-miterlimit:10;}
	.st8{fill:none;stroke:#000000;stroke-width:2;stroke-miterlimit:10;}
	.st9{fill:none;stroke:#D5EDED;stroke-miterlimit:10;}
	.st10{fill:none;stroke:#000000;stroke-width:2;stroke-linecap:round;stroke-linejoin:round;stroke-miterlimit:10;}
	.st11{fill:none;stroke:#FCFBFA;stroke-linecap:round;stroke-linejoin:round;stroke-miterlimit:10;}
</style>
<path d="M20,5c-2.2,0-4,1.8-4,4c0,2.2,1.8,4,4,4s4-1.8,4-4C24,6.8,22.2,5,20,5z M21.4,10.4c-0.1,0.2-0.2,0.3-0.4,0.4
	c-0.1,0.1-0.3,0.1-0.4,0.2v1h-1.1v-0.9c-0.4,0-0.7-0.1-1-0.2V10c0.4,0.3,0.8,0.4,1.2,0.4c0.6,0,0.9-0.2,0.9-0.5c0-0.1,0-0.2-0.1-0.2
	s-0.1-0.1-0.2-0.2S20.1,9.4,20,9.4s-0.2-0.1-0.4-0.1c-0.2-0.1-0.3-0.1-0.5-0.2C19,9,18.9,8.9,18.8,8.8c-0.1-0.1-0.2-0.2-0.2-0.3
	s-0.1-0.3-0.1-0.4c0-0.2,0-0.4,0.1-0.5s0.2-0.3,0.4-0.4c0.1-0.1,0.3-0.1,0.4-0.2V6h1.1v0.9c0.3,0,0.5,0.1,0.7,0.1v0.8
	c-0.3-0.2-0.6-0.3-1-0.3c-0.1,0-0.2,0-0.3,0s-0.2,0.1-0.2,0.1c-0.1,0-0.1,0.1-0.2,0.2S19.5,8,19.5,8.1c0,0.1,0,0.2,0.1,0.2
	s0.1,0.1,0.2,0.2s0.2,0.1,0.3,0.1s0.2,0.1,0.4,0.1c0.2,0.1,0.3,0.1,0.5,0.2s0.3,0.2,0.4,0.2s0.2,0.2,0.2,0.3s0.1,0.3,0.1,0.4
	C21.5,10.1,21.5,10.3,21.4,10.4z M11,1C9.3,1,8,2.3,8,4s1.3,3,3,3s3-1.3,3-3S12.7,1,11,1z M11.9,5.2c-0.1,0.1-0.2,0.2-0.3,0.3
	c-0.1,0.1-0.2,0.1-0.3,0.1v0.9h-0.7V5.7c-0.2,0-0.5-0.1-0.6-0.2V4.9c0.2,0.2,0.5,0.3,0.8,0.3c0.4,0,0.6-0.1,0.6-0.4
	c0-0.1,0-0.1,0-0.2c0-0.1-0.1-0.1-0.1-0.1S11.1,4.4,11,4.3c-0.1,0-0.2-0.1-0.3-0.1c-0.1-0.1-0.2-0.1-0.3-0.2
	c-0.1-0.1-0.2-0.1-0.2-0.2c-0.1-0.1-0.1-0.2-0.1-0.3s0-0.2,0-0.3c0-0.2,0-0.3,0.1-0.4s0.2-0.2,0.3-0.3c0.1-0.1,0.2-0.1,0.3-0.1V1.5
	h0.7v0.8c0.2,0,0.3,0.1,0.5,0.1v0.7c-0.2-0.2-0.4-0.2-0.7-0.2c-0.1,0-0.2,0-0.2,0c-0.1,0-0.1,0-0.2,0.1c0,0-0.1,0.1-0.1,0.1
	s0,0.1,0,0.2c0,0.1,0,0.1,0,0.2c0,0,0.1,0.1,0.1,0.1c0.1,0,0.1,0.1,0.2,0.1c0.1,0,0.2,0.1,0.2,0.1c0.1,0.1,0.2,0.1,0.3,0.2
	C11.6,4,11.7,4,11.8,4.1c0.1,0.1,0.1,0.2,0.2,0.3C12,4.5,12,4.6,12,4.7C12,4.9,12,5.1,11.9,5.2z M11.1,19.1
	c3.6,0.9,7.4,0.1,10.4-2.2l0,0c0.6-0.6,1.4-0.9,2.3-0.9c2.2,0.1,0.7,2.4,0.7,2.4c-1.3,1.7-4.3,3.4-6.3,4.4c-1.4,0.7-3,1.1-4.6,1.1
	c-1.3,0-2.7,0-3,0l-5-0.6C5.3,23.2,5,22.9,5,22.5v-7c0-0.2,0.1-0.5,0.3-0.6c1.5-1.3,5-1.9,6.4-2.1c0.7-0.1,1.4,0,2,0.4
	c0.6,0.4,0.9,1,1,1.5c0.2,0.8-0.2,1.5-0.8,1.9l-3.7,2.3L11.1,19.1z M4,24H0v-9h4V24z"/>
</svg>
