<?xml version="1.0" encoding="utf-8"?>
<!-- Generator: Adobe Illustrator 22.1.0, SVG Export Plug-In . SVG Version: 6.00 Build 0)  -->
<svg version="1.1" id="Layer_1" xmlns="http://www.w3.org/2000/svg" xmlns:xlink="http://www.w3.org/1999/xlink" x="0px" y="0px"
	 viewBox="0 0 25 25" style="enable-background:new 0 0 25 25;" xml:space="preserve">
<style type="text/css">
	.st0{fill:#FFFFFF;}
	.st1{fill:none;stroke:#000000;stroke-linecap:round;stroke-linejoin:round;stroke-miterlimit:10;}
	.st2{fill:none;stroke:#000000;stroke-miterlimit:10;}
	.st3{fill:none;}
	.st4{fill:none;stroke:#FFFFFF;stroke-miterlimit:10;}
	.st5{fill:none;stroke:#000000;stroke-linejoin:round;stroke-miterlimit:10;}
	.st6{fill:#D5EDED;}
	.st7{fill:none;stroke:#000000;stroke-width:2;stroke-linecap:round;stroke-miterlimit:10;}
	.st8{fill:none;stroke:#000000;stroke-width:2;stroke-miterlimit:10;}
	.st9{fill:none;stroke:#D5EDED;stroke-miterlimit:10;}
	.st10{fill:none;stroke:#000000;stroke-width:2;stroke-linecap:round;stroke-linejoin:round;stroke-miterlimit:10;}
	.st11{fill:none;stroke:#FCFBFA;stroke-linecap:round;stroke-linejoin:round;stroke-miterlimit:10;}
</style>
<g>
	<path d="M17,19c-0.6,0-1,0.4-1,1v1.7c0,0.2-0.1,0.3-0.2,0.3H8V6h7.8C15.9,6,16,6.1,16,6.3V8c0,0.6,0.4,1,1,1s1-0.4,1-1V6.3
		C18,5,17,4,15.8,4H4.2C3,4,2,5,2,6.3v15.3C2,23,3,24,4.2,24h11.5c1.2,0,2.2-1,2.2-2.3V20C18,19.4,17.6,19,17,19z"/>
	<path d="M20.3,13H15v-2c0-0.4-0.5-0.7-0.8-0.4l-3.3,2.6c0,0,0,0,0,0l-0.4,0.3c-0.3,0.2-0.3,0.6,0,0.8l0.4,0.3c0,0,0,0,0,0l3.3,2.6
		c0.3,0.3,0.8,0,0.8-0.4v-2h5.3c0.6,0,1-0.4,1-1S20.9,13,20.3,13z"/>
</g>
</svg>
