<?xml version="1.0" encoding="utf-8"?>
<!-- Generator: Adobe Illustrator 22.1.0, SVG Export Plug-In . SVG Version: 6.00 Build 0)  -->
<svg version="1.1" id="Layer_1" xmlns="http://www.w3.org/2000/svg" xmlns:xlink="http://www.w3.org/1999/xlink" x="0px" y="0px"
	 viewBox="0 0 25 25" style="enable-background:new 0 0 25 25;" xml:space="preserve">
<style type="text/css">
	.st0{fill:#FFFFFF;}
	.st1{fill:none;stroke:#000000;stroke-linecap:round;stroke-linejoin:round;stroke-miterlimit:10;}
	.st2{fill:none;stroke:#000000;stroke-miterlimit:10;}
	.st3{fill:none;}
	.st4{fill:none;stroke:#FFFFFF;stroke-miterlimit:10;}
	.st5{fill:none;stroke:#000000;stroke-linejoin:round;stroke-miterlimit:10;}
	.st6{fill:#D5EDED;}
	.st7{fill:none;stroke:#000000;stroke-width:2;stroke-linecap:round;stroke-miterlimit:10;}
	.st8{fill:none;stroke:#000000;stroke-width:2;stroke-miterlimit:10;}
	.st9{fill:none;stroke:#D5EDED;stroke-miterlimit:10;}
	.st10{fill:none;stroke:#000000;stroke-width:2;stroke-linecap:round;stroke-linejoin:round;stroke-miterlimit:10;}
	.st11{fill:none;stroke:#FCFBFA;stroke-linecap:round;stroke-linejoin:round;stroke-miterlimit:10;}
</style>
<g>
	<path d="M1.5,17h13.9c0.3,0,0.6-0.3,0.6-0.6V5.6C16,5.3,15.7,5,15.4,5H1.6C1.3,5,1,5.3,1,5.6v10.9C1,16.8,1.2,17,1.5,17z"/>
	<path d="M24.8,9.9L22,7.2C21.9,7.1,21.7,7,21.5,7h-3.7C17.3,7,17,7.3,17,7.8V18H1.8C1.3,18,1,18.3,1,18.8v1.5C1,20.7,1.3,21,1.8,21
		h3.4C5.1,21.3,5,21.6,5,22c0,1.7,1.3,3,3,3s3-1.3,3-3c0-0.4-0.1-0.7-0.2-1h6.4c-0.1,0.3-0.2,0.6-0.2,1c0,1.7,1.3,3,3,3s3-1.3,3-3
		c0-0.4-0.1-0.7-0.2-1H25v-3v-7.5C25,10.3,24.9,10.1,24.8,9.9z M9,22c0,0.6-0.4,1-1,1s-1-0.4-1-1s0.4-1,1-1S9,21.4,9,22z M21,22
		c0,0.6-0.4,1-1,1s-1-0.4-1-1s0.4-1,1-1S21,21.4,21,22z M19,9h2l2,2v3h-4V9z"/>
</g>
</svg>
