<?xml version="1.0" encoding="UTF-8"?>
<svg width="32px" height="32px" viewBox="0 0 32 32" version="1.1" xmlns="http://www.w3.org/2000/svg" xmlns:xlink="http://www.w3.org/1999/xlink">
    <!-- Generator: Sketch 49.3 (51167) - http://www.bohemiancoding.com/sketch -->
    <title>Aeroplane Copy</title>
    <desc>Created with Sketch.</desc>
    <defs></defs>
    <g id="Page-1" stroke="none" stroke-width="1" fill="none" fill-rule="evenodd">
        <g id="1366-copy-8" transform="translate(-122.000000, -383.000000)" fill="#585C60" fill-rule="nonzero">
            <g id="Aeroplane-Copy" transform="translate(122.000000, 383.000000)">
                <path d="M31.1499994,0 L30.5500084,2.7000046 C30.5500084,2.8000031 30.5500084,2.9000015 30.4500024,3.0999985 L30.4500024,3.2000046 C30.3500124,3.4000015 30.1499994,3.7000046 29.8500124,4 L22.5500074,11.800003 L26.7500054,29 L23.9500004,32 L16.9500004,17.599998 L11.4500004,23.5 L11.9500004,28 L9.85000148,30.300003 L7.35000098,25.099998 L2.55000498,22.400002 L4.75000248,20.099998 L9.05000598,20.700005 L14.5500064,14.800003 L0.850000381,7.2000046 L3.55000508,4.3000031 L19.9500004,8.9000015 L27.1499994,1.2000046 C27.4500024,0.90000153 27.7500054,0.70000458 28.0500084,0.59999847 L28.1499994,0.59999847 L28.4500024,0.59999847" id="path1"></path>
            </g>
        </g>
    </g>
</svg>