<?xml version="1.0" encoding="utf-8"?>
<svg xmlns="http://www.w3.org/2000/svg" height="256" width="256" viewBox="0 0 256 256">
  <g>
    <path id="path1" transform="rotate(0,128,128) translate(28.0001449584961,0) scale(8,8)  " fill="#FFFFFF" d="M15.678102,8.8860686L12.782103,11.137785 14.312148,16.328002 13.658106,22.161011C13.617091,22.506012,13.462064,22.825012,13.221101,23.06601L7.6472161,28.687989 8.730207,29.803987 15.460078,22.938995 15.80602,18.473998C15.839101,18.049987 16.105087,17.688994 16.500101,17.532012 16.894015,17.374999 17.337001,17.454009 17.654989,17.739989L20.909942,20.692992C21.227929,20.981994,21.411032,21.393004,21.411032,21.820006L21.411032,28.639009 22.999996,28.639009 22.999996,20.549987 17.907061,15.688994z M10.995996,2C9.8929958,2 8.9959958,2.8969998 8.9959955,3.9999995 8.9959958,5.1029999 9.8929958,5.9999999 10.995996,5.9999996 12.098996,5.9999999 12.995996,5.1029999 12.995996,3.9999995 12.995996,2.8969998 12.098996,2 10.995996,2z M23.754097,0.3634572C24.042299,0.37210512 24.324253,0.50446701 24.513815,0.74915218 24.853813,1.1851478 24.774815,1.8131413 24.338814,2.1521378L17.35577,7.5816381 19.651051,14.588988 24.527925,19.243011C24.827969,19.527007,24.999964,19.928985,24.999964,20.342986L24.999964,29.112C24.999964,29.954011,24.30991,30.639009,23.461903,30.639009L20.949003,30.639009C20.100994,30.639009,19.411064,29.954011,19.411064,29.112L19.411064,22.033997 17.659994,20.445006 17.441004,23.268004C17.41305,23.623992,17.260098,23.958007,17.012055,24.213012L9.8312025,31.537995C9.5441589,31.830995,9.1421876,32.000001,8.7291694,32.000001L8.7272167,32.000001C8.3132217,32.000001,7.910213,31.829988,7.6221926,31.53299L5.8842447,29.743989C5.3022231,29.143006,5.3072279,28.208009,5.8952306,27.614015L11.689144,21.770995 12.2791,16.505004 11.086161,12.456424 8.4128301,14.53501C8.1218305,14.794007 7.7528307,14.923006 7.3838309,14.923006 6.9918314,14.923006 6.6008319,14.778008 6.301832,14.48701L6.2318323,14.411011 4.0496471,11.789711 4.0358212,11.793553C3.7779529,11.858464 3.5076098,11.892986 3.2290151,11.892986 1.4460068,11.892986 0,10.478991 0,8.7339976 0,6.9890044 1.4460068,5.5750097 3.2290151,5.5750095 5.0120231,5.5750097 6.4570297,6.9890044 6.4570296,8.7339976 6.4570297,9.4429014 6.2185472,10.097177 5.8158038,10.624213L5.7499847,10.70618 7.4508308,12.750029 23.110815,0.57315397C23.302002,0.42484283,23.52994,0.35673046,23.754097,0.3634572z M10.995996,0C13.201996,0 14.995996,1.7939997 14.995996,3.9999995 14.995996,6.2059999 13.201996,7.9999998 10.995996,7.9999998 8.7899959,7.9999998 6.9959959,6.2059999 6.9959959,3.9999995 6.9959959,1.7939997 8.7899959,0 10.995996,0z" />
  </g>
</svg>

