<?xml version="1.0" encoding="utf-8"?>
<svg xmlns="http://www.w3.org/2000/svg" height="256" width="256" viewBox="0 0 256 256">
  <g>
    <path id="path1" transform="rotate(0,128,128) translate(59,59.000016450882) scale(4.3125,4.3125)  " fill="#FFFFFF" d="M12.939872,9.9999934L12.896187,18.216992 9.0520658,30.045993 10.998127,29.999993 14.957253,18.549993 14.958276,18.54742 14.962541,18.533574 14.990276,18.466949 14.995104,18.454808 14.996239,18.452624 14.999416,18.444993 15.030515,18.386691 15.04148,18.3656 15.043025,18.363238 15.044566,18.360351 15.070353,18.321483 15.095739,18.282693C15.250375,18.070302,15.482279,17.928613,15.736824,17.885501L15.76159,17.882548 15.7636,17.88215 15.770179,17.881524 15.833233,17.874009 15.853617,17.873609 15.862247,17.87279 15.887658,17.872939 15.931125,17.872087 15.945966,17.873284 15.960166,17.873368 16.003057,17.877894 16.029859,17.880057 16.038332,17.881616 16.056712,17.883555 16.122017,17.897006 16.128795,17.898252 16.130536,17.898759 16.151246,17.903024C16.275664,17.935025,16.393003,17.990899,16.496421,18.067149L16.565131,18.123105 16.569897,18.126962 16.571266,18.128102 16.628607,18.184846 16.638958,18.195052 16.64025,18.196368 16.67758,18.241328 16.700757,18.269099 16.701312,18.26991 16.702729,18.271617 16.724834,18.304339 16.754979,18.348458 16.756481,18.351184 16.758062,18.353524 16.770607,18.376805 16.801311,18.432492 16.804153,18.439059 16.805608,18.441758 16.812251,18.457761 16.839439,18.520558 16.843417,18.532842 16.844725,18.535993 20.918854,29.940993C20.928854,29.977994,20.963856,29.999993,21.022858,29.999993L22.922917,29.999993 22.931918,29.999993 18.999793,18.066993 18.999793,9.9999934z M28,6.9999934C27.310625,6.9999934,26.701719,7.3503838,26.341983,7.882464L26.270514,7.9999934 27,7.9999934C27.553,7.9999934 28,8.4469929 28,8.9999934 28,9.5529938 27.553,9.9999934 27,9.9999934L26.270514,9.9999934 26.341983,10.117522C26.701719,10.649603 27.310625,10.999993 28,10.999993 29.103001,10.999993 30,10.102993 30,8.9999934 30,7.8969932 29.103001,6.9999934 28,6.9999934z M4,6.9999934C2.8970003,6.9999934 2,7.8969932 2,8.9999934 2,10.102993 2.8970003,10.999993 4,10.999993 4.6893749,10.999993 5.2982817,10.649603 5.6580181,10.117522L5.729486,9.9999934 5.0000005,9.9999934C4.4470005,9.9999934 4,9.5529938 4,8.9999934 4,8.4469929 4.4470005,7.9999934 5.0000005,7.9999934L5.729486,7.9999934 5.6580181,7.882464C5.2982817,7.3503838,4.6893749,6.9999934,4,6.9999934z M16.107005,1.9999953C15.196973,1.999995 14.456985,2.7780083 14.456985,3.7339998 14.456985,4.689991 15.196973,5.4680047 16.107005,5.4680047 17.016974,5.4680047 17.757999,4.689991 17.757999,3.7339998 17.757999,2.7780083 17.016974,1.999995 16.107005,1.9999953z M3.9810162,0.0010104179C4.5340161,0.0010102636,4.9810162,0.44801049,4.9810162,1.0010109L4.9810162,5.1217556 5.1294422,5.1622487C6.40906,5.5393339,7.4237013,6.5403004,7.8198996,7.8116813L7.8734818,7.9999934 11.945156,7.9999934 19.999825,7.9999934 24.126519,7.9999934 24.180101,7.8116813C24.5763,6.5403004,25.59094,5.5393339,26.870558,5.1622487L27.01897,5.1217595 27.01897,1.0010109C27.01897,0.44801049 27.465969,0.0010102636 28.01897,0.0010104179 28.57197,0.0010102636 29.018969,0.44801049 29.018969,1.0010109L29.018969,5.1319089 29.188313,5.1800943C30.815681,5.6872278 32,7.2076183 32,8.9999934 32,11.205994 30.206001,12.999993 28,12.999993 26.207625,12.999993 24.687235,11.815673 24.180101,10.188306L24.126519,9.9999934 20.999857,9.9999934 20.999857,17.746993 24.999984,29.886992 24.999984,30.046994C24.999984,31.123994,24.068954,31.999993,22.922917,31.999993L21.022858,31.999993C20.081828,31.999993,19.256801,31.402993,19.015794,30.549993L15.925272,21.905343 12.949188,30.621993C12.709181,31.418994,11.902156,31.999993,10.998127,31.999993L9.0420656,31.999993C7.9160295,31.999993,7.0000005,31.123994,7.0000005,30.046994L7.0490022,29.736993 10.945125,17.748994 10.945125,9.9999934 7.8734818,9.9999934 7.8198996,10.188305C7.3127661,11.815673 5.7923751,12.999993 4,12.999993 1.7940006,12.999993 0,11.205994 0,8.9999934 0,7.2076183 1.1843204,5.6872278 2.8116884,5.1800943L2.9810162,5.1319137 2.9810162,1.0010109C2.9810162,0.44801049,3.4280157,0.0010102636,3.9810162,0.0010104179z M16.107005,0C18.120974,-3.1292439E-07 19.757992,1.6749835 19.757992,3.7339998 19.757992,5.793016 18.120974,7.468 16.107005,7.468 14.09401,7.468 12.456992,5.793016 12.456992,3.7339998 12.456992,1.6749835 14.09401,-3.1292439E-07 16.107005,0z" />
  </g>
</svg>

