<?xml version="1.0" encoding="UTF-8"?>
<svg width="256px" height="256px" viewBox="0 0 256 256" version="1.1" xmlns="http://www.w3.org/2000/svg" xmlns:xlink="http://www.w3.org/1999/xlink">
    <!-- Generator: Sketch 49.3 (51167) - http://www.bohemiancoding.com/sketch -->
    <title>Artboard Copy 2</title>
    <desc>Created with Sketch.</desc>
    <defs></defs>
    <g id="Artboard-Copy-2" stroke="none" stroke-width="1" fill="none" fill-rule="evenodd">
        <path d="M201.391384,95.9674709 L162.459253,160.147208 C160.804791,162.478708 158.453117,163.674914 155.948581,163.674914 L125.644975,163.674914 L125.644975,173.581318 L164.149451,173.749095 L175.180467,160.238552 C177.751178,157.037079 182.41911,156.420653 185.783961,158.879547 L200.882015,168.96367 C204.170754,171.34613 205.076752,175.5667 203.147313,178.890588 L192.503121,197.195877 L201.304566,203.324776 L219.52855,170.95962 L195.85772,154.675129 C192.406494,152.292673 191.541199,147.73157 193.882615,144.295213 L215.982483,108.031241 L209.550568,97.5190244 L201.391384,95.9674709 Z M175.413397,80.84516 C175.962461,80.8305264 176.516697,80.8731597 177.067746,80.9749682 L212.508171,87.7147638 C214.590207,88.1016395 216.438085,89.3437159 217.568192,91.1152034 L237.044636,122.945967 L263.087903,122.945967 C265.897892,122.945967 268.178457,125.22141 268.178457,128.036449 C268.178457,130.851483 265.897892,133.126926 263.087903,133.126926 L235.695645,133.126926 C233.023109,133.126926 230.58473,131.798311 229.169557,129.583949 L221.955373,117.793213 L203.712473,147.716039 L227.306875,163.94957 C230.529116,166.159275 231.521795,170.39414 229.612876,173.790109 L208.864158,210.655465 C207.830776,212.487981 206.054205,213.837049 204.002666,214.345974 C203.381582,214.498836 202.745273,214.580238 202.113931,214.580238 C200.632837,214.580238 199.17162,214.162661 197.909253,213.363538 L184.760531,204.205922 C181.523054,202.154048 180.428774,197.720334 182.449556,194.233642 L193.063308,175.978688 L181.680889,168.373342 L171.296433,181.089725 C169.835222,182.891795 167.641384,183.930156 165.289713,183.930156 L165.238758,183.930156 L123.150692,183.751816 C118.905317,183.72137 115.464027,180.300544 115.464026,176.116024 L115.464026,161.129645 C115.464027,156.919637 118.930483,153.493843 123.191395,153.493843 L154.604814,153.493843 L190.717249,93.9376682 L176.222717,91.1813796 L146.458255,114.266704 C144.238774,115.99237 141.041906,115.590223 139.31621,113.365684 C137.595603,111.146236 137.997757,107.949417 140.217239,106.223745 L170.836911,82.4715705 C172.165541,81.4483831 173.766205,80.8890669 175.413397,80.84516 Z M231.409932,61.8602487 C225.484611,61.8602487 220.663919,66.4264055 220.663919,72.0412016 C220.663919,77.6559976 225.484611,82.2221554 231.409932,82.2221559 C237.335267,82.2221554 242.155949,77.6559976 242.155949,72.0412016 C242.155949,66.4264055 237.335267,61.8602487 231.409932,61.8602487 Z M231.409932,51.6792948 C242.950063,51.6792948 252.336923,60.8116089 252.336923,72.0412016 C252.336923,83.2707937 242.950063,92.4031093 231.409932,92.4031083 C219.8698,92.4031093 210.482945,83.2707937 210.482945,72.0412016 C210.482945,60.8116089 219.8698,51.6792948 231.409932,51.6792948 Z" id="path1" fill="#FFFFFF" fill-rule="nonzero" transform="translate(191.821241, 133.129766) scale(-1, 1) rotate(-30.000000) translate(-191.821241, -133.129766) "></path>
        <path d="M99.3615417,76.1560514 L99.2141984,76.3487417 C99.1038729,76.4789007 98.9859494,76.6047198 98.8604278,76.7256013 L65.6471574,108.673971 L46.2540172,148.251989 L45.2071916,149.001266 C35.1119048,156.152744 19.8791405,167.241451 13.4551906,172.538776 C15.2884277,174.818067 17.1427438,177.033807 18.5187272,178.569331 L54.5478506,155.892492 L67.0659485,135.580081 C69.6427856,132.461191 74.2811752,131.844868 77.6074649,134.203939 L97.8084249,151.525076 C100.640157,153.485591 101.56472,157.720212 99.5615506,161.067558 L88.7385458,179.164411 L97.8401931,185.317061 L114.428184,154.234709 L83.6964139,127.126731 C82.181962,125.989763 81.1724283,124.374454 80.8325733,122.530853 C80.4657957,120.580875 80.9016463,118.604314 82.0545117,116.962576 L82.6337047,116.282378 L113.377531,85.8638163 L99.3615417,76.1560514 Z M81.4357293,52.7980773 C81.8876154,52.8033912 82.3429074,52.8472249 82.7971951,52.9309106 L83.8651858,53.132813 L141.355514,92.9483357 L163.453368,71.8299503 C165.467111,69.9012283 168.671046,69.9809274 170.594474,71.9946634 C171.558834,73.0041864 172.02242,74.308598 171.993191,75.6017188 L171.986704,76.1301703 C172.092003,77.5818157 171.571585,79.0681369 170.435861,80.156027 L144.75636,104.697944 L142.726651,104.697944 C140.500348,104.697944 138.422824,103.784066 136.972275,102.206029 L121.829998,91.7181722 L92.1339085,121.096175 L122.259903,147.662265 C125.282973,149.931015 126.154355,153.99035 124.257552,157.279175 L105.48609,192.436749 C104.375386,194.365475 102.622249,195.683079 100.597672,196.193194 C99.9601123,196.352588 99.3118517,196.432362 98.6639045,196.432362 C97.2078246,196.432362 95.7679555,196.033811 94.5194187,195.268636 L81.0822828,186.177732 C77.750802,184.121557 76.6456022,179.679712 78.7496293,176.178317 L89.705589,157.858358 L73.6491255,144.086446 L61.8590723,163.203518 C60.7590636,164.537015 59.2608226,165.445681 57.5978371,165.817479 L19.4750683,189.91829 L17.9982346,189.907748 C15.7132537,189.897047 14.060973,189.88116 3.41340985,176.119945 C1.36224652,173.707693 1.48450555,169.951237 3.84893658,167.565589 C8.76362067,162.613629 32.4128011,145.6964 38.3107453,141.498913 L57.3585098,102.622178 L90.9372454,70.3212118 L80.8418769,63.3289485 L41.4910927,74.9596631 C38.8078413,75.7566506 36.0076987,74.2211197 35.2160074,71.5485539 C34.4243161,68.8706726 35.9492512,66.0599613 38.6325027,65.2682859 L77.5794691,53.7544652 C78.7550542,53.1128887 80.0800761,52.7821385 81.4357293,52.7980773 Z M131.570889,44.8542214 C125.997251,44.8542214 121.465016,49.3864719 121.465016,54.9601284 C121.465016,60.5337882 125.997251,65.0660381 131.570889,65.0660386 C137.139209,65.0660381 141.676752,60.5337882 141.676752,54.9601284 C141.676752,49.3864719 137.139209,44.8542214 131.570889,44.8542214 Z M131.570889,34.7483139 C142.718155,34.7483139 151.782625,43.8128154 151.782625,54.9601284 C151.782625,66.102133 142.718155,75.1719461 131.570889,75.1719461 C120.423613,75.1719461 111.359154,66.102133 111.359154,54.9601284 C111.359154,43.8128154 120.423613,34.7483139 131.570889,34.7483139 Z" id="path1" fill="#FFFFFF" fill-rule="nonzero"></path>
    </g>
</svg>