<?xml version="1.0" encoding="utf-8"?>
<svg xmlns="http://www.w3.org/2000/svg" height="256" width="256" viewBox="0 0 256 256">
  <g>
    <path id="path1" transform="rotate(0,128,128) translate(0,6.02400243425384) scale(8.00000047683719,8.00000047683719)  " fill="#FFFFFF" d="M6.2730023,25.146835C6.1400067,25.146834,6.006004,25.196824,5.9050061,25.298817L3.6140054,27.589909C3.5170053,27.687873 3.4619974,27.81892 3.4619974,27.957902 3.4619974,28.095907 3.5159982,28.226892 3.6140054,28.325895 3.8120035,28.521946 4.1530069,28.521946 4.3499979,28.325895L6.6409985,26.034864C6.7390057,25.935801 6.7939984,25.804815 6.7939984,25.66681 6.7939984,25.527828 6.7390057,25.396842 6.6409985,25.298817 6.5400006,25.196824 6.4059979,25.146834 6.2730023,25.146835z M1.2249999,17.743966C2.6349994,17.743966 3.4009992,18.387969 3.959999,18.856972 4.4349991,19.255974 4.721999,19.497975 5.3979987,19.497974 6.0739986,19.497975 6.3609987,19.255974 6.8359987,18.856972 7.3949987,18.387969 8.1609985,17.743966 9.5709983,17.743966 10.980998,17.743966 11.745998,18.387969 12.304998,18.856972 12.779998,19.255974 13.066998,19.497975 13.742997,19.497974 14.417997,19.497975 14.704997,19.255974 15.179998,18.856972 15.738997,18.387969 16.503997,17.743966 17.914996,17.743966 19.325996,17.743966 20.091996,18.387969 20.650996,18.856972 21.126996,19.255974 21.413997,19.497975 22.090997,19.497974 22.768996,19.497975 23.055995,19.255974 23.532996,18.856972 24.091996,18.38697 24.858995,17.743966 26.269996,17.743966 27.680995,17.743966 28.447995,18.38697 29.006995,18.856972 29.483995,19.255974 29.770995,19.497975 30.448995,19.497974 31.005994,19.497975 31.456994,19.947977 31.456994,20.50498 31.456994,21.061982 31.005994,21.512984 30.448995,21.512985 29.036994,21.512984 28.270995,20.868981 27.710996,20.399979 27.234996,19.999977 26.947995,19.758976 26.269996,19.758976 25.591994,19.758976 25.304996,19.999977 24.828996,20.399979 24.268996,20.868981 23.502996,21.512984 22.090997,21.512985 20.679996,21.512984 19.913997,20.868981 19.354997,20.399979 18.878997,19.999977 18.591996,19.758976 17.914996,19.758976 17.238997,19.758976 16.951997,19.999977 16.476997,20.399979 15.917997,20.868981 15.152997,21.512984 13.742997,21.512985 13.125685,21.512985 12.632021,21.389718 12.22516,21.211769L12.200384,21.200138 8.6419278,24.74496 8.6375314,24.748931 8.6615101,24.811082C8.7584683,25.082078 8.8089982,25.370612 8.8089982,25.66681 8.8089982,26.344872 8.5450059,26.98088 8.066002,27.459899L5.775993,29.75093C5.2970043,30.22995 4.6599954,30.493997 3.9829935,30.493997 3.3049996,30.493997 2.6680062,30.22995 2.189002,29.75093 1.7109977,29.271971 1.4459982,28.635903 1.4459982,27.957902 1.4459982,27.280877 1.7099982,26.643832 2.189002,26.164812L4.4800028,23.873782C4.9745022,23.379258 5.6237522,23.131997 6.2730023,23.131996 6.5570489,23.131997 6.841096,23.179324 7.1121842,23.273979L7.2224885,23.315542 10.526518,20.024172 10.522561,20.021379C10.263186,19.853117 9.9928733,19.758976 9.5709983,19.758976 8.8949982,19.758976 8.6079985,19.999977 8.1329986,20.399979 7.5739986,20.868981 6.8079988,21.512984 5.3979987,21.512985 3.9879991,21.512984 3.2219993,20.868981 2.663,20.399979 2.1879994,19.999977 1.9009995,19.758976 1.2249999,19.758976 0.66899973,19.758976 0.21699977,19.308974 0.21700001,18.751971 0.21699977,18.194968 0.66899973,17.743966 1.2249999,17.743966z M14.675998,9.3210497L13.399776,13.582005 16.990358,13.582005 19.399873,11.18065z M10.679176,7.9736776L8.9021064,13.581899 11.2952,13.581899 12.773259,8.6477041C12.159235,8.4526968,11.350203,8.1936865,10.679176,7.9736776z M13.554998,2.0769939C12.992997,2.0769939 12.534997,2.5349941 12.534997,3.0969925 12.534997,3.6579914 12.992997,4.1159916 13.554998,4.1159916 14.116999,4.1159916 14.574999,3.6579914 14.574999,3.0969925 14.574999,2.5349941 14.116999,2.0769939 13.554998,2.0769939z M29.464,2.0142727C29.331,2.0142727,29.197002,2.06427,29.096002,2.1662636L26.805003,4.4571476C26.707004,4.5551414 26.653003,4.6861362 26.653003,4.8251286 26.653003,4.9631214 26.708003,5.0941143 26.806003,5.1931095 27.009002,5.3960991 27.340003,5.3941002 27.542003,5.1931095L29.832,2.9022274C29.929999,2.8032322 29.985,2.6722374 29.985,2.5342445 29.985,2.3952522 29.929999,2.2642593 29.832,2.1662636 29.731,2.06427 29.597001,2.0142727 29.464,2.0142727z M13.554998,0.06199646C15.228,0.06199646 16.590002,1.4229946 16.590002,3.0969925 16.590002,4.7699909 15.228,6.1319885 13.554998,6.1319885 11.880996,6.1319885 10.519994,4.7699909 10.519994,3.0969925 10.519994,1.4229946 11.880996,0.06199646 13.554998,0.06199646z M29.464002,0C30.11325,0.00012397766 30.7625,0.24736214 31.256999,0.74133682 31.735999,1.2203121 31.999999,1.8572807 31.999999,2.5342445 31.999999,3.2122116 31.735999,3.8481789 31.256999,4.3271542L28.967,6.6180382C28.472001,7.1120129 27.823003,7.3589993 27.173003,7.3589993 26.889066,7.3589993 26.604938,7.3117247 26.333764,7.2171755L26.254329,7.1872864C26.232598,7.2138281,26.209508,7.2392893,26.184884,7.2637901L19.846006,13.582005 30.906991,13.582005C31.463992,13.582005 31.914991,14.032001 31.914991,14.588997 31.914991,15.11118 31.518605,15.540201 31.010102,15.591789L30.941039,15.595272 31.012708,15.638723C31.280822,15.819512 31.456994,16.125836 31.456994,16.473958 31.456994,17.030951 31.005994,17.481946 30.448995,17.481946 29.037995,17.481946 28.272994,16.837954 27.713994,16.368959 27.237994,15.968963 26.951995,15.727966 26.275994,15.727966 25.599996,15.727966 25.312995,15.968963 24.837995,16.368959 24.278995,16.837954 23.513995,17.481946 22.102996,17.481946 20.692996,17.481946 19.926995,16.837954 19.368997,16.368959 18.893996,15.968963 18.606996,15.727966 17.930997,15.727966 17.254996,15.727966 16.967997,15.968963 16.492997,16.368959 15.934997,16.837954 15.168997,17.481946 13.758997,17.481946 12.347998,17.481946 11.581998,16.837954 11.022998,16.368959 10.546998,15.968963 10.259998,15.727966 9.5829984,15.727966 8.9049984,15.727966 8.6169983,15.968963 8.1409985,16.368959 7.5819985,16.837954 6.8159987,17.481946 5.4039997,17.481946 3.991999,17.481946 3.2259992,16.837954 2.6659993,16.368959 2.1909994,15.968963 1.9029995,15.727966 1.2249999,15.727966 1.0164998,15.727966 0.8226248,15.664685 0.66172647,15.556212L0.60074568,15.510707 0.52739525,15.47539C0.21316791,15.304765 0,14.971931 0,14.588997 0,14.032001 0.4509998,13.582005 1.0079994,13.582005L6.7876607,13.582005 8.9751092,6.6806278C9.1841174,6.0236015 9.8711444,5.6425858 10.539171,5.8055935 11.651215,6.1816082 13.774299,6.8506336 14.236317,6.9956398 14.272193,7.0070782 14.307089,7.0202103 14.340944,7.0349236L14.365564,7.0471249 14.414225,7.0581455C14.446965,7.0673103,14.479546,7.0782127,14.511857,7.0909004L20.958434,9.627367 24.76192,5.8367615 24.823531,5.7815971 24.784495,5.6804752C24.687535,5.409626 24.637004,5.1213017 24.637004,4.8251286 24.637004,4.1471634 24.902005,3.5101948 25.380004,3.0322208L27.671003,0.74133682C28.165502,0.24686241,28.814752,-0.00012397766,29.464002,0z" />
  </g>
</svg>

