<?xml version="1.0" encoding="utf-8"?>
<svg xmlns="http://www.w3.org/2000/svg" height="256" width="256" viewBox="0 0 256 256">
  <g>
    <path id="path1" transform="rotate(0,128,128) translate(0.00418103280762239,0) scale(8.00023842568474,8.00023842568474)  " fill="#FFFFFF" d="M5.5089228,9.9871402L5.4539316,18.454038 2.1180058,29.107086 3.8909698,29.803984 6.9108942,19.604059C7.0548876,18.978084 7.6558693,18.501035 8.3568547,18.501035 9.0568335,18.501035 9.6518185,18.955012 9.8288167,19.606012L13.183724,29.829008 14.855676,29.129059 11.499762,18.32208 11.499762,10.429772 11.490102,10.365204C11.483665,10.301578,11.48329,10.237343,11.489075,10.173444L11.499762,10.096788 11.499762,10.00008z M14.725243,9.957374L14.185012,10.360828 16.788328,12.483972 19.312258,9.9970298 15.025815,9.9970298 15.005992,9.9980297C14.936992,9.9980297,14.869618,9.9910452,14.804539,9.9777423z M15.005992,7.5009781L15.030632,7.5022212 15.053904,7.502266 15.061133,7.5029702 31.498001,7.5029702C31.774002,7.5029704 31.998001,7.7269704 31.998001,8.0029706 31.998001,8.2789704 31.774002,8.5029704 31.498001,8.5029705L26.872866,8.5029705 26.883248,8.5200536C26.960249,8.6617563 27.004,8.8242173 27.004,8.9970297 27.004,9.5500298 26.556,9.9970298 26.004,9.9970298L22.161789,9.9970298 17.823372,14.265987C17.497359,14.53299 17.139344,14.662991 16.788328,14.662991 16.579319,14.662991 16.37331,14.61699 16.178303,14.526989L15.965293,14.392988 13.499709,12.382464 13.499709,18.169004 16.894623,28.948029C17.148615,29.662016,16.782627,30.48904,16.050652,30.797024L13.457718,31.88308C13.272725,31.961082 13.074718,31.999046 12.877732,31.999046 12.668738,31.999046 12.460736,31.956078 12.267747,31.870995 11.892757,31.703028 11.598758,31.385035 11.461768,30.996975L8.3928492,21.639088 5.6489184,30.910061C5.5109217,31.329004 5.2239268,31.652002 4.8519428,31.827049 4.4809501,32.001976 4.0469559,32.016991 3.6649781,31.86306L0.95003786,30.797024C0.20106445,30.50198,-0.1799222,29.676054,0.083071735,28.916046L3.4999736,18.002012 3.5309789,9.1790367C3.6749718,8.4860455,4.29196,7.9860468,4.9989417,7.9860467L5.0049384,7.9860467 12.003746,8.0010614C12.467803,8.002778,12.883128,8.2164615,13.157714,8.5495818L13.197013,8.6021702 14.407962,7.6984185 14.437598,7.6786084 14.447008,7.6715772 14.45906,7.6642623 14.49288,7.6416547 14.520191,7.6271574 14.529459,7.6215313 14.543697,7.6146794 14.581429,7.5946495 14.607077,7.5841761 14.616867,7.5794641 14.633582,7.5733522 14.6729,7.5572966 14.697298,7.5500551 14.708729,7.5458757 14.728424,7.5408166 14.766589,7.5294887 14.790447,7.5248855 14.804539,7.5212655 14.826774,7.5178757 14.861791,7.5111187 14.886112,7.508829 14.903796,7.506133 14.927388,7.5049429 14.957797,7.50208 14.983173,7.5021291z M15.004998,6L22.002997,6 22.002997,7.0000002 15.004998,7.0000002z M9.0169976,2.0000057C7.9149978,2.0000057 7.0189979,2.8750081 7.0189979,3.9510112 7.0189979,5.0270143 7.9149978,5.9020169 9.0169976,5.9020166 10.118997,5.9020169 11.014997,5.0270143 11.014997,3.9510112 11.014997,2.8750081 10.118997,2.0000057 9.0169976,2.0000057z M9.0169976,0C11.220997,0 13.014997,1.7720051 13.014997,3.9510112 13.014997,6.1300175 11.220997,7.9020225 9.0169976,7.9020224 6.8119982,7.9020225 5.0189989,6.1300175 5.0189989,3.9510112 5.0189989,1.7720051 6.8119982,0 9.0169976,0z" />
  </g>
</svg>

