<?xml version="1.0" encoding="utf-8"?>
<svg xmlns="http://www.w3.org/2000/svg" height="256" width="256" viewBox="0 0 256 256">
  <g>
    <path id="path1" transform="rotate(0,128,128) translate(0,6.28381796514599) scale(7.99974346983512,7.99974346983512)  " fill="#FFFFFF" d="M28.195994,16.166004C30.297002,16.166004 32.000008,17.869004 32.000008,19.970004 32.000008,22.071003 30.297002,23.774002 28.195994,23.774002 26.094987,23.774002 24.39198,22.071003 24.39198,19.970004 24.39198,17.869004 26.094987,16.166004 28.195994,16.166004z M18.329982,7.7932136L18.302251,7.8294792C18.281487,7.853976,18.259293,7.877656,18.235669,7.9004067L11.984709,13.913304 8.3347901,21.362152 8.1377705,21.503171C6.2377699,22.849127 3.3708616,24.936096 2.1618312,25.933088 2.5068587,26.362066 2.8558534,26.779083 3.1148227,27.068079L9.8957451,22.800146 12.251735,18.977214C12.736713,18.390218,13.609689,18.274222,14.235719,18.718215L18.037675,21.978169C18.570626,22.347151,18.744635,23.144135,18.367625,23.774128L16.330663,27.180077 18.043654,28.338047 21.165625,22.48814 15.3817,17.386237C15.09667,17.172252 14.906669,16.86824 14.842706,16.521262 14.773676,16.154263 14.855706,15.782261 15.072683,15.473275L15.181691,15.345257 20.967885,9.62028z M14.956224,3.3970864C15.041272,3.3980865,15.126961,3.4063363,15.212461,3.4220865L15.413464,3.4600859 26.233529,10.953634 30.392493,6.9790124C30.771493,6.616014 31.374495,6.6310139 31.736497,7.0100125 31.917996,7.2000115 32.005246,7.4455105 31.999745,7.6888845L31.994872,7.7581373 31.998524,7.7883426C32.018342,8.061552,31.920396,8.3412876,31.706645,8.5460358L26.873591,13.164989 26.491586,13.164989C26.072581,13.164989,25.681577,12.992991,25.408574,12.695994L22.558696,10.722109 16.969693,16.251246 22.639607,21.251162C23.208569,21.678156,23.372569,22.44215,23.015578,23.061129L19.482663,29.67802C19.273621,30.041019 18.943669,30.289001 18.56263,30.385008 18.442637,30.415007 18.32063,30.430021 18.198682,30.430021 17.924638,30.430021 17.653645,30.355011 17.418662,30.211L14.889703,28.500031C14.262696,28.113045,14.05469,27.27706,14.450682,26.618074L16.512667,23.170135 13.490733,20.578169 11.271766,24.17613C11.064737,24.427103,10.782758,24.59812,10.469773,24.668095L3.2948125,29.204029 3.0168625,29.202045C2.5868138,29.200031 2.2758435,29.197041 0.27190078,26.607088 -0.1141419,26.153086 -0.091131931,25.446096 0.35386983,24.997101 1.2788463,24.065109 5.7297805,20.881173 6.8398131,20.091178L10.42473,12.774316 16.744473,6.6950577 14.844457,5.3790669 7.4383758,7.5680453C6.9333699,7.7180437 6.4063643,7.4290465 6.2573627,6.9260517 6.1083611,6.4220565 6.3953641,5.8930618 6.90037,5.7440632L14.23045,3.577085C14.451703,3.456336,14.701081,3.3940866,14.956224,3.3970864z M24.391997,1.9019995C23.343001,1.9019995 22.490004,2.7549994 22.490004,3.8039989 22.490004,4.852999 23.343001,5.7059988 24.391997,5.7059989 25.439992,5.7059988 26.293988,4.852999 26.293988,3.8039989 26.293988,2.7549994 25.439992,1.9019995 24.391997,1.9019995z M24.391997,0C26.489987,0 28.195981,1.7059999 28.195981,3.8039989 28.195981,5.9009988 26.489987,7.6079984 24.391997,7.6079984 22.294005,7.6079984 20.588013,5.9009988 20.588013,3.8039989 20.588013,1.7059999 22.294005,0 24.391997,0z" />
  </g>
</svg>

