<?xml version="1.0" encoding="utf-8"?>
<svg xmlns="http://www.w3.org/2000/svg" height="256" width="256" viewBox="0 0 256 256">
  <g>
    <path id="path1" transform="rotate(0,128,128) translate(59,99.6000569462776) scale(4.3125,4.3125)  " fill="#FFFFFF" d="M27.5,9.7001542C28.699982,11.100169 30.100006,11.200176 32,11.400191 31,13.100199 28.799988,13.100199 27.5,12.200191 27.5,12.200191 24.5,14.100213 22.899994,11.500169 26.699982,13.100199 27.5,9.7001542 27.5,9.7001542z M22.799988,0.20001507C24.899994,0.20001522 26.600006,1.9000523 26.600006,4.0000586 26.600006,6.1000957 24.899994,7.8001327 22.799988,7.8001327 20.699982,7.8001327 19,6.1000957 19,4.0000586 19,1.9000523 20.699982,0.20001522 22.799988,0.20001507z M11.5,0L21.799988,11.700184C20.699982,12.900214 18.399994,14.20022 16.799988,11.500169 15.199982,14.20022 12.600006,13.200206 11.699982,11.500169 10.5,13.300214 8,13.900228 6.6000061,11.600177 5.1999817,13.500198 2.1000061,14.000205 1.1000061,10.800177L11.600006,5.5000805 10.100006,3.6000589 0,6.0000881 0.5,4.1000661z" />
  </g>
</svg>

