<?xml version="1.0" encoding="utf-8"?>
<svg xmlns="http://www.w3.org/2000/svg" height="256" width="256" viewBox="0 0 256 256">
  <g>
    <path id="path1" transform="rotate(0,128,128) translate(29.5162817544667,0) scale(7.99998569491083,7.99998569491083)  " fill="#FFFFFF" d="M20.518964,22.769021C19.387962,22.769021 18.467958,23.689023 18.467958,24.820027 18.467958,25.95103 19.387962,26.871032 20.518964,26.871032 21.649967,26.871032 22.569969,25.95103 22.569969,24.820027 22.569969,23.689023 21.649967,22.769021 20.518964,22.769021z M20.518964,20.718016C22.780969,20.718016 24.620973,22.55802 24.620973,24.820027 24.620973,27.083032 22.780969,28.922036 20.518964,28.922036 18.256957,28.922036 16.416954,27.083032 16.416954,24.820027 16.416954,22.55802 18.256957,20.718016 20.518964,20.718016z M4.6649746,17.641044L4.818808,17.764584C5.0825185,17.96259,5.3704495,18.138059,5.6847052,18.286834L5.9166393,18.418916C6.597671,18.785865 8.6677441,19.901849 8.4826855,24.042903 8.4967236,24.463931 8.4786572,25.700034 8.3507266,29.949L10.100731,29.949C9.9736561,25.698935 9.9566884,24.462954 9.9707264,24.041926 9.7856669,19.900872 11.856717,18.784888 12.538725,18.417817L12.77066,18.286834C13.084732,18.138059,13.372497,17.96259,13.636058,17.764584L13.789803,17.641044z M9.3347382,2.0506245C6.7026519,2.0506245 4.3457126,3.0945858 3.3026192,4.7326721 2.5316214,5.9436282 2.1267132,7.4896725 2.0606727,9.461748 2.0075721,11.095531 2.1270871,13.514487 3.0425641,15.486389L3.0934207,15.590068 15.360518,15.590068 15.411375,15.486338C16.326461,13.51435 16.446205,11.095165 16.393714,9.4607714 16.332679,7.595753 15.908728,5.9977063 15.136754,4.7097229 14.157748,3.0785943 12.038724,2.0846826 9.4666962,2.0506245z M9.4936738,0.00054482939C12.78067,0.043635894 15.547765,1.4096235 16.895669,3.6536766 17.849773,5.2456196 18.370771,7.1766795 18.44267,9.3937539 18.616743,14.743811 16.935708,18.545871 13.70865,20.110837 13.652742,20.144894 13.587678,20.182858 13.51175,20.223876 13.025665,20.485843 11.886746,21.098889 12.021757,23.972957L12.027738,24.110898 12.016752,24.1629C12.007719,24.610906 12.063749,26.87803 12.155668,29.929101 12.171659,30.491 11.961698,31.037028 11.582669,31.427049 11.222682,31.797049 10.748682,32.000056 10.245751,32.000056L8.2086367,32.000056C7.7057061,32.000056 7.2307291,31.797049 6.8717198,31.427049 6.491714,31.037028 6.2827291,30.491 6.2987203,29.930077 6.3906393,26.87803 6.445693,24.610906 6.4376363,24.1629L6.42665,24.110898 6.4326314,23.972957C6.5666651,21.099866 5.4287228,20.485843 4.9437365,20.223876 4.8676867,20.182858 4.8016462,20.144894 4.7467145,20.110837 0.39270024,18.000819 -0.090333139,12.496829 0.011717863,9.3937539 0.087645801,7.0456956 0.59863337,5.1596807 1.5726347,3.6306048 3.0277164,1.3466342 6.0776505,-0.031438496 9.4936738,0.00054482939z" />
  </g>
</svg>

