<?xml version="1.0" encoding="utf-8"?>
<svg xmlns="http://www.w3.org/2000/svg" height="256" width="256" viewBox="0 0 256 256">
  <g>
    <path id="path1" transform="rotate(0,128,128) translate(8.00409207356245,0) scale(7.99972058318485,7.99972058318485)  " fill="#FFFFFF" d="M16.880021,8.7002017L9.231989,21.308006C8.9069777,21.766018,8.4450026,22.001007,7.9529983,22.001007L1.9999991,22.001007 1.9999991,23.947073 9.5640202,23.980032 11.731011,21.32595C12.236015,20.697036,13.153008,20.575942,13.814017,21.05898L16.779958,23.039958C17.426015,23.507981,17.603994,24.337092,17.224965,24.990054L15.133964,28.586041 16.862966,29.790034 20.442981,23.432053 15.792959,20.233042C15.114982,19.76502,14.944999,18.869013,15.404959,18.193957L19.746373,11.070072 18.482854,9.004997z M11.776769,5.7294956C11.88463,5.7266209,11.993507,5.734996,12.101758,5.7549958L19.063861,7.0789966C19.472867,7.1549965,19.835874,7.3989965,20.057878,7.7469968L23.883933,13.999999 29.000009,13.999999C29.552018,13.999999 30.000024,14.446999 30.000024,15 30.000024,15.553 29.552018,16 29.000009,16L23.61893,16C23.093923,16,22.614915,15.739,22.336911,15.303999L20.919719,12.987765 17.335988,18.865962 21.970996,22.054962C22.60399,22.489048,22.798997,23.320967,22.423999,23.988089L18.348012,31.230113C18.145009,31.590102 17.79601,31.85512 17.392995,31.955096 17.270986,31.985125 17.145986,32.001116 17.021962,32.001116 16.731008,32.001116 16.443959,31.919085 16.195973,31.762101L13.612969,29.963131C12.976982,29.56005,12.762016,28.689068,13.158989,28.004124L15.24401,24.418025 13.007988,22.923991 10.968011,25.422064C10.680963,25.776072,10.249994,25.980053,9.7880193,25.980053L9.7780095,25.980053 1.510009,25.945019C0.67602518,25.939038,2.0154232E-07,25.267033,0,24.445004L0,21.501001C2.0154232E-07,20.673965,0.68096903,20.000984,1.5180049,20.000984L7.6890217,20.000984 14.783138,8.3014566 11.935756,7.7599968 6.0886689,12.294999C5.6526624,12.633998 5.024653,12.554998 4.6856481,12.117998 4.347643,11.681998 4.4266444,11.053998 4.862651,10.714998L10.87774,6.0489962C11.138743,5.8479959,11.453186,5.7381209,11.776769,5.7294956z M22.777022,2C21.613021,2 20.666019,2.8969998 20.666019,3.9999998 20.666019,5.1029998 21.613021,5.9999998 22.777022,5.9999999 23.941026,5.9999998 24.888026,5.1029998 24.888026,3.9999998 24.888026,2.8969998 23.941026,2 22.777022,2z M22.777022,0C25.044026,0 26.88803,1.7939997 26.88803,3.9999998 26.88803,6.2059998 25.044026,7.9999998 22.777022,7.9999996 20.510018,7.9999998 18.666015,6.2059998 18.666015,3.9999998 18.666015,1.7939997 20.510018,0 22.777022,0z" />
  </g>
</svg>

