<?xml version="1.0" encoding="UTF-8"?>
<svg width="256px" height="256px" viewBox="0 0 256 256" version="1.1" xmlns="http://www.w3.org/2000/svg" xmlns:xlink="http://www.w3.org/1999/xlink">
    <!-- Generator: Sketch 49.3 (51167) - http://www.bohemiancoding.com/sketch -->
    <title>Artboard</title>
    <desc>Created with Sketch.</desc>
    <defs></defs>
    <g id="Artboard" stroke="none" stroke-width="1" fill="none" fill-rule="evenodd">
        <g id="Swimming" transform="translate(4.000000, 159.000000)" fill="#FFFFFF" fill-rule="nonzero">
            <path d="M118.59375,42.4319719 C123.768672,48.4695358 129.806276,48.9008159 138,49.7633806 C133.6875,57.0946651 124.199948,57.0946651 118.59375,53.2133806 C118.59375,53.2133806 105.65625,61.4072255 98.7562241,50.1945358 C115.143672,57.0946651 118.59375,42.4319719 118.59375,42.4319719 Z M98.3249482,1.46262194 C107.381224,1.46262258 114.712526,8.79403249 114.712526,17.8503097 C114.712526,26.9067197 107.381224,34.2381292 98.3249482,34.2381292 C89.2686724,34.2381292 81.9375,26.9067197 81.9375,17.8503097 C81.9375,8.79403249 89.2686724,1.46262258 98.3249482,1.46262194 Z M49.59375,0.600056946 L94.0124482,51.0571004 C89.2686724,56.2322298 79.3499741,61.8385057 72.4499482,50.1945358 C65.5499224,61.8385057 54.3375259,57.5259453 50.4561724,50.1945358 C45.28125,57.9572298 34.5,60.5447902 28.4625263,50.6258203 C22.4249211,58.8196608 9.05627631,60.975941 4.74377631,47.1758203 L50.0250259,24.3191541 L43.5562759,16.125311 L0,26.4754369 L2.15625,18.281592 L49.59375,0.600056946 Z" id="path1"></path>
        </g>
        <g id="Bicycle--02-WF" transform="translate(63.000000, 22.000000)" fill="#FFFFFF" fill-rule="nonzero">
            <path d="M24.0263551,69.9839802 C15.1940845,69.9839802 8.00878518,77.169273 8.00878518,86.0015288 C8.00878518,94.8337885 15.1940845,102.019081 24.0263551,102.019081 C32.8586254,102.019081 40.0439251,94.8337885 40.0439251,86.0015288 C40.0439251,77.169273 32.8586254,69.9839802 24.0263551,69.9839802 Z M105.147802,69.6247275 C96.3155784,69.6247275 89.1301564,76.8100889 89.1301564,85.6423083 C89.1301564,94.4746569 96.3155784,101.659954 105.147802,101.659954 C113.980021,101.659954 121.165443,94.4746569 121.165443,85.6423083 C121.165443,76.8100889 113.980021,69.6247275 105.147802,69.6247275 Z M24.0263551,61.9752039 C37.2747605,61.9752039 48.0527103,72.7531411 48.0527103,86.0015288 C48.0527103,99.2499164 37.2747605,110.027858 24.0263551,110.027858 C10.7779457,110.027858 0,99.2499164 0,86.0015288 C0,72.7531411 10.7779457,61.9752039 24.0263551,61.9752039 Z M105.147802,61.6159673 C118.396133,61.6159673 129.174018,72.3939126 129.174018,85.6423083 C129.174018,98.8907686 118.396133,109.668653 105.147802,109.668653 C91.8994667,109.668653 81.1213357,98.8907686 81.1213357,85.6423083 C81.1213357,72.3939126 91.8994667,61.6159673 105.147802,61.6159673 Z M54.3878331,16.3808723 C63.1385721,16.3783813 73.648082,28.0040233 75.7450059,30.4433621 C79.660694,34.9604995 81.4570667,39.4009379 81.0695329,43.6153172 C80.6375957,48.2616329 77.6544057,50.7603885 77.3193529,51.0308503 C72.1280405,55.1604584 56.8931847,66.9639515 56.8931847,66.9639515 C56.6792364,67.1698264 57.2080581,68.0740637 57.2686084,68.1790175 L69.8512863,86.5059205 C74.2352459,92.2825278 71.4740776,95.2697302 70.5173634,96.0407529 C69.5243069,96.8481098 68.204279,97.1427917 66.9649808,96.7996696 C66.6622255,96.8077389 65.6893565,97.3405892 65.1040212,97.8653702 C64.7124548,98.2206065 64.224,98.5193291 63.7234391,98.6969432 C62.2742293,99.2096141 60.9663115,99.3993423 59.8198611,99.3993423 C58.3141377,99.3993423 57.0909903,99.0723629 56.1867489,98.7050166 C54.1400938,97.8613335 53.1591555,95.5240493 53.9988058,93.4774103 C54.8424969,91.4348081 57.1878747,90.4538778 59.2224157,91.2894874 C59.4161846,91.3702211 59.807751,91.4509548 60.4697833,91.3177442 C60.9743849,90.9302145 61.6848614,90.4417637 62.5406585,89.9977204 L50.5877194,72.5831281 C48.415923,69.2931664 47.8992154,64.2472109 51.7866467,60.8038511 C51.9925216,60.6343104 67.1587497,48.8752209 72.3339154,44.7657962 C73.6135804,43.566877 73.7750518,40.3980198 69.6777089,35.6750063 C64.6801573,29.8701409 57.3453094,23.9845399 54.2490883,24.3962902 C54.0916536,24.4205123 53.7243073,24.4729912 53.2560359,25.3893349 L49.9337605,37.2009025 C49.8570594,37.471366 49.7480649,37.7337545 49.6229237,37.9840337 C49.4372322,38.3271595 45.0532767,46.3643552 32.7652823,46.3643552 L25.4909818,46.07371 C23.2828586,45.9848989 21.5631865,44.1239514 21.6519948,41.9158411 C21.740803,39.703696 23.5735054,37.8629324 25.8139278,38.072844 L32.9267533,38.3594525 C39.1232274,38.3554163 41.7431073,35.3682118 42.3728461,34.4881974 L45.638608,22.894614 C45.6951256,22.7048866 45.7597165,22.5191971 45.8444869,22.3375419 C47.7619641,18.0747205 50.8541445,16.7910288 53.1107112,16.4680905 C53.5313579,16.4092405 53.9574702,16.3809954 54.3878331,16.3808723 Z M33.540762,0 C39.0710646,0 43.5518161,4.48071359 43.5518161,10.0109621 C43.5518161,15.5412106 39.0710646,20.0219242 33.540762,20.0219242 C28.0104634,20.0219242 23.5297078,15.5412106 23.5297078,10.0109621 C23.5297078,4.48071359 28.0104634,0 33.540762,0 Z" id="path1" transform="translate(64.587009, 55.013929) scale(-1, 1) translate(-64.587009, -55.013929) "></path>
        </g>
        <g id="Run-WF" transform="translate(152.000000, 127.000000)" fill="#FFFFFF" fill-rule="nonzero">
            <path d="M56.2666917,29.0902849 L30.773272,71.2461604 C29.6899019,72.7775846 28.1499861,73.5633016 26.5099731,73.5633016 L6.66665833,73.5633016 L6.66665833,80.0702329 L31.8800418,80.1804357 L39.1033387,71.3061585 C40.786684,69.2033007 43.8433249,68.7984067 46.0466865,70.4135087 L55.9331486,77.0371729 C58.0866702,78.6020702 58.6799331,81.3743134 57.4165041,83.557579 L50.4465063,95.5812412 L56.2098417,99.6069524 L68.1432155,78.3481948 L52.6431546,67.6518748 C50.383233,66.0869808 49.8166235,63.0910619 51.3498223,60.8339221 L65.8211907,37.0142624 L61.609464,30.1094087 L56.2666917,29.0902849 Z M39.2558653,19.1573328 C39.6154016,19.1477209 39.9783247,19.1757241 40.3391611,19.2425961 L63.5461525,23.6695694 C64.9095047,23.9236852 66.1195271,24.7395318 66.8595398,25.9031172 L79.6130463,46.8108641 L96.6666193,46.8108641 C98.5066479,46.8108641 100,48.3054683 100,50.1545009 C100,52.0035301 98.5066479,53.4981343 96.6666193,53.4981343 L78.7297037,53.4981343 C76.9796817,53.4981343 75.3829897,52.6254459 74.4563104,51.1709621 L69.7323409,43.4263247 L57.7865804,63.0808605 L73.2365947,73.7437074 C75.3465731,75.1951318 75.9965959,77.976764 74.7466035,80.2073754 L61.1599911,104.422049 C60.4833149,105.62572 59.3199859,106.511843 57.9766036,106.846126 C57.5699073,106.946532 57.1532409,107 56.7398279,107 C55.7699821,107 54.8131528,106.725718 53.9865335,106.200821 L45.376527,100.185725 C43.2565721,98.8379702 42.5400193,95.9257257 43.8632616,93.6355241 L50.813326,81.6449237 L43.3599253,76.6494218 L36.5600074,85.0020621 C35.6031815,86.185735 34.1666193,86.8677727 32.6267049,86.8677727 L32.5933389,86.8677727 L5.03335931,86.7506319 C2.25341546,86.7306336 6.71807196e-07,84.4836952 0,81.7351316 L0,71.8914649 C6.71807196e-07,69.1261597 2.26989495,66.875958 5.06001229,66.875958 L25.6300518,66.875958 L49.2770872,27.7570275 L39.7858215,25.9465844 L20.2955468,41.1099692 C18.8421929,42.2434576 16.7488299,41.9793105 15.6188145,40.5181427 C14.4921317,39.0603186 14.7554695,36.9605168 16.2088237,35.8270251 L36.2591043,20.2256257 C37.1291136,19.5535544 38.1772561,19.1861726 39.2558653,19.1573328 Z M75.9233459,6.68726678 C72.0433457,6.68726678 68.8866749,9.68650526 68.8866749,13.3745329 C68.8866749,17.0625605 72.0433457,20.0617997 75.9233459,20.0618 C79.8033562,20.0617997 82.9600203,17.0625605 82.9600203,13.3745329 C82.9600203,9.68650526 79.8033562,6.68726678 75.9233459,6.68726678 Z M75.9233459,0 C83.4800199,0 89.626695,5.9984773 89.626695,13.3745329 C89.626695,20.7505882 83.4800199,26.7490665 75.9233459,26.7490658 C68.366672,26.7490665 62.2200002,20.7505882 62.2200002,13.3745329 C62.2200002,5.9984773 68.366672,0 75.9233459,0 Z" id="path1"></path>
        </g>
    </g>
</svg>