<?xml version="1.0" encoding="utf-8"?>
<!-- Generator: Adobe Illustrator 21.0.2, SVG Export Plug-In . SVG Version: 6.00 Build 0)  -->
<svg version="1.1" id="Layer_1" xmlns="http://www.w3.org/2000/svg" xmlns:xlink="http://www.w3.org/1999/xlink" x="0px" y="0px"
	 width="24px" height="24px" viewBox="0 0 24 24" style="enable-background:new 0 0 24 24;" xml:space="preserve">
<style type="text/css">
	.st0{fill:#F4F4F4;stroke:#D3D3D3;stroke-width:2;stroke-miterlimit:10;}
	.st1{fill:#F7F7F7;}
	.st2{opacity:0;fill:#E6E7E8;}
	.st3{fill:none;stroke:#E6E7E8;stroke-miterlimit:10;}
	.st4{fill:#F1F2F2;}
	.st5{opacity:0.8;}
	.st6{fill:#4285F4;}
	.st7{opacity:0.38;}
	.st8{fill:#FF4081;}
	.st9{opacity:0.12;fill:none;stroke:#000000;stroke-width:2;stroke-miterlimit:10;}
	.st10{opacity:0.26;}
	.st11{fill:#E6E7E8;}
	.st12{fill:#757575;}
	.st13{fill:#E0E0E0;}
	.st14{fill:#30B32D;}
	.st15{fill:none;stroke:#9E9E9E;stroke-miterlimit:10;}
	.st16{fill:none;stroke:#9E9E9E;stroke-width:2;stroke-miterlimit:10;}
	.st17{opacity:0.6;}
	.st18{fill:#9E9E9E;}
	.st19{opacity:0.79;}
	.st20{fill:#F02828;}
	.st21{fill:#FFDD00;}
	.st22{fill:#F03E3E;}
	.st23{fill:#414042;}
	.st24{fill:none;stroke:#ED1C24;stroke-width:2;stroke-miterlimit:10;stroke-dasharray:2,2;}
	.st25{fill:#ED1C24;}
	.st26{opacity:0.54;}
	.st27{opacity:0.9;fill:#616161;}
	.st28{fill:#FF9200;}
	.st29{fill:none;stroke:#FFFFFF;stroke-width:2;stroke-miterlimit:10;}
	.st30{fill:#FFFFFF;}
	.st31{fill:#E2E2E2;}
	.st32{fill:#4D4D4D;}
	.st33{fill:none;stroke:#4D4D4D;stroke-miterlimit:10;}
	.st34{fill:none;stroke:#D0003A;stroke-miterlimit:10;}
	.st35{opacity:0.4;fill:#D0003A;}
	.st36{fill:#D0003A;}
</style>
<path class="st32" d="M12,0C5.4,0,0,5.4,0,12s5.4,12,12,12s12-5.4,12-12S18.6,0,12,0z M12,23.1c-6.1,0-11.1-5-11.1-11.1
	C0.9,6.5,5,1.9,10.3,1.1L8.7,11.1L8.6,11c0-0.1-0.1-0.1-0.2-0.2c-0.2-0.1-0.5,0-0.6,0.2l-0.7,1.4l-6,0.4l6.3,0.5
	c0.2,0,0.3-0.1,0.4-0.2l0,0l0.4-0.8l0.3,0.6c0.1,0.1,0.2,0.2,0.3,0.2c0.3,0,0.5-0.1,0.5-0.4l1.2-7.7l1.2,16.7c0,0.2,0.2,0.4,0.4,0.4
	c0.3,0,0.5-0.1,0.5-0.4l1.3-9.4l0.7,0.7l0,0C14.9,13,15,13,15.1,13l6.8-0.5l-6.6-0.4l-1.2-1.2c-0.1-0.1-0.2-0.1-0.3-0.1
	c-0.3,0-0.5,0.1-0.5,0.4l-0.8,6L11.3,1c0.2,0,0.5,0,0.7,0c6.1,0,11.1,5,11.1,11.1S18.1,23.1,12,23.1z"/>
</svg>
