<?xml version="1.0" encoding="utf-8"?>
<!-- Generator: Adobe Illustrator 21.0.2, SVG Export Plug-In . SVG Version: 6.00 Build 0)  -->
<svg version="1.1" id="Layer_1" xmlns="http://www.w3.org/2000/svg" xmlns:xlink="http://www.w3.org/1999/xlink" x="0px" y="0px"
	 width="24px" height="24px" viewBox="0 0 24 24" style="enable-background:new 0 0 24 24;" xml:space="preserve">
<style type="text/css">
	.st0{fill:#F4F4F4;stroke:#D3D3D3;stroke-width:2;stroke-miterlimit:10;}
	.st1{fill:#F7F7F7;}
	.st2{opacity:0;fill:#E6E7E8;}
	.st3{fill:none;stroke:#E6E7E8;stroke-miterlimit:10;}
	.st4{fill:#F1F2F2;}
	.st5{opacity:0.8;}
	.st6{fill:#4285F4;}
	.st7{opacity:0.38;}
	.st8{fill:#FF4081;}
	.st9{opacity:0.12;fill:none;stroke:#000000;stroke-width:2;stroke-miterlimit:10;}
	.st10{opacity:0.26;}
	.st11{fill:#E6E7E8;}
	.st12{fill:#757575;}
	.st13{fill:#E0E0E0;}
	.st14{fill:#30B32D;}
	.st15{fill:none;stroke:#9E9E9E;stroke-miterlimit:10;}
	.st16{fill:none;stroke:#9E9E9E;stroke-width:2;stroke-miterlimit:10;}
	.st17{opacity:0.6;}
	.st18{fill:#9E9E9E;}
	.st19{opacity:0.79;}
	.st20{fill:#F02828;}
	.st21{fill:#FFDD00;}
	.st22{fill:#F03E3E;}
	.st23{fill:#414042;}
	.st24{fill:none;stroke:#ED1C24;stroke-width:2;stroke-miterlimit:10;stroke-dasharray:2,2;}
	.st25{fill:#ED1C24;}
	.st26{opacity:0.54;}
	.st27{opacity:0.9;fill:#616161;}
	.st28{fill:#FF9200;}
	.st29{fill:none;stroke:#FFFFFF;stroke-width:2;stroke-miterlimit:10;}
	.st30{fill:#FFFFFF;}
	.st31{fill:#E2E2E2;}
	.st32{fill:#4D4D4D;}
	.st33{fill:none;stroke:#4D4D4D;stroke-miterlimit:10;}
	.st34{fill:none;stroke:#D0003A;stroke-miterlimit:10;}
	.st35{opacity:0.4;fill:#D0003A;}
	.st36{fill:#D0003A;}
</style>
<g>
	<path class="st32" d="M19.4,12l-0.8-1.7l-2.1,4.9c-0.2,0.4-1,0.9-1,0.9h-0.1c0,0-0.8-0.4-1-0.7l-1.7-2.3h-1.1c0,0-0.9-0.8-1.1-1.2
		l-1-2.2l-1.2,3.4c-0.1,0.4-0.5,0.7-0.9,0.8C7,14,6.6,13.9,6.3,13.6l-2-2.5H0.4c0,0,0.9,2.2,1.7,3l0,0l9.2,8.1
		c0.2,0.1,0.4,0.2,0.6,0.2c0.2,0,0.4-0.1,0.6-0.2l9.2-8.1l0,0c0.4-0.4,1.1-2,1.1-2h-2.5C20.5,12.1,19.6,12.4,19.4,12z"/>
	<path class="st32" d="M5,9.5c-0.2,0,0.2,0.1,0.4,0.4L7,11.6l1.4-3.9C8.5,7.3,8.9,7,9.4,7c0.5,0,0.9,0.2,1.1,0.7l1.4,2.5H13
		c0.4,0.7,0.8,0.9,1,1.2l1.3,2.1l2.2-5c0.2-0.4,0.6-0.7,1.1-0.7s0.9,0.3,1.1,0.7l1.2,2.7h2.8c0,0,0.3-1.6,0.3-2.2
		c0-1.9-0.8-3.8-2.2-5.2c-1.4-1.4-3.2-2.2-5.2-2.2c-1.7,0-3.4,0.6-4.7,1.7c-1.3-1.1-3-1.7-4.7-1.7c-1.9,0-3.8,0.8-5.2,2.2
		C0.8,5.1,0,7,0,8.9c0,0.2,0,0.4,0,1.2h5V9.5z"/>
</g>
</svg>
