<?xml version="1.0" encoding="UTF-8"?>
<svg width="94px" height="102px" viewBox="0 0 94 102" version="1.1" xmlns="http://www.w3.org/2000/svg" xmlns:xlink="http://www.w3.org/1999/xlink">
    <title>Document Editor</title>
    <defs>
        <linearGradient x1="50%" y1="100%" x2="50%" y2="0%" id="linearGradient-1">
            <stop stop-color="#4481EB" offset="0%"></stop>
            <stop stop-color="#04BEFE" offset="100%"></stop>
        </linearGradient>
        <filter x="-54.0%" y="-122.7%" width="208.0%" height="345.5%" filterUnits="objectBoundingBox" id="filter-2">
            <feGaussianBlur stdDeviation="9" in="SourceGraphic"></feGaussianBlur>
        </filter>
        <linearGradient x1="50%" y1="0%" x2="50%" y2="100%" id="linearGradient-3">
            <stop stop-color="#359BEF" offset="0%"></stop>
            <stop stop-color="#3E87ED" offset="100%"></stop>
        </linearGradient>
        <polygon id="path-4" points="29.6233053 33.8357876 29.6233053 38.8264292 24.945549 33.8357876"></polygon>
        <filter x="-21.4%" y="-20.0%" width="142.8%" height="140.1%" filterUnits="objectBoundingBox" id="filter-5">
            <feGaussianBlur stdDeviation="0.5" in="SourceAlpha" result="shadowBlurInner1"></feGaussianBlur>
            <feOffset dx="-1" dy="1" in="shadowBlurInner1" result="shadowOffsetInner1"></feOffset>
            <feComposite in="shadowOffsetInner1" in2="SourceAlpha" operator="arithmetic" k2="-1" k3="1" result="shadowInnerInner1"></feComposite>
            <feColorMatrix values="0 0 0 0 0.20099686   0 0 0 0 0.524673151   0 0 0 0 0.844202899  0 0 0 1 0" type="matrix" in="shadowInnerInner1"></feColorMatrix>
        </filter>
        <linearGradient x1="50%" y1="100%" x2="50%" y2="0%" id="linearGradient-6">
            <stop stop-color="#4481EB" offset="0%"></stop>
            <stop stop-color="#04BEFE" offset="100%"></stop>
        </linearGradient>
        <path d="M8.51775628,0 L35.706168,0 L35.706168,0 L45.9381644,10.1247608 L45.9381644,50.1159184 C45.9381644,52.2366918 44.2189379,53.9559184 42.0981644,53.9559184 L8.51775628,53.9559184 C6.39698284,53.9559184 4.67775628,52.2366918 4.67775628,50.1159184 L4.67775628,3.84 C4.67775628,1.71922656 6.39698284,8.3366897e-16 8.51775628,0 Z" id="path-7"></path>
        <filter x="-3.6%" y="-2.8%" width="107.3%" height="105.6%" filterUnits="objectBoundingBox" id="filter-8">
            <feGaussianBlur stdDeviation="1" in="SourceAlpha" result="shadowBlurInner1"></feGaussianBlur>
            <feOffset dx="-1" dy="1" in="shadowBlurInner1" result="shadowOffsetInner1"></feOffset>
            <feComposite in="shadowOffsetInner1" in2="SourceAlpha" operator="arithmetic" k2="-1" k3="1" result="shadowInnerInner1"></feComposite>
            <feColorMatrix values="0 0 0 0 0   0 0 0 0 0.588803031   0 0 0 0 0.879330842  0 0 0 1 0" type="matrix" in="shadowInnerInner1" result="shadowMatrixInner1"></feColorMatrix>
            <feGaussianBlur stdDeviation="1" in="SourceAlpha" result="shadowBlurInner2"></feGaussianBlur>
            <feOffset dx="1" dy="-1" in="shadowBlurInner2" result="shadowOffsetInner2"></feOffset>
            <feComposite in="shadowOffsetInner2" in2="SourceAlpha" operator="arithmetic" k2="-1" k3="1" result="shadowInnerInner2"></feComposite>
            <feColorMatrix values="0 0 0 0 0.541196646   0 0 0 0 0.723644764   0 0 0 0 1  0 0 0 1 0" type="matrix" in="shadowInnerInner2" result="shadowMatrixInner2"></feColorMatrix>
            <feMerge>
                <feMergeNode in="shadowMatrixInner1"></feMergeNode>
                <feMergeNode in="shadowMatrixInner2"></feMergeNode>
            </feMerge>
        </filter>
        <linearGradient x1="50%" y1="100%" x2="50%" y2="0%" id="linearGradient-9">
            <stop stop-color="#0099FB" offset="0%"></stop>
            <stop stop-color="#005BEA" offset="100%"></stop>
        </linearGradient>
        <path d="M45.9381644,10.1247608 L37.4406208,10.1247608 C36.3802341,10.1247608 35.5206208,9.26514748 35.5206208,8.20476076 L35.5206208,4.54747351e-13 L35.5206208,4.54747351e-13" id="path-10"></path>
        <filter x="-14.4%" y="-14.8%" width="128.8%" height="129.6%" filterUnits="objectBoundingBox" id="filter-11">
            <feGaussianBlur stdDeviation="1" in="SourceAlpha" result="shadowBlurInner1"></feGaussianBlur>
            <feOffset dx="-1" dy="1" in="shadowBlurInner1" result="shadowOffsetInner1"></feOffset>
            <feComposite in="shadowOffsetInner1" in2="SourceAlpha" operator="arithmetic" k2="-1" k3="1" result="shadowInnerInner1"></feComposite>
            <feColorMatrix values="0 0 0 0 0.0940722549   0 0 0 0 0.469821255   0 0 0 0 0.821586277  0 0 0 1 0" type="matrix" in="shadowInnerInner1"></feColorMatrix>
        </filter>
        <linearGradient x1="50%" y1="146.953248%" x2="50%" y2="0%" id="linearGradient-12">
            <stop stop-color="#2FA0F1" offset="0%"></stop>
            <stop stop-color="#04BEFE" offset="100%"></stop>
        </linearGradient>
        <path d="M21,23 L0,23 L0,23 L0,10 C-2.02906125e-16,8.34314575 1.34314575,7 3,7 L21,7 C22.6568542,7 24,8.34314575 24,10 L24,20 C24,21.6568542 22.6568542,23 21,23 Z" id="path-13"></path>
        <filter x="-6.2%" y="-9.4%" width="112.5%" height="118.8%" filterUnits="objectBoundingBox" id="filter-14">
            <feGaussianBlur stdDeviation="1" in="SourceAlpha" result="shadowBlurInner1"></feGaussianBlur>
            <feOffset dx="-1" dy="1" in="shadowBlurInner1" result="shadowOffsetInner1"></feOffset>
            <feComposite in="shadowOffsetInner1" in2="SourceAlpha" operator="arithmetic" k2="-1" k3="1" result="shadowInnerInner1"></feComposite>
            <feColorMatrix values="0 0 0 0 0.0475208065   0 0 0 0 0.644163601   0 0 0 0 0.936848958  0 0 0 1 0" type="matrix" in="shadowInnerInner1" result="shadowMatrixInner1"></feColorMatrix>
            <feGaussianBlur stdDeviation="1" in="SourceAlpha" result="shadowBlurInner2"></feGaussianBlur>
            <feOffset dx="1" dy="-1" in="shadowBlurInner2" result="shadowOffsetInner2"></feOffset>
            <feComposite in="shadowOffsetInner2" in2="SourceAlpha" operator="arithmetic" k2="-1" k3="1" result="shadowInnerInner2"></feComposite>
            <feColorMatrix values="0 0 0 0 0.168730945   0 0 0 0 0.77140101   0 0 0 0 1  0 0 0 1 0" type="matrix" in="shadowInnerInner2" result="shadowMatrixInner2"></feColorMatrix>
            <feMerge>
                <feMergeNode in="shadowMatrixInner1"></feMergeNode>
                <feMergeNode in="shadowMatrixInner2"></feMergeNode>
            </feMerge>
        </filter>
        <linearGradient x1="34.6381044%" y1="46.2654859%" x2="56.5046993%" y2="69.6939442%" id="linearGradient-15">
            <stop stop-color="#EFF7FF" offset="0%"></stop>
            <stop stop-color="#C6E4FE" offset="49.179007%"></stop>
            <stop stop-color="#B2D7FF" offset="81.9438374%"></stop>
            <stop stop-color="#BCE3FF" offset="100%"></stop>
        </linearGradient>
        <path d="M0.48,18.3941125 L4.30294373,18.3941125 C4.62120351,18.3941125 4.92642821,18.2676843 5.15147186,18.0426407 L17.4,5.79411251 L17.4,5.79411251 C18.7254834,4.46862911 18.7254833,2.31959594 17.4,0.99411255 C16.0745166,-0.331370836 13.9254834,-0.331370852 12.6,0.994112514 L0.351471863,13.2426407 C0.126428208,13.4676843 2.90439777e-13,13.772909 2.86703994e-13,14.0911688 L2.86703994e-13,17.9141125 C2.86736459e-13,18.1792092 0.21490332,18.3941125 0.48,18.3941125 Z" id="path-16"></path>
        <linearGradient x1="9.94482042%" y1="22.3334207%" x2="76.7058751%" y2="90.6928996%" id="linearGradient-18">
            <stop stop-color="#F1FAFF" offset="0%"></stop>
            <stop stop-color="#A1D4FF" offset="48.3555507%"></stop>
            <stop stop-color="#86D2FF" offset="76.3849432%"></stop>
            <stop stop-color="#A7DBFE" offset="100%"></stop>
        </linearGradient>
    </defs>
    <g id="Document-Editor" stroke="none" stroke-width="1" fill="none" fill-rule="evenodd">
        <rect id="Rectangle-Copy-7" fill="url(#linearGradient-1)" opacity="0.16" filter="url(#filter-2)" x="22" y="66" width="50" height="22" rx="2"></rect>
        <g id="Path-54-Copy" transform="translate(27.284427, 36.331108) rotate(-22.000000) translate(-27.284427, -36.331108) ">
            <use fill="url(#linearGradient-3)" fill-rule="evenodd" xlink:href="#path-4"></use>
            <use fill="black" fill-opacity="1" filter="url(#filter-5)" xlink:href="#path-4"></use>
        </g>
        <g id="Group-26" transform="translate(47.000000, 30.000000) rotate(-22.000000) translate(-47.000000, -30.000000) translate(24.000000, 3.000000)">
            <g id="Group-Copy">
                <g id="Rectangle">
                    <use fill="url(#linearGradient-6)" fill-rule="evenodd" xlink:href="#path-7"></use>
                    <use fill="black" fill-opacity="1" filter="url(#filter-8)" xlink:href="#path-7"></use>
                </g>
                <g id="Path-26">
                    <use fill="url(#linearGradient-9)" fill-rule="evenodd" xlink:href="#path-10"></use>
                    <use fill="black" fill-opacity="1" filter="url(#filter-11)" xlink:href="#path-10"></use>
                </g>
                <g id="Path-27-Copy">
                    <use fill="url(#linearGradient-12)" fill-rule="evenodd" xlink:href="#path-13"></use>
                    <use fill="black" fill-opacity="1" filter="url(#filter-14)" xlink:href="#path-13"></use>
                </g>
                <text id="W" font-family="Helvetica" font-size="12" font-weight="normal" fill="#CFEAFF">
                    <tspan x="5" y="18">W</tspan>
                </text>
            </g>
            <g id="Group-Copy-2" transform="translate(24.607606, 26.728236)">
                <g id="Path" transform="translate(0.000000, 0.805887)">
                    <mask id="mask-17" fill="white">
                        <use xlink:href="#path-16"></use>
                    </mask>
                    <use id="Mask" fill="url(#linearGradient-15)" xlink:href="#path-16"></use>
                    <path d="M10.7636039,1.55771641 C11.0831238,1.23819654 11.5831202,1.20914927 11.935454,1.47057463 L12.0363961,1.55771641 L16.8363961,6.35771641 C17.187868,6.70918827 17.187868,7.27903675 16.8363961,7.63050862 C16.5168762,7.95002849 16.0168798,7.97907575 15.664546,7.7176504 L15.5636039,7.63050862 L10.7636039,2.83050862 C10.412132,2.47903675 10.412132,1.90918827 10.7636039,1.55771641 Z" fill="url(#linearGradient-18)" mask="url(#mask-17)"></path>
                </g>
            </g>
            <path d="M16,42 C16.5522847,42 17,42.4477153 17,43 C17,43.5522847 16.5522847,44 16,44 L10,44 C9.44771525,44 9,43.5522847 9,43 C9,42.4477153 9.44771525,42 10,42 L16,42 Z M21,36 C21.5522847,36 22,36.4477153 22,37 C22,37.5522847 21.5522847,38 21,38 L10,38 C9.44771525,38 9,37.5522847 9,37 C9,36.4477153 9.44771525,36 10,36 L21,36 Z M25,30 C25.5522847,30 26,30.4477153 26,31 C26,31.5522847 25.5522847,32 25,32 L10,32 C9.44771525,32 9,31.5522847 9,31 C9,30.4477153 9.44771525,30 10,30 L25,30 Z" id="Combined-Shape" fill="#BEE1FF"></path>
        </g>
    </g>
</svg>