<?xml version="1.0" encoding="UTF-8"?>
<svg width="28px" height="28px" viewBox="0 0 28 28" version="1.1" xmlns="http://www.w3.org/2000/svg" xmlns:xlink="http://www.w3.org/1999/xlink">
    <!-- Generator: Sketch 63.1 (92452) - https://sketch.com -->
    <title>nuget</title>
    <desc>Created with Sketch.</desc>
    <g id="nuget" stroke="none" stroke-width="1" fill="none" fill-rule="evenodd">
        <g id="Group" transform="translate(1.000000, 1.000000)" fill="#FFFFFF" fill-rule="nonzero">
            <path d="M18.7460049,4.20701197 L12.0441953,4.20701197 C10.1986166,4.1993366 8.42602346,4.90248084 7.11910817,6.16073647 C5.81219287,7.41899211 5.07884847,9.12848321 5.08152941,10.9104968 L5.08152941,17.3814298 C5.08152941,21.0782774 8.18534985,24.0751645 12.0140973,24.0751645 L18.7159069,24.0751645 C20.5562759,24.0751645 22.3211219,23.368606 23.621518,22.1111913 C24.9219141,20.8537767 25.6511308,19.1487094 25.648475,17.3717428 L25.648475,10.9104968 C25.654033,7.2211896 22.566911,4.22308853 18.7460049,4.20701197 L18.7460049,4.20701197 Z M11.9739667,11.4432832 C11.3797548,12.027973 10.4689088,12.1886302 9.69898009,11.8445506 C8.92905137,11.5004711 8.46645339,10.7260247 8.54356606,9.91024433 C8.62067873,9.09446394 9.22083481,8.41367343 10.0425539,8.20985882 C10.864273,8.00604422 11.7299476,8.32325829 12.2047176,9.00215279 C12.7384735,9.76539376 12.6420041,10.785951 11.9739667,11.4432832 Z M18.6256131,20.8396979 C16.6863054,20.8396979 15.1141859,19.3217378 15.1141859,17.449239 C15.1141859,15.5767403 16.6863054,14.0587801 18.6256131,14.0587801 C20.5649208,14.0587801 22.1370403,15.5767403 22.1370403,17.449239 C22.1370403,19.3217378 20.5649208,20.8396979 18.6256131,20.8396979 L18.6256131,20.8396979 Z" id="Shape"></path>
            <ellipse id="Oval" cx="2.82419072" cy="2.66683812" rx="2.75897851" ry="2.66393201"></ellipse>
        </g>
    </g>
</svg>