<?xml version="1.0" encoding="UTF-8"?>
<svg width="94px" height="102px" viewBox="0 0 94 102" version="1.1" xmlns="http://www.w3.org/2000/svg" xmlns:xlink="http://www.w3.org/1999/xlink">
    <title>PDF Viewer</title>
    <defs>
        <linearGradient x1="50%" y1="0%" x2="50%" y2="100%" id="linearGradient-1">
            <stop stop-color="#FF4B82" offset="0%"></stop>
            <stop stop-color="#E62274" offset="100%"></stop>
        </linearGradient>
        <filter x="-54.0%" y="-122.7%" width="208.0%" height="345.5%" filterUnits="objectBoundingBox" id="filter-2">
            <feGaussianBlur stdDeviation="9" in="SourceGraphic"></feGaussianBlur>
        </filter>
        <linearGradient x1="75.2149868%" y1="100%" x2="31.9731897%" y2="8.35555085%" id="linearGradient-3">
            <stop stop-color="#EB3A60" offset="0%"></stop>
            <stop stop-color="#EF515F" offset="100%"></stop>
        </linearGradient>
        <path d="M14.8744157,6.18116223 L42.0628275,6.18116223 L42.0628275,6.18116223 L52.2948239,16.305923 L52.2948239,56.2970806 C52.2948239,58.417854 50.5755974,60.1370806 48.4548239,60.1370806 L14.8744157,60.1370806 C12.7536423,60.1370806 11.0344157,58.417854 11.0344157,56.2970806 L11.0344157,10.0211622 C11.0344157,7.90038879 12.7536423,6.18116223 14.8744157,6.18116223 Z" id="path-4"></path>
        <filter x="-3.6%" y="-2.8%" width="107.3%" height="105.6%" filterUnits="objectBoundingBox" id="filter-5">
            <feGaussianBlur stdDeviation="1" in="SourceAlpha" result="shadowBlurInner1"></feGaussianBlur>
            <feOffset dx="-1" dy="1" in="shadowBlurInner1" result="shadowOffsetInner1"></feOffset>
            <feComposite in="shadowOffsetInner1" in2="SourceAlpha" operator="arithmetic" k2="-1" k3="1" result="shadowInnerInner1"></feComposite>
            <feColorMatrix values="0 0 0 0 0.831465127   0 0 0 0 0.11892106   0 0 0 0 0.233437071  0 0 0 1 0" type="matrix" in="shadowInnerInner1" result="shadowMatrixInner1"></feColorMatrix>
            <feGaussianBlur stdDeviation="1" in="SourceAlpha" result="shadowBlurInner2"></feGaussianBlur>
            <feOffset dx="1" dy="-1" in="shadowBlurInner2" result="shadowOffsetInner2"></feOffset>
            <feComposite in="shadowOffsetInner2" in2="SourceAlpha" operator="arithmetic" k2="-1" k3="1" result="shadowInnerInner2"></feComposite>
            <feColorMatrix values="0 0 0 0 1   0 0 0 0 0.49929497   0 0 0 0 0.576785034  0 0 0 1 0" type="matrix" in="shadowInnerInner2" result="shadowMatrixInner2"></feColorMatrix>
            <feMerge>
                <feMergeNode in="shadowMatrixInner1"></feMergeNode>
                <feMergeNode in="shadowMatrixInner2"></feMergeNode>
            </feMerge>
        </filter>
        <linearGradient x1="23.1637679%" y1="48.6801891%" x2="70.3972264%" y2="51.8225798%" id="linearGradient-6">
            <stop stop-color="#FF9CAC" offset="0%"></stop>
            <stop stop-color="#FF6F86" offset="100%"></stop>
        </linearGradient>
        <linearGradient x1="23.1637679%" y1="49.7979118%" x2="70.3972264%" y2="50.2790718%" id="linearGradient-7">
            <stop stop-color="#FF9CAC" offset="0%"></stop>
            <stop stop-color="#FF6F86" offset="100%"></stop>
        </linearGradient>
        <linearGradient x1="50%" y1="0%" x2="50%" y2="100%" id="linearGradient-8">
            <stop stop-color="#FF3648" offset="0%"></stop>
            <stop stop-color="#DA2A44" offset="100%"></stop>
        </linearGradient>
        <path d="M42.9621743,12.1247608 L34.4646307,12.1247608 C33.404244,12.1247608 32.5446307,11.2651475 32.5446307,10.2047608 L32.5446307,2 L32.5446307,2" id="path-9"></path>
        <filter x="-14.4%" y="-14.8%" width="128.8%" height="129.6%" filterUnits="objectBoundingBox" id="filter-10">
            <feGaussianBlur stdDeviation="1" in="SourceAlpha" result="shadowBlurInner1"></feGaussianBlur>
            <feOffset dx="-1" dy="1" in="shadowBlurInner1" result="shadowOffsetInner1"></feOffset>
            <feComposite in="shadowOffsetInner1" in2="SourceAlpha" operator="arithmetic" k2="-1" k3="1" result="shadowInnerInner1"></feComposite>
            <feColorMatrix values="0 0 0 0 0.71447577   0 0 0 0 0.0137095484   0 0 0 0 0.11439435  0 0 0 1 0" type="matrix" in="shadowInnerInner1"></feColorMatrix>
        </filter>
        <linearGradient x1="23.1637679%" y1="23.2738291%" x2="70.3972264%" y2="86.9072417%" id="linearGradient-11">
            <stop stop-color="#FF9CAC" offset="0%"></stop>
            <stop stop-color="#FF6F86" offset="100%"></stop>
        </linearGradient>
        <linearGradient x1="111.352147%" y1="54.5030296%" x2="-9.12401208%" y2="54.5030296%" id="linearGradient-12">
            <stop stop-color="#DB2F54" offset="0%"></stop>
            <stop stop-color="#EB4655" offset="100%"></stop>
        </linearGradient>
        <path d="M26.9268968,31.2134926 L2,31.2134926 L2,31.2134926 L2,20.1855491 C2,18.8600657 3.0745166,17.7855491 4.4,17.7855491 L26.9268968,17.7855491 C29.0476703,17.7855491 30.7668968,19.5047757 30.7668968,21.6255491 L30.7668968,27.3734926 C30.7668968,29.494266 29.0476703,31.2134926 26.9268968,31.2134926 Z" id="path-13"></path>
        <filter x="-5.2%" y="-11.2%" width="110.4%" height="122.3%" filterUnits="objectBoundingBox" id="filter-14">
            <feGaussianBlur stdDeviation="1" in="SourceAlpha" result="shadowBlurInner1"></feGaussianBlur>
            <feOffset dx="1" dy="-1" in="shadowBlurInner1" result="shadowOffsetInner1"></feOffset>
            <feComposite in="shadowOffsetInner1" in2="SourceAlpha" operator="arithmetic" k2="-1" k3="1" result="shadowInnerInner1"></feComposite>
            <feColorMatrix values="0 0 0 0 0.982365263   0 0 0 0 0.391991444   0 0 0 0 0.477346695  0 0 0 1 0" type="matrix" in="shadowInnerInner1" result="shadowMatrixInner1"></feColorMatrix>
            <feGaussianBlur stdDeviation="1" in="SourceAlpha" result="shadowBlurInner2"></feGaussianBlur>
            <feOffset dx="-1" dy="1" in="shadowBlurInner2" result="shadowOffsetInner2"></feOffset>
            <feComposite in="shadowOffsetInner2" in2="SourceAlpha" operator="arithmetic" k2="-1" k3="1" result="shadowInnerInner2"></feComposite>
            <feColorMatrix values="0 0 0 0 0.834522192   0 0 0 0 0.149539762   0 0 0 0 0.274448323  0 0 0 1 0" type="matrix" in="shadowInnerInner2" result="shadowMatrixInner2"></feColorMatrix>
            <feMerge>
                <feMergeNode in="shadowMatrixInner1"></feMergeNode>
                <feMergeNode in="shadowMatrixInner2"></feMergeNode>
            </feMerge>
        </filter>
        <linearGradient x1="50%" y1="0%" x2="50%" y2="100%" id="linearGradient-15">
            <stop stop-color="#C7194E" offset="0%"></stop>
            <stop stop-color="#C3115C" offset="100%"></stop>
        </linearGradient>
        <polygon id="path-16" points="11.0046572 35.0548829 11.0046572 40.0455245 6.32690089 35.0548829"></polygon>
        <filter x="-21.4%" y="-20.0%" width="142.8%" height="140.1%" filterUnits="objectBoundingBox" id="filter-17">
            <feGaussianBlur stdDeviation="0.5" in="SourceAlpha" result="shadowBlurInner1"></feGaussianBlur>
            <feOffset dx="-1" dy="1" in="shadowBlurInner1" result="shadowOffsetInner1"></feOffset>
            <feComposite in="shadowOffsetInner1" in2="SourceAlpha" operator="arithmetic" k2="-1" k3="1" result="shadowInnerInner1"></feComposite>
            <feColorMatrix values="0 0 0 0 0.708956069   0 0 0 0 0.0771773251   0 0 0 0 0.194717556  0 0 0 1 0" type="matrix" in="shadowInnerInner1"></feColorMatrix>
        </filter>
        <linearGradient x1="23.1637679%" y1="45.7961869%" x2="70.3972264%" y2="55.8052142%" id="linearGradient-18">
            <stop stop-color="#FFCCD4" offset="0%"></stop>
            <stop stop-color="#FFBFCA" offset="100%"></stop>
        </linearGradient>
    </defs>
    <g id="PDF-Viewer" stroke="none" stroke-width="1" fill="none" fill-rule="evenodd">
        <rect id="Rectangle-Copy-8" fill="url(#linearGradient-1)" opacity="0.160922" filter="url(#filter-2)" x="22" y="66" width="50" height="22" rx="2"></rect>
        <g id="Group-27" transform="translate(16.000000, -4.000000)">
            <g id="Rectangle" transform="translate(31.664620, 33.159121) rotate(-22.000000) translate(-31.664620, -33.159121) ">
                <use fill="url(#linearGradient-3)" fill-rule="evenodd" xlink:href="#path-4"></use>
                <use fill="black" fill-opacity="1" filter="url(#filter-5)" xlink:href="#path-4"></use>
            </g>
            <rect id="Rectangle" fill="url(#linearGradient-6)" transform="translate(39.125556, 31.856276) rotate(-22.000000) translate(-39.125556, -31.856276) " x="34.3647399" y="30.7983168" width="9.52163265" height="2.11591837" rx="1.05795918"></rect>
            <rect id="Rectangle-Copy" fill="url(#linearGradient-6)" transform="translate(40.710830, 35.779967) rotate(-22.000000) translate(-40.710830, -35.779967) " x="35.9500139" y="34.7220075" width="9.52163265" height="2.11591837" rx="1.05795918"></rect>
            <rect id="Rectangle-Copy-2" fill="url(#linearGradient-6)" transform="translate(42.296104, 39.703657) rotate(-22.000000) translate(-42.296104, -39.703657) " x="37.5352878" y="38.6456982" width="9.52163265" height="2.11591837" rx="1.05795918"></rect>
            <rect id="Rectangle-Copy-3" fill="url(#linearGradient-7)" transform="translate(37.411238, 47.382500) rotate(-22.000000) translate(-37.411238, -47.382500) " x="25.2447073" y="46.324541" width="24.3330612" height="2.11591837" rx="1.05795918"></rect>
            <rect id="Rectangle-Copy-4" fill="url(#linearGradient-7)" transform="translate(38.996512, 51.306191) rotate(-22.000000) translate(-38.996512, -51.306191) " x="26.8299812" y="50.2482317" width="24.3330612" height="2.11591837" rx="1.05795918"></rect>
            <g id="Path-26" transform="translate(37.753403, 7.062380) rotate(-22.000000) translate(-37.753403, -7.062380) ">
                <use fill="url(#linearGradient-8)" fill-rule="evenodd" xlink:href="#path-9"></use>
                <use fill="black" fill-opacity="1" filter="url(#filter-10)" xlink:href="#path-9"></use>
            </g>
            <rect id="Rectangle" fill="url(#linearGradient-11)" transform="translate(28.156995, 41.422568) rotate(-22.000000) translate(-28.156995, -41.422568) " x="22.3382192" y="35.6037929" width="11.637551" height="11.637551" rx="1.92"></rect>
            <g id="Path-27" transform="translate(16.383448, 24.499521) rotate(-22.000000) translate(-16.383448, -24.499521) ">
                <use fill="url(#linearGradient-12)" fill-rule="evenodd" xlink:href="#path-13"></use>
                <use fill="black" fill-opacity="1" filter="url(#filter-14)" xlink:href="#path-13"></use>
            </g>
            <g id="Path-54" transform="translate(8.665779, 37.550204) rotate(-22.000000) translate(-8.665779, -37.550204) ">
                <use fill="url(#linearGradient-15)" fill-rule="evenodd" xlink:href="#path-16"></use>
                <use fill="black" fill-opacity="1" filter="url(#filter-17)" xlink:href="#path-16"></use>
            </g>
            <path d="M9.37238708,27.8489829 C9.53742871,27.8489829 9.67073157,27.7950269 9.77229565,27.6871151 C9.87385973,27.5792033 9.92464177,27.4395527 9.92464177,27.2681633 L9.92464177,27.2681633 L9.92464177,25.4685747 L11.5814059,25.4685747 C11.9051414,25.4685747 12.2130075,25.3717714 12.5050042,25.1781649 C12.797001,24.9845584 13.0318679,24.7227135 13.209605,24.3926302 C13.3873422,24.0625469 13.4762108,23.7070727 13.4762108,23.3262073 C13.4762108,22.9389943 13.3873422,22.5819331 13.209605,22.2550237 C13.0318679,21.9281143 12.797001,21.6678563 12.5050042,21.4742498 C12.2130075,21.2806433 11.9051414,21.18384 11.5814059,21.18384 L11.5814059,21.18384 L9.41047361,21.18384 C9.24543198,21.18384 9.1073683,21.2393829 8.99628259,21.3504686 C8.88519688,21.4615543 8.82965402,21.599618 8.82965402,21.7646596 L8.82965402,21.7646596 L8.82965402,27.2681633 C8.82965402,27.4332049 8.88043606,27.5712686 8.98200014,27.6823543 C9.08356422,27.79344 9.2136932,27.8489829 9.37238708,27.8489829 Z M11.5814059,24.3831086 L9.92464177,24.3831086 L9.92464177,22.2788278 L11.5814059,22.2788278 C11.7020132,22.2788278 11.8210336,22.3280229 11.9384671,22.4264131 C12.0559005,22.5248033 12.1511169,22.6549322 12.2241161,22.8168 C12.2971152,22.9786678 12.3336148,23.1484702 12.3336148,23.3262073 C12.3336148,23.5039445 12.2971152,23.6737469 12.2241161,23.8356147 C12.1511169,23.9974824 12.0559005,24.1291984 11.9384671,24.2307624 C11.8210336,24.3323265 11.7020132,24.3831086 11.5814059,24.3831086 L11.5814059,24.3831086 Z M17.4276883,27.8489829 C18.0243773,27.8489829 18.5369585,27.7013975 18.965432,27.4062269 C19.3939054,27.1110563 19.7208148,26.7111478 19.9461601,26.2065012 C20.1715054,25.7018547 20.2841781,25.1384914 20.2841781,24.5164114 C20.2841781,23.8943314 20.1715054,23.3309682 19.9461601,22.8263216 C19.7208148,22.3216751 19.3939054,21.9217665 18.965432,21.6265959 C18.5369585,21.3314253 18.0243773,21.18384 17.4276883,21.18384 L17.4276883,21.18384 L15.1520181,21.18384 C14.9869765,21.18384 14.8489128,21.2393829 14.7378271,21.3504686 C14.6267414,21.4615543 14.5711985,21.599618 14.5711985,21.7646596 L14.5711985,21.7646596 L14.5711985,27.2681633 C14.5711985,27.4332049 14.6267414,27.5712686 14.7378271,27.6823543 C14.8489128,27.79344 14.9869765,27.8489829 15.1520181,27.8489829 L15.1520181,27.8489829 L17.4276883,27.8489829 Z M17.332472,26.7539951 L15.7614026,26.7539951 L15.7614026,22.2788278 L17.332472,22.2788278 C17.8974222,22.2788278 18.3243087,22.4898906 18.6131316,22.9120163 C18.9019544,23.334142 19.0463659,23.8689404 19.0463659,24.5164114 C19.0463659,25.1638824 18.9035414,25.6986808 18.6178924,26.1208065 C18.3322434,26.5429322 17.9037699,26.7539951 17.332472,26.7539951 L17.332472,26.7539951 Z M21.9790287,27.8489829 C22.1377226,27.8489829 22.2757863,27.79344 22.3932197,27.6823543 C22.5106532,27.5712686 22.5693699,27.4332049 22.5693699,27.2681633 L22.5693699,27.2681633 L22.5693699,25.0496229 L24.6260426,25.0496229 C24.7910842,25.0496229 24.9291479,24.9956669 25.0402336,24.8877551 C25.1513193,24.7798433 25.2068622,24.656062 25.2068622,24.5164114 C25.2068622,24.3513698 25.1513193,24.21648 25.0402336,24.111742 C24.9291479,24.0070041 24.7910842,23.9546351 24.6260426,23.9546351 L24.6260426,23.9546351 L22.5693699,23.9546351 L22.5693699,22.2788278 L25.0545161,22.2788278 C25.2195577,22.2788278 25.3576214,22.2248718 25.4687071,22.11696 C25.5797928,22.0090482 25.6353357,21.8852669 25.6353357,21.7456163 C25.6353357,21.5805747 25.5797928,21.4456849 25.4687071,21.3409469 C25.3576214,21.236209 25.2195577,21.18384 25.0545161,21.18384 L25.0545161,21.18384 L21.9599854,21.18384 C21.7949438,21.18384 21.6568801,21.2393829 21.5457944,21.3504686 C21.4347087,21.4615543 21.3791659,21.599618 21.3791659,21.7646596 L21.3791659,21.7646596 L21.3791659,27.2681633 C21.3791659,27.4395527 21.4347087,27.5792033 21.5457944,27.6871151 C21.6568801,27.7950269 21.8012916,27.8489829 21.9790287,27.8489829 Z" id="PDF" fill="url(#linearGradient-18)" transform="translate(17.232495, 24.516411) rotate(-22.000000) translate(-17.232495, -24.516411) "></path>
        </g>
    </g>
</svg>