<svg id="Layer_1" data-name="Layer 1" xmlns="http://www.w3.org/2000/svg" xmlns:xlink="http://www.w3.org/1999/xlink" width="63.15" height="22.59" viewBox="0 0 63.15 22.59"><defs><style>.cls-1{fill:none;}.cls-2{clip-path:url(#clip-path);}.cls-3{fill:#0058ff;}.cls-4{fill:#fff;}</style><clipPath id="clip-path"><rect class="cls-1" x="0.58" y="0.79" width="62" height="21" rx="2" ry="2"/></clipPath></defs><title>Preview-label</title><g class="cls-2"><rect class="cls-3" x="-4.42" y="-4.21" width="72" height="31"/></g><path class="cls-4" d="M7.59,12.42v3.38H6.4V7.26H9.2A2.48,2.48,0,0,1,11.08,8a2.59,2.59,0,0,1,.68,1.87,2.59,2.59,0,0,1-.68,1.87,2.48,2.48,0,0,1-1.88.71Zm0-.9H9.2a1.18,1.18,0,0,0,1-.47,2,2,0,0,0,.35-1.19,2,2,0,0,0-.34-1.21,1.18,1.18,0,0,0-1-.48H7.59Z"/><path class="cls-4" d="M15.3,12.11v3.68H14.11V7.27h2.65a2.62,2.62,0,0,1,1.88.63,2.35,2.35,0,0,1,.66,1.8A2.17,2.17,0,0,1,19,10.86a2.08,2.08,0,0,1-.89.78,1.58,1.58,0,0,1,.92.74,2.64,2.64,0,0,1,.28,1.28v.74a3.2,3.2,0,0,0,.08.73,1.08,1.08,0,0,0,.27.53v.13H18.44a1,1,0,0,1-.25-.58,5.84,5.84,0,0,1-.06-.82v-.72a1.79,1.79,0,0,0-.33-1.13,1.07,1.07,0,0,0-.89-.42Zm0-.9h1.41a1.34,1.34,0,0,0,1.06-.39,1.62,1.62,0,0,0,.34-1.11,1.74,1.74,0,0,0-.33-1.14,1.24,1.24,0,0,0-1-.41H15.3Z"/><path class="cls-4" d="M26.36,11.83H23.19v3.06h3.67v.9H22V7.26h4.82v.9H23.19v2.76h3.16Z"/><path class="cls-4" d="M31.36,13.91l.12.5h0l.12-.49,1.74-6.65h1.26l-2.57,8.53H30.92L28.36,7.26h1.27Z"/><path class="cls-4" d="M38,15.79H36.77V7.26H38Z"/><path class="cls-4" d="M45.12,11.83H42v3.06h3.67v.9H40.77V7.26h4.82v.9H42v2.76h3.16Z"/><path class="cls-4" d="M53.45,13.34h0l1.15-6.08H55.8l-1.72,8.53H53L51.54,9.74h0L50,15.79h-1.1L47.23,7.26H48.4l1.15,6.08h0L51,7.26H52Z"/></svg>