<svg width="94" height="102" viewBox="0 0 94 102" fill="none" xmlns="http://www.w3.org/2000/svg">
<g clip-path="url(#clip0_42_3)">
<g filter="url(#filter0_i_42_3)">
<rect x="13" y="28.6192" width="56.2972" height="44.3191" rx="5.98906" transform="rotate(-22.5829 13 28.6192)" fill="url(#paint0_linear_42_3)"/>
</g>
<g filter="url(#filter1_ii_42_3)">
<path d="M15.2999 34.1491C14.0297 31.095 15.4758 27.5895 18.5299 26.3193L59.4508 9.29991C62.5048 8.0297 66.0103 9.4758 67.2805 12.5298L67.9705 14.1888L15.9899 35.808L15.2999 34.1491Z" fill="#FF7A7A"/>
</g>
<circle cx="18.6423" cy="30.4885" r="0.89836" transform="rotate(-22.5829 18.6423 30.4885)" fill="white"/>
<circle cx="21.4073" cy="29.3387" r="0.89836" transform="rotate(-22.5829 21.4073 29.3387)" fill="white"/>
<circle cx="24.1722" cy="28.1886" r="0.89836" transform="rotate(-22.5829 24.1722 28.1886)" fill="white"/>
<path d="M32.7633 42.9113L31.0892 43.6076L28.385 37.1057L26.2411 37.9974L25.6617 36.6041L31.6235 34.1245L32.203 35.5178L30.0591 36.4094L32.7633 42.9113Z" fill="url(#paint1_linear_42_3)"/>
<rect x="55.1928" y="39.611" width="13.7748" height="11.3792" rx="0.598906" transform="rotate(-22.5829 55.1928 39.611)" fill="url(#paint2_linear_42_3)"/>
<rect x="37.5953" y="37.849" width="29.3464" height="2.39563" rx="0.598906" transform="rotate(-22.5829 37.5953 37.849)" fill="url(#paint3_linear_42_3)"/>
<rect x="34.8354" y="31.2132" width="29.3464" height="2.39563" rx="0.598906" transform="rotate(-22.5829 34.8354 31.2132)" fill="url(#paint4_linear_42_3)"/>
<rect x="38.9752" y="41.167" width="29.3464" height="2.39563" rx="0.598906" transform="rotate(-22.5829 38.9752 41.167)" fill="url(#paint5_linear_42_3)"/>
<rect x="36.2153" y="34.5311" width="29.3464" height="2.39563" rx="0.598906" transform="rotate(-22.5829 36.2153 34.5311)" fill="url(#paint6_linear_42_3)"/>
<path d="M61.1336 42.9779L66.5558 46.5605L59.8512 49.349L61.1336 42.9779Z" fill="#FFB7B7"/>
<path d="M64.591 39.594L71.9005 44.3377L62.8014 48.1221L64.591 39.594Z" fill="#FFB7B7"/>
<g opacity="0.160922" filter="url(#filter2_f_42_3)">
<path d="M71 64H25C23.8954 64 23 64.8954 23 66V84C23 85.1046 23.8954 86 25 86H71C72.1046 86 73 85.1046 73 84V66C73 64.8954 72.1046 64 71 64Z" fill="url(#paint7_linear_42_3)"/>
</g>
</g>
<defs>
<filter id="filter0_i_42_3" x="14.8391" y="7.64132" width="66.5195" height="60.0597" filterUnits="userSpaceOnUse" color-interpolation-filters="sRGB">
<feFlood flood-opacity="0" result="BackgroundImageFix"/>
<feBlend mode="normal" in="SourceGraphic" in2="BackgroundImageFix" result="shape"/>
<feColorMatrix in="SourceAlpha" type="matrix" values="0 0 0 0 0 0 0 0 0 0 0 0 0 0 0 0 0 0 127 0" result="hardAlpha"/>
<feOffset dx="1.19781" dy="-1.19781"/>
<feGaussianBlur stdDeviation="1.19781"/>
<feComposite in2="hardAlpha" operator="arithmetic" k2="-1" k3="1"/>
<feColorMatrix type="matrix" values="0 0 0 0 1 0 0 0 0 1 0 0 0 0 1 0 0 0 0.5 0"/>
<feBlend mode="normal" in2="shape" result="effect1_innerShadow_42_3"/>
</filter>
<filter id="filter1_ii_42_3" x="13.6413" y="7.64132" width="55.527" height="29.3645" filterUnits="userSpaceOnUse" color-interpolation-filters="sRGB">
<feFlood flood-opacity="0" result="BackgroundImageFix"/>
<feBlend mode="normal" in="SourceGraphic" in2="BackgroundImageFix" result="shape"/>
<feColorMatrix in="SourceAlpha" type="matrix" values="0 0 0 0 0 0 0 0 0 0 0 0 0 0 0 0 0 0 127 0" result="hardAlpha"/>
<feOffset dx="1.19781" dy="1.19781"/>
<feGaussianBlur stdDeviation="1.79672"/>
<feComposite in2="hardAlpha" operator="arithmetic" k2="-1" k3="1"/>
<feColorMatrix type="matrix" values="0 0 0 0 1 0 0 0 0 0.486275 0 0 0 0 0.486275 0 0 0 1 0"/>
<feBlend mode="normal" in2="shape" result="effect1_innerShadow_42_3"/>
<feColorMatrix in="SourceAlpha" type="matrix" values="0 0 0 0 0 0 0 0 0 0 0 0 0 0 0 0 0 0 127 0" result="hardAlpha"/>
<feOffset dx="-1.19781" dy="-1.19781"/>
<feGaussianBlur stdDeviation="1.79672"/>
<feComposite in2="hardAlpha" operator="arithmetic" k2="-1" k3="1"/>
<feColorMatrix type="matrix" values="0 0 0 0 1 0 0 0 0 0.487179 0 0 0 0 0.487179 0 0 0 1 0"/>
<feBlend mode="normal" in2="effect1_innerShadow_42_3" result="effect2_innerShadow_42_3"/>
</filter>
<filter id="filter2_f_42_3" x="5" y="46" width="86" height="58" filterUnits="userSpaceOnUse" color-interpolation-filters="sRGB">
<feFlood flood-opacity="0" result="BackgroundImageFix"/>
<feBlend mode="normal" in="SourceGraphic" in2="BackgroundImageFix" result="shape"/>
<feGaussianBlur stdDeviation="9" result="effect1_foregroundBlur_42_3"/>
</filter>
<linearGradient id="paint0_linear_42_3" x1="67.201" y1="30.7154" x2="16.8929" y2="72.9383" gradientUnits="userSpaceOnUse">
<stop stop-color="#EC9091"/>
<stop offset="1" stop-color="#F3A2A1"/>
</linearGradient>
<linearGradient id="paint1_linear_42_3" x1="30.1949" y1="29.9" x2="21.7279" y2="37.0795" gradientUnits="userSpaceOnUse">
<stop stop-color="#FFE3E3"/>
<stop offset="1" stop-color="#FFC4C4"/>
</linearGradient>
<linearGradient id="paint2_linear_42_3" x1="68.9676" y1="39.611" x2="56.0911" y2="50.9902" gradientUnits="userSpaceOnUse">
<stop stop-color="#FFE3E3"/>
<stop offset="1" stop-color="#FFC4C4"/>
</linearGradient>
<linearGradient id="paint3_linear_42_3" x1="66.9417" y1="37.849" x2="66.3383" y2="43.2447" gradientUnits="userSpaceOnUse">
<stop stop-color="#FFE3E3"/>
<stop offset="1" stop-color="#FFC4C4"/>
</linearGradient>
<linearGradient id="paint4_linear_42_3" x1="64.1818" y1="31.2132" x2="63.5785" y2="36.6089" gradientUnits="userSpaceOnUse">
<stop stop-color="#FFE3E3"/>
<stop offset="1" stop-color="#FFC4C4"/>
</linearGradient>
<linearGradient id="paint5_linear_42_3" x1="68.3216" y1="41.167" x2="67.7183" y2="46.5626" gradientUnits="userSpaceOnUse">
<stop stop-color="#FFE3E3"/>
<stop offset="1" stop-color="#FFC4C4"/>
</linearGradient>
<linearGradient id="paint6_linear_42_3" x1="65.5617" y1="34.5311" x2="64.9584" y2="39.9268" gradientUnits="userSpaceOnUse">
<stop stop-color="#FFE3E3"/>
<stop offset="1" stop-color="#FFC4C4"/>
</linearGradient>
<linearGradient id="paint7_linear_42_3" x1="23" y1="1376.96" x2="4485.7" y2="-372.887" gradientUnits="userSpaceOnUse">
<stop stop-color="#F98585"/>
<stop offset="1" stop-color="#F19C9C"/>
</linearGradient>
<clipPath id="clip0_42_3">
<rect width="94" height="102" fill="white"/>
</clipPath>
</defs>
</svg>
