<svg width="94" height="102" viewBox="0 0 94 102" fill="none" xmlns="http://www.w3.org/2000/svg">
<g clip-path="url(#clip0_42_26)">
<g filter="url(#filter0_i_42_26)">
<rect x="13" y="28.3742" width="56.4022" height="44.4017" rx="6.00023" transform="rotate(-22.2061 13 28.3742)" fill="url(#paint0_linear_42_26)"/>
</g>
<g filter="url(#filter1_ii_42_26)">
<path d="M15.2677 33.9294C14.0153 30.8613 15.4871 27.3589 18.5552 26.1064L59.6636 9.32525C62.7317 8.07282 66.2341 9.54467 67.4865 12.6127L68.1669 14.2793L15.948 35.5959L15.2677 33.9294Z" fill="#11BFA8"/>
</g>
<circle cx="18.6404" cy="30.2843" r="0.900035" transform="rotate(-22.2061 18.6404 30.2843)" fill="white"/>
<circle cx="21.418" cy="29.1503" r="0.900035" transform="rotate(-22.2061 21.418 29.1503)" fill="white"/>
<circle cx="24.1956" cy="28.0165" r="0.900035" transform="rotate(-22.2061 24.1956 28.0165)" fill="white"/>
<rect x="20.6418" y="37.5684" width="49.2019" height="8.40032" rx="0.600023" transform="rotate(-22.2061 20.6418 37.5684)" fill="url(#paint1_linear_42_26)" fill-opacity="0.8"/>
<rect x="24.4969" y="47.0123" width="49.2019" height="8.40032" rx="0.600023" transform="rotate(-22.2061 24.4969 47.0123)" fill="url(#paint2_linear_42_26)" fill-opacity="0.8"/>
<rect x="28.5789" y="57.0115" width="49.2019" height="8.40032" rx="0.600023" transform="rotate(-22.2061 28.5789 57.0115)" fill="url(#paint3_linear_42_26)" fill-opacity="0.8"/>
<rect x="33.4416" y="35.5838" width="10.8004" height="2.40009" rx="0.600023" transform="rotate(-22.2061 33.4416 35.5838)" fill="#57E2D0"/>
<rect x="47.8851" y="29.6878" width="16.2006" height="2.40009" rx="0.600023" transform="rotate(-22.2061 47.8851 29.6878)" fill="#57E2D0"/>
<circle cx="27.7844" cy="39.1893" r="1.20005" transform="rotate(-22.2061 27.7844 39.1893)" fill="#57E2D0"/>
<rect x="37.2967" y="45.0276" width="10.8004" height="2.40009" rx="0.600023" transform="rotate(-22.2061 37.2967 45.0276)" fill="#57E2D0"/>
<rect x="51.7402" y="39.1316" width="16.2006" height="2.40009" rx="0.600023" transform="rotate(-22.2061 51.7402 39.1316)" fill="#57E2D0"/>
<circle cx="31.6396" cy="48.6331" r="1.20005" transform="rotate(-22.2061 31.6396 48.6331)" fill="#57E2D0"/>
<rect x="41.3786" y="55.0269" width="10.8004" height="2.40009" rx="0.600023" transform="rotate(-22.2061 41.3786 55.0269)" fill="#57E2D0"/>
<rect x="55.8221" y="49.1309" width="16.2006" height="2.40009" rx="0.600023" transform="rotate(-22.2061 55.8221 49.1309)" fill="#57E2D0"/>
<circle cx="35.7215" cy="58.6325" r="1.20005" transform="rotate(-22.2061 35.7215 58.6325)" fill="#57E2D0"/>
<g opacity="0.160922" filter="url(#filter2_f_42_26)">
<path d="M71 64H25C23.8954 64 23 64.8954 23 66V84C23 85.1046 23.8954 86 25 86H71C72.1046 86 73 85.1046 73 84V66C73 64.8954 72.1046 64 71 64Z" fill="url(#paint4_linear_42_26)"/>
</g>
</g>
<defs>
<filter id="filter0_i_42_26" x="14.8211" y="7.67858" width="66.5578" height="59.9829" filterUnits="userSpaceOnUse" color-interpolation-filters="sRGB">
<feFlood flood-opacity="0" result="BackgroundImageFix"/>
<feBlend mode="normal" in="SourceGraphic" in2="BackgroundImageFix" result="shape"/>
<feColorMatrix in="SourceAlpha" type="matrix" values="0 0 0 0 0 0 0 0 0 0 0 0 0 0 0 0 0 0 127 0" result="hardAlpha"/>
<feOffset dx="1.20005" dy="-1.20005"/>
<feGaussianBlur stdDeviation="1.20005"/>
<feComposite in2="hardAlpha" operator="arithmetic" k2="-1" k3="1"/>
<feColorMatrix type="matrix" values="0 0 0 0 1 0 0 0 0 1 0 0 0 0 1 0 0 0 0.5 0"/>
<feBlend mode="normal" in2="shape" result="effect1_innerShadow_42_26"/>
</filter>
<filter id="filter1_ii_42_26" x="13.6211" y="7.67858" width="55.7459" height="29.1174" filterUnits="userSpaceOnUse" color-interpolation-filters="sRGB">
<feFlood flood-opacity="0" result="BackgroundImageFix"/>
<feBlend mode="normal" in="SourceGraphic" in2="BackgroundImageFix" result="shape"/>
<feColorMatrix in="SourceAlpha" type="matrix" values="0 0 0 0 0 0 0 0 0 0 0 0 0 0 0 0 0 0 127 0" result="hardAlpha"/>
<feOffset dx="1.20005" dy="1.20005"/>
<feGaussianBlur stdDeviation="1.80007"/>
<feComposite in2="hardAlpha" operator="arithmetic" k2="-1" k3="1"/>
<feColorMatrix type="matrix" values="0 0 0 0 0.270588 0 0 0 0 0.839216 0 0 0 0 0.776471 0 0 0 1 0"/>
<feBlend mode="normal" in2="shape" result="effect1_innerShadow_42_26"/>
<feColorMatrix in="SourceAlpha" type="matrix" values="0 0 0 0 0 0 0 0 0 0 0 0 0 0 0 0 0 0 127 0" result="hardAlpha"/>
<feOffset dx="-1.20005" dy="-1.20005"/>
<feGaussianBlur stdDeviation="1.80007"/>
<feComposite in2="hardAlpha" operator="arithmetic" k2="-1" k3="1"/>
<feColorMatrix type="matrix" values="0 0 0 0 0.270588 0 0 0 0 0.839216 0 0 0 0 0.776471 0 0 0 1 0"/>
<feBlend mode="normal" in2="effect1_innerShadow_42_26" result="effect2_innerShadow_42_26"/>
</filter>
<filter id="filter2_f_42_26" x="5" y="46" width="86" height="58" filterUnits="userSpaceOnUse" color-interpolation-filters="sRGB">
<feFlood flood-opacity="0" result="BackgroundImageFix"/>
<feBlend mode="normal" in="SourceGraphic" in2="BackgroundImageFix" result="shape"/>
<feGaussianBlur stdDeviation="9" result="effect1_foregroundBlur_42_26"/>
</filter>
<linearGradient id="paint0_linear_42_26" x1="67.3021" y1="30.4742" x2="16.9001" y2="72.7759" gradientUnits="userSpaceOnUse">
<stop stop-color="#23F0B1"/>
<stop offset="1" stop-color="#35A9CD"/>
</linearGradient>
<linearGradient id="paint1_linear_42_26" x1="20.6418" y1="41.7686" x2="69.8437" y2="41.7686" gradientUnits="userSpaceOnUse">
<stop stop-color="#DBFFF7"/>
<stop offset="1" stop-color="#CEFFF3"/>
</linearGradient>
<linearGradient id="paint2_linear_42_26" x1="24.4969" y1="51.2124" x2="73.6988" y2="51.2124" gradientUnits="userSpaceOnUse">
<stop stop-color="#DBFFF7"/>
<stop offset="1" stop-color="#CEFFF3"/>
</linearGradient>
<linearGradient id="paint3_linear_42_26" x1="28.5789" y1="61.2117" x2="77.7807" y2="61.2117" gradientUnits="userSpaceOnUse">
<stop stop-color="#DBFFF7"/>
<stop offset="1" stop-color="#CEFFF3"/>
</linearGradient>
<linearGradient id="paint4_linear_42_26" x1="687.322" y1="1697.82" x2="1316.05" y2="376.663" gradientUnits="userSpaceOnUse">
<stop stop-color="#1F6FD6"/>
<stop offset="1" stop-color="#00EFA3"/>
</linearGradient>
<clipPath id="clip0_42_26">
<rect width="94" height="102" fill="white"/>
</clipPath>
</defs>
</svg>
