<?xml version="1.0" standalone="no"?>
<!DOCTYPE svg PUBLIC "-//W3C//DTD SVG 20010904//EN"
 "http://www.w3.org/TR/2001/REC-SVG-20010904/DTD/svg10.dtd">
<svg version="1.0" xmlns="http://www.w3.org/2000/svg"
 width="1280.000000pt" height="1280.000000pt" viewBox="0 0 1280.000000 1280.000000"
 preserveAspectRatio="xMidYMid meet">
<metadata>
Created by potrace 1.16, written by Peter Selinger 2001-2019
</metadata>
<g transform="translate(0.000000,1280.000000) scale(0.100000,-0.100000)"
fill="#000000" stroke="none">
<path d="M9402 11185 c-113 -25 -169 -44 -269 -94 -275 -138 -467 -375 -551
-679 l-27 -97 0 -1855 0 -1855 21 -80 c55 -206 147 -369 283 -505 157 -158
356 -260 576 -295 342 -56 684 53 926 295 136 136 228 299 283 505 l21 80 0
1855 0 1855 -27 97 c-111 403 -425 697 -826 774 -93 18 -326 17 -410 -1z"/>
<path d="M2715 10576 c-111 -29 -168 -54 -243 -105 -165 -112 -272 -303 -272
-486 0 -158 60 -295 182 -418 l78 -78 -33 -11 c-17 -6 -64 -28 -103 -48 -373
-192 -525 -610 -355 -975 58 -124 166 -247 276 -315 19 -12 35 -25 35 -29 0
-4 -23 -15 -51 -25 -120 -43 -281 -176 -362 -299 -137 -206 -156 -486 -47
-709 60 -122 176 -253 278 -314 l30 -17 -32 -25 c-182 -147 -296 -337 -336
-559 -18 -97 -8 -287 19 -378 97 -324 347 -558 701 -656 83 -22 98 -23 662
-28 l576 -6 -74 -90 c-111 -133 -186 -251 -274 -430 -159 -324 -255 -686 -306
-1150 -13 -120 -18 -242 -18 -490 0 -494 26 -686 117 -859 119 -230 331 -397
579 -456 62 -15 118 -20 223 -20 137 0 141 1 191 30 199 113 380 571 489 1234
30 183 51 242 141 392 167 278 462 630 1145 1364 151 163 314 339 362 393 73
79 95 98 125 103 185 31 318 72 461 140 487 230 828 695 900 1227 7 51 11 436
11 1115 0 970 -1 1045 -19 1167 -35 236 -93 420 -201 640 -113 230 -237 400
-422 581 -333 325 -719 515 -1198 591 -94 15 -262 17 -1625 19 l-1520 3 -90
-23z"/>
</g>
</svg>
